{
.appVersion = "1158";
DisplayStrings = (
"/four.numr"
);
copyright = "Copyright (c) 2012-13 by vernon adams.";
customParameters = (
{
name = note;
value = "";
},
{
name = description;
value = "Copyright (c) 2011 by vernon adams. All rights reserved.";
},
{
name = openTypeNameLicense;
value = "Copyright (c) 2013, vernon adams (<URL|email>),\012with Reserved Font Name Topmarks.\012\012This Font Software is licensed under the SIL Open Font License, Version 1.1.\012This license is copied below, and is also available with a FAQ at:\012http://scripts.sil.org/OFL";
},
{
name = openTypeNameLicenseURL;
value = "http://scripts.sil.org/OFL";
},
{
name = openTypeNameVersion;
value = "Version ";
},
{
name = openTypeOS2FamilyClass;
value = (
0,
0
);
},
{
name = vendorID;
value = newt;
},
{
name = blueFuzz;
value = 1;
},
{
name = blueScale;
value = 0.03963;
},
{
name = blueShift;
value = 7;
},
{
name = trademark;
value = "Topmarks is a trademark of vernon adams.";
}
);
date = "2018-07-25 18:37:01 +0000";
designer = "vernon adams";
disablesNiceNames = 1;
familyName = Topmarks;
featurePrefixes = (
{
automatic = 1;
code = "languagesystem DFLT dflt;\012languagesystem latn dflt;\012languagesystem latn CAT;\012languagesystem latn ROM;\012languagesystem latn MOL;\012";
name = Languagesystems;
}
);
features = (
{
automatic = 1;
code = "feature locl;\012feature numr;\012feature dnom;\012feature frac;\012feature ordn;\012";
name = aalt;
},
{
automatic = 1;
code = "script latn;\012language CAT;\012sub  l' periodcentered' l by ldot;\012sub  L' periodcentered' L by Ldot;\012language ROM;\012sub Scedilla by Scommaaccent;\012sub scedilla by scommaaccent;\012language MOL;\012sub Scedilla by Scommaaccent;\012sub scedilla by scommaaccent;\012";
name = locl;
},
{
automatic = 1;
code = "sub one by one.numr;\012sub two by two.numr;\012sub three by three.numr;\012sub four by four.numr;\012";
name = numr;
},
{
automatic = 1;

glyphs = (
{
glyphname = A;
lastChange = "2018-07-25 19:37:42 +0000";
layers = (
{
anchors = (
{
name = bottom;
position = "{699, 0}";
},
{
name = ogonek;
position = "{1257, 10}";
},
{
name = top;
position = "{699, 1560}";
}
);
layerId = "850197A4-73EE-4DD1-A43D-17FCD4749099";
paths = (
{
closed = 1;
nodes = (
"216 0 LINE",
"383 479 LINE",
"1008 479 LINE",
"1176 0 LINE",
"1357 0 LINE",
"787 1560 LINE",
"609 1560 LINE",
"40 0 LINE"
);
},
{
closed = 1;
nodes = (
"522 872 OFFCURVE",
"609 1130 OFFCURVE",
"698 1385 CURVE",
"781 1125 OFFCURVE",
"869 871 OFFCURVE",
"956 615 CURVE",
"435 615 LINE"
);
}
);
width = 1397;
},
{
anchors = (
{
name = bottom;
position = "{691, 0}";
},
{
name = ogonek;
position = "{1243, 10}";
},
{
name = top;
position = "{691, 1557}";
}
);
layerId = "8183A7D6-F04A-4582-B03C-55CCED69A0BD";
paths = (
{
closed = 1;
nodes = (
"311 0 LINE",
"424 355 LINE",
"950 355 LINE",
"1059 0 LINE",
"1344 0 LINE",
"815 1560 LINE",
"575 1560 LINE",
"37 0 LINE"
);
},
{
closed = 1;
nodes = (
"557 772 OFFCURVE",
"623 992 OFFCURVE",
"689 1211 CURVE",
"755 992 OFFCURVE",
"821 774 OFFCURVE",
"885 553 CURVE",
"491 553 LINE"
);
}
);
width = 1381;
}
);
unicode = 0041;
},
{
glyphname = AE;
lastChange = "2018-07-25 19:37:42 +0000";
layers = (
{
anchors = (
{
name = bottom;
position = "{991, 0}";
},
{
name = top;
position = "{991, 1560}";
}
);
layerId = "850197A4-73EE-4DD1-A43D-17FCD4749099";
paths = (
{
closed = 1;
nodes = (
"211 0 LINE",
"430 398 LINE",
"1050 398 LINE",
"1080 0 LINE",
"1855 0 LINE",
"1855 148 LINE",
"1227 148 LINE",
"1187 672 LINE",
"1791 672 LINE",
"1791 820 LINE",
"1169 820 LINE",
"1133 1308 LINE",
"1832 1308 LINE",
"1832 1456 LINE",
"823 1456 LINE",
"15 0 LINE"
);
},
{
closed = 1;
nodes = (
"926 1308 LINE",
"974 1308 LINE",
"1032 546 LINE",
"506 546 LINE"
);
}
);
width = 1981;
},
{
anchors = (
{
name = bottom;
position = "{1030, 0}";
},
{
name = top;
position = "{1030, 1557}";
}
);
layerId = "8183A7D6-F04A-4582-B03C-55CCED69A0BD";
paths = (
{
closed = 1;
nodes = (
"306 0 LINE",
"519 378 LINE",
"1088 378 LINE",
"1119 0 LINE",
"1927 0 LINE",
"1927 184 LINE",
"1358 184 LINE",
"1318 648 LINE",
"1863 648 LINE",
"1863 821 LINE",
"1296 821 LINE",
"1258 1262 LINE",
"1904 1262 LINE",
"1904 1456 LINE",
"851 1456 LINE",
"18 0 LINE"
);
},
{
closed = 1;
nodes = (
"995 1262 LINE",
"1009 1262 LINE",
"1069 562 LINE",
"599 562 LINE"
);
}
);
width = 2059;
}
);
unicode = 00C6;
},
{
glyphname = B;
lastChange = "2018-07-25 19:37:42 +0000";
layers = (
{
anchors = (
{
name = bottom;
position = "{680, 0}";
},
{
name = top;
position = "{680, 1560}";
}
);
layerId = "850197A4-73EE-4DD1-A43D-17FCD4749099";
paths = (
{
closed = 1;
nodes = (
"643 0 LINE SMOOTH",
"985 0 OFFCURVE",
"1218 122 OFFCURVE",
"1218 432 CURVE SMOOTH",
"1218 669 OFFCURVE",
"1098 782 OFFCURVE",
"897 824 CURVE",
"1059 882 OFFCURVE",
"1150 983 OFFCURVE",
"1150 1184 CURVE SMOOTH",
"1150 1454 OFFCURVE",
"966 1560 OFFCURVE",
"596 1560 CURVE SMOOTH",
"198 1560 LINE",
"198 0 LINE"
);
},
{
closed = 1;
nodes = (
"372 733 LINE",
"592 733 LINE SMOOTH",
"897 733 OFFCURVE",
"1036 645 OFFCURVE",
"1036 435 CURVE SMOOTH",
"1036 229 OFFCURVE",
"901 138 OFFCURVE",
"637 138 CURVE SMOOTH",
"372 138 LINE"
);
},
{
closed = 1;
nodes = (
"372 1422 LINE",
"596 1422 LINE SMOOTH",
"883 1422 OFFCURVE",
"971 1339 OFFCURVE",
"971 1154 CURVE SMOOTH",
"971 962 OFFCURVE",
"840 884 OFFCURVE",
"562 884 CURVE SMOOTH",
"372 884 LINE"
);
}
);
width = 1360;
},
{
anchors = (
{
name = bottom;
position = "{712, 0}";
},
{
name = top;
position = "{712, 1557}";
}
);
layerId = "8183A7D6-F04A-4582-B03C-55CCED69A0BD";
paths = (
{
closed = 1;
nodes = (
"726 0 LINE SMOOTH",
"1134 0 OFFCURVE",
"1322 140 OFFCURVE",
"1322 454 CURVE SMOOTH",
"1322 683 OFFCURVE",
"1223 800 OFFCURVE",
"999 838 CURVE",
"1177 889 OFFCURVE",
"1257 994 OFFCURVE",
"1257 1187 CURVE SMOOTH",
"1257 1450 OFFCURVE",
"1066 1560 OFFCURVE",
"657 1560 CURVE SMOOTH",
"178 1560 LINE",
"178 0 LINE"
);
},
{
closed = 1;
nodes = (
"428 717 LINE",
"713 717 LINE SMOOTH",
"962 717 OFFCURVE",
"1069 630 OFFCURVE",
"1069 462 CURVE SMOOTH",
"1069 285 OFFCURVE",
"968 209 OFFCURVE",
"729 209 CURVE SMOOTH",
"428 209 LINE"
);
},
{
closed = 1;
nodes = (
"428 1356 LINE",
"668 1356 LINE SMOOTH",
"908 1356 OFFCURVE",
"1008 1299 OFFCURVE",
"1008 1156 CURVE SMOOTH",
"1008 990 OFFCURVE",
"912 905 OFFCURVE",
"682 905 CURVE SMOOTH",
"428 905 LINE"
);
}
);
width = 1423;
}
);
unicode = 0042;
},
{
glyphname = C;
lastChange = "2018-07-25 19:37:42 +0000";
layers = (
{
anchors = (
{
name = bottom;
position = "{702, 0}";
},
{
name = top;
position = "{702, 1560}";
}
);
layerId = "850197A4-73EE-4DD1-A43D-17FCD4749099";
paths = (
{
closed = 1;
nodes = (
"988 -24 OFFCURVE",
"1120 18 OFFCURVE",
"1266 100 CURVE",
"1213 230 LINE",
"1088 161 OFFCURVE",
"949 126 OFFCURVE",
"837 126 CURVE SMOOTH",
"535 126 OFFCURVE",
"309 375 OFFCURVE",
"309 783 CURVE SMOOTH",
"309 1198 OFFCURVE",
"544 1436 OFFCURVE",
"843 1436 CURVE SMOOTH",
"957 1436 OFFCURVE",
"1078 1402 OFFCURVE",
"1205 1332 CURVE",
"1266 1466 LINE",
"1120 1548 OFFCURVE",
"988 1586 OFFCURVE",
"824 1586 CURVE SMOOTH",
"446 1586 OFFCURVE",
"126 1310 OFFCURVE",
"126 783 CURVE SMOOTH",
"126 256 OFFCURVE",
"446 -24 OFFCURVE",
"824 -24 CURVE SMOOTH"
);
}
);
width = 1404;
},
{
anchors = (
{
name = bottom;
position = "{748, 0}";
},
{
name = top;
position = "{748, 1557}";
}
);
layerId = "8183A7D6-F04A-4582-B03C-55CCED69A0BD";
paths = (
{
closed = 1;
nodes = (
"862 -24 LINE SMOOTH",
"1030 -22 OFFCURVE",
"1252 40 OFFCURVE",
"1368 135 CURVE",
"1285 328 LINE",
"1153 235 OFFCURVE",
"1005 186 OFFCURVE",
"868 186 CURVE SMOOTH",
"602 186 OFFCURVE",
"375 371 OFFCURVE",
"375 784 CURVE SMOOTH",
"375 1192 OFFCURVE",
"621 1372 OFFCURVE",
"880 1372 CURVE SMOOTH",
"1014 1372 OFFCURVE",
"1151 1324 OFFCURVE",
"1259 1234 CURVE",
"1351 1436 LINE",
"1208 1535 OFFCURVE",
"1040 1584 OFFCURVE",
"876 1584 CURVE SMOOTH",
"488 1584 OFFCURVE",
"116 1312 OFFCURVE",
"116 785 CURVE SMOOTH",
"116 312 OFFCURVE",
"389 -24 OFFCURVE",
"852 -24 CURVE SMOOTH"
);
}
);
width = 1495;
}
);
unicode = 0043;
},
{
glyphname = D;
lastChange = "2018-07-25 19:37:42 +0000";
layers = (
{
anchors = (
{
name = bottom;
position = "{763, 0}";
},
{
name = center;
position = "{763, 780}";
},
{
name = top;
position = "{763, 1560}";
}
);
layerId = "850197A4-73EE-4DD1-A43D-17FCD4749099";
paths = (
{
closed = 1;
nodes = (
"610 0 LINE SMOOTH",
"1076 0 OFFCURVE",
"1400 295 OFFCURVE",
"1400 778 CURVE SMOOTH",
"1400 1327 OFFCURVE",
"1049 1560 OFFCURVE",
"523 1560 CURVE SMOOTH",
"198 1560 LINE",
"198 0 LINE"
);
},
{
closed = 1;
nodes = (
"372 1422 LINE",
"527 1422 LINE SMOOTH",
"959 1422 OFFCURVE",
"1218 1232 OFFCURVE",
"1218 775 CURVE SMOOTH",
"1218 388 OFFCURVE",
"991 138 OFFCURVE",
"621 138 CURVE SMOOTH",
"372 138 LINE"
);
}
);
width = 1526;
},
{
anchors = (
{
name = bottom;
position = "{769, 0}";
},
{
name = center;
position = "{769, 779}";
},
{
name = top;
position = "{769, 1557}";
}
);
layerId = "8183A7D6-F04A-4582-B03C-55CCED69A0BD";
paths = (
{
closed = 1;
nodes = (
"574 0 LINE SMOOTH",
"1140 0 OFFCURVE",
"1422 275 OFFCURVE",
"1422 792 CURVE SMOOTH",
"1422 1290 OFFCURVE",
"1111 1560 OFFCURVE",
"517 1560 CURVE SMOOTH",
"178 1560 LINE",
"178 0 LINE"
);
},
{
closed = 1;
nodes = (
"428 1360 LINE",
"550 1360 LINE SMOOTH",
"996 1360 OFFCURVE",
"1156 1142 OFFCURVE",
"1156 789 CURVE SMOOTH",
"1156 422 OFFCURVE",
"1008 200 OFFCURVE",
"590 200 CURVE SMOOTH",
"428 200 LINE"
);
}
);
width = 1538;
}
);
unicode = 0044;
},
{
glyphname = Eth;
lastChange = "2018-07-25 19:29:46 +0000";
layers = (
{
components = (
{
name = D;
}
);
layerId = "850197A4-73EE-4DD1-A43D-17FCD4749099";
paths = (
{
closed = 1;
nodes = (
"610 672 LINE",
"610 800 LINE",
"43 800 LINE",
"43 672 LINE"
);
}
);
width = 1518;
},
{
components = (
{
name = D;
},
{
name = hyphen;
transform = "{1, 0, 0, 1, -131, 5}";
}
);
layerId = "8183A7D6-F04A-4582-B03C-55CCED69A0BD";
width = 1504;
}
);
unicode = 00D0;
},
{
glyphname = E;
lastChange = "2018-07-25 19:37:42 +0000";
layers = (
{
anchors = (
{
name = bottom;
position = "{596, 0}";
},
{
name = ogonek;
position = "{1073, 10}";
},
{
name = top;
position = "{596, 1560}";
},
{
name = topleft;
position = "{20, 1560}";
}
);
layerId = "850197A4-73EE-4DD1-A43D-17FCD4749099";
paths = (
{
closed = 1;
nodes = (
"1095 0 LINE",
"1095 138 LINE",
"372 138 LINE",
"372 732 LINE",
"1007 732 LINE",
"1007 870 LINE",
"372 870 LINE",
"372 1422 LINE",
"1045 1422 LINE",
"1045 1560 LINE",
"198 1560 LINE",
"198 0 LINE"
);
}
);
width = 1192;
},
{
anchors = (
{
name = bottom;
position = "{578, 0}";
},
{
name = ogonek;
position = "{1040, 10}";
},
{
name = top;
position = "{578, 1557}";
},
{
name = topleft;
position = "{20, 1557}";
}
);
layerId = "8183A7D6-F04A-4582-B03C-55CCED69A0BD";
paths = (
{
closed = 1;
nodes = (
"1056 0 LINE",
"1056 200 LINE",
"428 200 LINE",
"428 713 LINE",
"994 713 LINE",
"994 906 LINE",
"428 906 LINE",
"428 1360 LINE",
"1036 1360 LINE",
"1036 1560 LINE",
"178 1560 LINE",
"178 0 LINE"
);
}
);
width = 1156;
}
);
unicode = 0045;
},
{
glyphname = F;
lastChange = "2018-07-25 19:37:42 +0000";
layers = (
{
anchors = (
{
name = bottom;
position = "{552, 0}";
},
{
name = top;
position = "{552, 1560}";
}
);
layerId = "850197A4-73EE-4DD1-A43D-17FCD4749099";
paths = (
{
closed = 1;
nodes = (
"372 0 LINE",
"372 777 LINE",
"990 777 LINE",
"990 925 LINE",
"372 925 LINE",
"372 1422 LINE",
"1024 1422 LINE",
"1024 1560 LINE",
"198 1560 LINE",
"198 0 LINE"
);
}
);
width = 1104;
},
{
anchors = (
{
name = bottom;
position = "{547, 0}";
},
{
name = top;
position = "{547, 1557}";
}
);
layerId = "8183A7D6-F04A-4582-B03C-55CCED69A0BD";
paths = (
{
closed = 1;
nodes = (
"428 0 LINE",
"428 732 LINE",
"986 732 LINE",
"986 925 LINE",
"428 925 LINE",
"428 1360 LINE",
"1019 1360 LINE",
"1019 1560 LINE",
"178 1560 LINE",
"178 0 LINE"
);
}
);
width = 1093;
}
);
unicode = 0046;
},
{
glyphname = G;
lastChange = "2018-07-25 19:37:42 +0000";
layers = (
{
anchors = (
{
name = bottom;
position = "{754, 0}";
},
{
name = top;
position = "{754, 1560}";
}
);
layerId = "850197A4-73EE-4DD1-A43D-17FCD4749099";
paths = (
{
closed = 1;
nodes = (
"1028 -24 OFFCURVE",
"1182 15 OFFCURVE",
"1327 88 CURVE",
"1327 812 LINE",
"752 812 LINE",
"752 653 LINE",
"1164 653 LINE",
"1164 178 LINE",
"1078 139 OFFCURVE",
"966 126 OFFCURVE",
"850 126 CURVE SMOOTH",
"494 126 OFFCURVE",
"309 370 OFFCURVE",
"309 766 CURVE SMOOTH",
"309 1187 OFFCURVE",
"544 1436 OFFCURVE",
"858 1436 CURVE SMOOTH",
"973 1436 OFFCURVE",
"1099 1395 OFFCURVE",
"1228 1327 CURVE",
"1296 1466 LINE",
"1147 1547 OFFCURVE",
"992 1587 OFFCURVE",
"847 1587 CURVE SMOOTH",
"455 1587 OFFCURVE",
"126 1298 OFFCURVE",
"126 752 CURVE SMOOTH",
"126 258 OFFCURVE",
"391 -24 OFFCURVE",
"837 -24 CURVE SMOOTH"
);
}
);
width = 1507;
},
{
anchors = (
{
name = bottom;
position = "{781, 0}";
},
{
name = top;
position = "{781, 1557}";
}
);
layerId = "8183A7D6-F04A-4582-B03C-55CCED69A0BD";
paths = (
{
closed = 1;
nodes = (
"862 -24 LINE",
"1043 -24 OFFCURVE",
"1259 18 OFFCURVE",
"1400 85 CURVE",
"1400 828 LINE",
"786 828 LINE",
"786 638 LINE",
"1163 638 LINE",
"1163 217 LINE",
"1075 193 OFFCURVE",
"988 180 OFFCURVE",
"904 180 CURVE SMOOTH",
"614 180 OFFCURVE",
"375 341 OFFCURVE",
"375 784 CURVE SMOOTH",
"375 1192 OFFCURVE",
"621 1372 OFFCURVE",
"880 1372 CURVE SMOOTH",
"1014 1372 OFFCURVE",
"1151 1324 OFFCURVE",
"1259 1234 CURVE",
"1351 1436 LINE",
"1208 1535 OFFCURVE",
"1040 1584 OFFCURVE",
"876 1584 CURVE SMOOTH",
"488 1584 OFFCURVE",
"116 1312 OFFCURVE",
"116 785 CURVE SMOOTH",
"116 312 OFFCURVE",
"389 -24 OFFCURVE",
"852 -24 CURVE SMOOTH"
);
}
);
width = 1561;
}
);
unicode = 0047;
},
{
glyphname = H;
lastChange = "2018-07-25 19:37:42 +0000";
layers = (
{
anchors = (
{
name = bottom;
position = "{755, 0}";
},
{
name = center;
position = "{755, 780}";
},
{
name = top;
position = "{755, 1560}";
},
{
name = topleft;
position = "{20, 1560}";
}
);
layerId = "850197A4-73EE-4DD1-A43D-17FCD4749099";
paths = (
{
closed = 1;
nodes = (
"372 0 LINE",
"372 741 LINE",
"1138 741 LINE",
"1138 0 LINE",
"1312 0 LINE",
"1312 1560 LINE",
"1138 1560 LINE",
"1138 889 LINE",
"372 889 LINE",
"372 1560 LINE",
"198 1560 LINE",
"198 0 LINE"
);
}
);
width = 1510;
},
{
anchors = (
{
name = bottom;
position = "{763, 0}";
},
{
name = center;
position = "{763, 779}";
},
{
name = top;
position = "{763, 1557}";
},
{
name = topleft;
position = "{20, 1557}";
}
);
layerId = "8183A7D6-F04A-4582-B03C-55CCED69A0BD";
paths = (
{
closed = 1;
nodes = (
"428 0 LINE",
"428 695 LINE",
"1097 695 LINE",
"1097 0 LINE",
"1347 0 LINE",
"1347 1560 LINE",
"1097 1560 LINE",
"1097 910 LINE",
"428 910 LINE",
"428 1560 LINE",
"178 1560 LINE",
"178 0 LINE"
);
}
);
width = 1525;
}
);
unicode = 0048;
},
{
glyphname = I;
lastChange = "2018-07-25 19:37:42 +0000";
layers = (
{
anchors = (
{
name = bottom;
position = "{451, 0}";
},
{
name = ogonek;
position = "{812, 10}";
},
{
name = top;
position = "{451, 1560}";
},
{
name = topleft;
position = "{20, 1560}";
}
);
layerId = "850197A4-73EE-4DD1-A43D-17FCD4749099";
paths = (
{
closed = 1;
nodes = (
"746 0 LINE",
"746 124 LINE",
"538 124 LINE",
"538 1436 LINE",
"746 1436 LINE",
"746 1560 LINE",
"156 1560 LINE",
"156 1436 LINE",
"364 1436 LINE",
"364 124 LINE",
"156 124 LINE",
"156 0 LINE"
);
}
);
width = 902;
},
{
anchors = (
{
name = bottom;
position = "{467, 0}";
},
{
name = ogonek;
position = "{841, 10}";
},
{
name = top;
position = "{467, 1557}";
},
{
name = topleft;
position = "{20, 1557}";
}
);
layerId = "8183A7D6-F04A-4582-B03C-55CCED69A0BD";
paths = (
{
closed = 1;
nodes = (
"766 0 LINE",
"766 182 LINE",
"592 182 LINE",
"592 1378 LINE",
"766 1378 LINE",
"766 1560 LINE",
"168 1560 LINE",
"168 1378 LINE",
"342 1378 LINE",
"342 182 LINE",
"168 182 LINE",
"168 0 LINE"
);
}
);
width = 934;
}
);
unicode = 0049;
},
{
glyphname = J;
lastChange = "2018-07-25 19:37:42 +0000";
layers = (
{
anchors = (
{
name = bottom;
position = "{601, 0}";
},
{
name = top;
position = "{601, 1560}";
}
);
layerId = "850197A4-73EE-4DD1-A43D-17FCD4749099";
paths = (
{
closed = 1;
nodes = (
"716 -24 OFFCURVE",
"860 123 OFFCURVE",
"860 434 CURVE SMOOTH",
"860 1436 LINE",
"1131 1436 LINE",
"1131 1560 LINE",
"288 1560 LINE",
"288 1436 LINE",
"693 1436 LINE",
"693 467 LINE SMOOTH",
"693 209 OFFCURVE",
"616 126 OFFCURVE",
"455 126 CURVE SMOOTH",
"370 126 OFFCURVE",
"276 166 OFFCURVE",
"208 248 CURVE",
"121 130 LINE",
"206 24 OFFCURVE",
"342 -24 OFFCURVE",
"465 -24 CURVE SMOOTH"
);
}
);
width = 1201;
},
{
anchors = (
{
name = bottom;
position = "{635, 0}";
},
{
name = top;
position = "{635, 1557}";
}
);
layerId = "8183A7D6-F04A-4582-B03C-55CCED69A0BD";
paths = (
{
closed = 1;
nodes = (
"718 -24 OFFCURVE",
"924 125 OFFCURVE",
"924 447 CURVE SMOOTH",
"924 1360 LINE",
"1242 1360 LINE",
"1242 1560 LINE",
"317 1560 LINE",
"317 1360 LINE",
"681 1360 LINE",
"681 428 LINE SMOOTH",
"681 268 OFFCURVE",
"592 188 OFFCURVE",
"478 184 CURVE SMOOTH",
"468 184 LINE SMOOTH",
"387 184 OFFCURVE",
"296 221 OFFCURVE",
"218 310 CURVE",
"100 145 LINE",
"209 21 OFFCURVE",
"340 -24 OFFCURVE",
"495 -24 CURVE SMOOTH"
);
}
);
width = 1270;
}
);
unicode = 004A;
},
{
glyphname = K;
lastChange = "2018-07-25 19:37:42 +0000";
layers = (
{
anchors = (
{
name = bottom;
position = "{629, 0}";
},
{
name = top;
position = "{629, 1560}";
}
);
layerId = "850197A4-73EE-4DD1-A43D-17FCD4749099";
paths = (
{
closed = 1;
nodes = (
"372 0 LINE",
"372 779 LINE",
"1021 0 LINE",
"1239 0 LINE",
"548 818 LINE",
"1199 1560 LINE",
"988 1560 LINE",
"372 850 LINE",
"372 1560 LINE",
"198 1560 LINE",
"198 0 LINE"
);
}
);
width = 1258;
},
{
anchors = (
{
name = bottom;
position = "{646, 0}";
},
{
name = top;
position = "{646, 1557}";
}
);
layerId = "8183A7D6-F04A-4582-B03C-55CCED69A0BD";
paths = (
{
closed = 1;
nodes = (
"428 0 LINE",
"428 735 LINE",
"956 0 LINE",
"1275 0 LINE",
"665 827 LINE",
"1241 1560 LINE",
"937 1560 LINE",
"428 876 LINE",
"428 1560 LINE",
"178 1560 LINE",
"178 0 LINE"
);
}
);
width = 1292;
}
);
unicode = 004B;
},
{
glyphname = L;
lastChange = "2018-07-25 19:37:42 +0000";
layers = (
{
anchors = (
{
name = bottom;
position = "{535, 0}";
},
{
name = center;
position = "{535, 780}";
},
{
name = top;
position = "{535, 1560}";
},
{
name = topright;
position = "{1050, 1560}";
}
);
layerId = "850197A4-73EE-4DD1-A43D-17FCD4749099";
paths = (
{
closed = 1;
nodes = (
"1051 0 LINE",
"1051 138 LINE",
"372 138 LINE",
"372 1560 LINE",
"198 1560 LINE",
"198 0 LINE"
);
}
);
width = 1070;
},
{
anchors = (
{
name = bottom;
position = "{526, 0}";
},
{
name = center;
position = "{526, 779}";
},
{
name = top;
position = "{526, 1557}";
},
{
name = topright;
position = "{1031, 1557}";
}
);
layerId = "8183A7D6-F04A-4582-B03C-55CCED69A0BD";
paths = (
{
closed = 1;
nodes = (
"1034 0 LINE",
"1034 200 LINE",
"428 200 LINE",
"428 1560 LINE",
"178 1560 LINE",
"178 0 LINE"
);
}
);
width = 1051;
}
);
unicode = 004C;
},
{
glyphname = Lslash;
lastChange = "2018-07-25 19:37:42 +0000";
layers = (
{
components = (
{
name = L;
}
);
layerId = "850197A4-73EE-4DD1-A43D-17FCD4749099";
paths = (
{
closed = 1;
nodes = (
"653 890 LINE",
"653 1027 LINE",
"25 626 LINE",
"25 489 LINE"
);
}
);
width = 1076;
},
{
layerId = "8183A7D6-F04A-4582-B03C-55CCED69A0BD";
paths = (
{
closed = 1;
nodes = (
"1279 0 LINE",
"1279 174 LINE",
"458 174 LINE",
"458 836 LINE",
"793 1045 LINE",
"793 1206 LINE",
"458 997 LINE",
"458 1710 LINE",
"256 1710 LINE",
"256 871 LINE",
"37 735 LINE",
"37 574 LINE",
"256 710 LINE",
"256 0 LINE"
);
}
);
width = 1982;
}
);
unicode = 0141;
},
{
glyphname = M;
lastChange = "2018-07-25 19:37:42 +0000";
layers = (
{
anchors = (
{
name = bottom;
position = "{971, 0}";
},
{
name = top;
position = "{971, 1560}";
}
);
layerId = "850197A4-73EE-4DD1-A43D-17FCD4749099";
paths = (
{
closed = 1;
nodes = (
"365 0 LINE",
"365 1350 LINE",
"435 1190 LINE",
"909 220 LINE",
"1030 220 LINE",
"1213 591 OFFCURVE",
"1394 964 OFFCURVE",
"1579 1333 CURVE",
"1579 0 LINE",
"1744 0 LINE",
"1744 1560 LINE",
"1532 1560 LINE",
"1346 1179 OFFCURVE",
"1152 806 OFFCURVE",
"972 420 CURVE",
"791 802 OFFCURVE",
"607 1180 OFFCURVE",
"424 1560 CURVE",
"198 1560 LINE",
"198 0 LINE"
);
}
);
width = 1942;
},
{
anchors = (
{
name = bottom;
position = "{938, 0}";
},
{
name = top;
position = "{938, 1557}";
}
);
layerId = "8183A7D6-F04A-4582-B03C-55CCED69A0BD";
paths = (
{
closed = 1;
nodes = (
"428 0 LINE",
"428 1206 LINE",
"532 967 LINE",
"872 293 LINE",
"985 293 LINE",
"1328 955 LINE",
"1433 1189 LINE",
"1433 0 LINE",
"1683 0 LINE",
"1683 1560 LINE",
"1391 1560 LINE",
"1238 1250 OFFCURVE",
"1076 951 OFFCURVE",
"931 633 CURVE",
"782 947 OFFCURVE",
"624 1251 OFFCURVE",
"471 1560 CURVE",
"178 1560 LINE",
"178 0 LINE"
);
}
);
width = 1875;
}
);
unicode = 004D;
},
{
glyphname = N;
lastChange = "2018-07-25 19:37:42 +0000";
layers = (
{
anchors = (
{
name = bottom;
position = "{792, 0}";
},
{
name = top;
position = "{792, 1560}";
}
);
layerId = "850197A4-73EE-4DD1-A43D-17FCD4749099";
paths = (
{
closed = 1;
nodes = (
"370 0 LINE",
"370 1341 LINE",
"439 1217 LINE",
"1178 0 LINE",
"1385 0 LINE",
"1385 1560 LINE",
"1214 1560 LINE",
"1214 215 LINE",
"946 665 OFFCURVE",
"673 1111 OFFCURVE",
"403 1560 CURVE",
"198 1560 LINE",
"198 0 LINE"
);
}
);
width = 1583;
},
{
anchors = (
{
name = bottom;
position = "{802, 0}";
},
{
name = top;
position = "{802, 1557}";
}
);
layerId = "8183A7D6-F04A-4582-B03C-55CCED69A0BD";
paths = (
{
closed = 1;
nodes = (
"398 0 LINE",
"398 1217 LINE",
"644 808 OFFCURVE",
"897 406 OFFCURVE",
"1146 0 CURVE",
"1411 0 LINE",
"1411 1560 LINE",
"1191 1560 LINE",
"1191 340 LINE",
"947 753 OFFCURVE",
"689 1153 OFFCURVE",
"439 1560 CURVE",
"178 1560 LINE",
"178 0 LINE"
);
}
);
width = 1603;
}
);
unicode = 004E;
},
{
glyphname = O;
lastChange = "2018-07-25 19:37:42 +0000";
layers = (
{
anchors = (
{
name = bottom;
position = "{823, 0}";
},
{
name = center;
position = "{823, 780}";
},
{
name = ogonek;
position = "{1481, 10}";
},
{
name = top;
position = "{823, 1560}";
},
{
name = topleft;
position = "{20, 1560}";
},
{
name = topright;
position = "{1626, 1560}";
}
);
layerId = "850197A4-73EE-4DD1-A43D-17FCD4749099";
paths = (
{
closed = 1;
nodes = (
"1278 -24 OFFCURVE",
"1520 340 OFFCURVE",
"1520 782 CURVE SMOOTH",
"1520 1226 OFFCURVE",
"1278 1586 OFFCURVE",
"823 1586 CURVE SMOOTH",
"368 1586 OFFCURVE",
"126 1226 OFFCURVE",
"126 782 CURVE SMOOTH",
"126 340 OFFCURVE",
"368 -24 OFFCURVE",
"823 -24 CURVE SMOOTH"
);
},
{
closed = 1;
nodes = (
"536 126 OFFCURVE",
"310 353 OFFCURVE",
"310 782 CURVE SMOOTH",
"310 1211 OFFCURVE",
"536 1436 OFFCURVE",
"823 1436 CURVE SMOOTH",
"1110 1436 OFFCURVE",
"1336 1211 OFFCURVE",
"1336 782 CURVE SMOOTH",
"1336 353 OFFCURVE",
"1110 126 OFFCURVE",
"823 126 CURVE SMOOTH"
);
}
);
width = 1646;
},
{
anchors = (
{
name = bottom;
position = "{837, 0}";
},
{
name = center;
position = "{837, 779}";
},
{
name = ogonek;
position = "{1507, 10}";
},
{
name = top;
position = "{837, 1557}";
},
{
name = topleft;
position = "{20, 1557}";
},
{
name = topright;
position = "{1654, 1557}";
}
);
layerId = "8183A7D6-F04A-4582-B03C-55CCED69A0BD";
paths = (
{
closed = 1;
nodes = (
"1265 -24 OFFCURVE",
"1558 307 OFFCURVE",
"1558 780 CURVE SMOOTH",
"1558 1248 OFFCURVE",
"1267 1584 OFFCURVE",
"834 1584 CURVE SMOOTH",
"405 1584 OFFCURVE",
"116 1248 OFFCURVE",
"116 780 CURVE SMOOTH",
"116 307 OFFCURVE",
"407 -24 OFFCURVE",
"834 -24 CURVE SMOOTH"
);
},
{
closed = 1;
nodes = (
"606 186 OFFCURVE",
"375 373 OFFCURVE",
"375 778 CURVE SMOOTH",
"375 1188 OFFCURVE",
"606 1377 OFFCURVE",
"834 1377 CURVE SMOOTH",
"1062 1377 OFFCURVE",
"1299 1188 OFFCURVE",
"1299 778 CURVE",
"1300 373 OFFCURVE",
"1062 186 OFFCURVE",
"834 186 CURVE SMOOTH"
);
}
);
width = 1674;
}
);
unicode = 004F;
},
{
glyphname = Oslash;
lastChange = "2018-07-25 19:37:42 +0000";
layers = (
{
anchors = (
{
name = bottom;
position = "{813, 0}";
},
{
name = top;
position = "{813, 1560}";
}
);
components = (
{
name = O;
}
);
layerId = "850197A4-73EE-4DD1-A43D-17FCD4749099";
paths = (
{
closed = 1;
nodes = (
"1232 1571 LINE",
"1125 1604 LINE",
"418 -142 LINE",
"521 -175 LINE"
);
}
);
width = 1626;
},
{
anchors = (
{
name = bottom;
position = "{791, 0}";
},
{
name = top;
position = "{791, 1557}";
}
);
components = (
{
name = O;
}
);
layerId = "8183A7D6-F04A-4582-B03C-55CCED69A0BD";
paths = (
{
closed = 1;
nodes = (
"1295 1633 LINE",
"1148 1684 LINE",
"311 -239 LINE",
"453 -291 LINE"
);
}
);
width = 1582;
}
);
unicode = 00D8;
},
{
glyphname = OE;
lastChange = "2018-07-25 19:37:42 +0000";
layers = (
{
anchors = (
{
name = bottom;
position = "{999, 0}";
},
{
name = top;
position = "{999, 1560}";
}
);
components = (
{
name = E;
transform = "{1, 0, 0, 1, 807, 0}";
}
);
layerId = "850197A4-73EE-4DD1-A43D-17FCD4749099";
paths = (
{
closed = 1;
nodes = (
"883 -24 OFFCURVE",
"948 -16 OFFCURVE",
"1007 0 CURVE",
"1007 165 LINE",
"946 139 OFFCURVE",
"880 126 OFFCURVE",
"813 126 CURVE SMOOTH",
"546 126 OFFCURVE",
"300 330 OFFCURVE",
"300 729 CURVE SMOOTH",
"300 1128 OFFCURVE",
"546 1330 OFFCURVE",
"813 1330 CURVE SMOOTH",
"880 1330 OFFCURVE",
"946 1317 OFFCURVE",
"1007 1292 CURVE",
"1007 1456 LINE",
"948 1472 OFFCURVE",
"883 1480 OFFCURVE",
"813 1480 CURVE SMOOTH",
"358 1480 OFFCURVE",
"116 1122 OFFCURVE",
"116 728 CURVE SMOOTH",
"116 336 OFFCURVE",
"358 -24 OFFCURVE",
"813 -24 CURVE SMOOTH"
);
}
);
width = 1998;
},
{
anchors = (
{
name = bottom;
position = "{1769, 0}";
},
{
name = top;
position = "{1769, 1557}";
}
);
layerId = "8183A7D6-F04A-4582-B03C-55CCED69A0BD";
paths = (
{
closed = 1;
nodes = (
"1139 -40 OFFCURVE",
"1245 24 OFFCURVE",
"1331 110 CURVE",
"1331 -14 LINE",
"2237 -14 LINE",
"2237 160 LINE",
"1513 160 LINE",
"1513 776 LINE",
"2158 776 LINE",
"2158 949 LINE",
"1513 949 LINE",
"1513 1522 LINE",
"2203 1522 LINE",
"2203 1696 LINE",
"1331 1696 LINE",
"1331 1608 LINE",
"1244 1676 OFFCURVE",
"1136 1728 OFFCURVE",
"997 1728 CURVE SMOOTH",
"877 1728 OFFCURVE",
"769 1706 OFFCURVE",
"674 1661 CURVE SMOOTH",
"405 1536 OFFCURVE",
"210 1258 OFFCURVE",
"210 843 CURVE SMOOTH",
"210 707 OFFCURVE",
"229 586 OFFCURVE",
"268 477 CURVE SMOOTH",
"377 167 OFFCURVE",
"615 -40 OFFCURVE",
"990 -40 CURVE SMOOTH"
);
},
{
closed = 1;
nodes = (
"896 133 OFFCURVE",
"814 152 OFFCURVE",
"744 188 CURVE SMOOTH",
"544 291 OFFCURVE",
"426 518 OFFCURVE",
"426 838 CURVE SMOOTH",
"426 1044 OFFCURVE",
"483 1218 OFFCURVE",
"570 1338 CURVE SMOOTH",
"659 1461 OFFCURVE",
"795 1554 OFFCURVE",
"990 1554 CURVE SMOOTH",
"1141 1554 OFFCURVE",
"1247 1499 OFFCURVE",
"1331 1418 CURVE",
"1331 298 LINE",
"1251 205 OFFCURVE",
"1142 133 OFFCURVE",
"988 133 CURVE SMOOTH"
);
}
);
width = 3537;
}
);
unicode = 0152;
},
{
glyphname = P;
lastChange = "2018-07-25 19:37:42 +0000";
layers = (
{
anchors = (
{
name = bottom;
position = "{619, 0}";
},
{
name = top;
position = "{619, 1560}";
}
);
layerId = "850197A4-73EE-4DD1-A43D-17FCD4749099";
paths = (
{
closed = 1;
nodes = (
"372 0 LINE",
"372 691 LINE",
"621 691 LINE SMOOTH",
"991 691 OFFCURVE",
"1169 838 OFFCURVE",
"1169 1124 CURVE SMOOTH",
"1169 1420 OFFCURVE",
"1012 1560 OFFCURVE",
"597 1560 CURVE SMOOTH",
"198 1560 LINE",
"198 0 LINE"
);
},
{
closed = 1;
nodes = (
"372 1422 LINE",
"620 1422 LINE SMOOTH",
"899 1422 OFFCURVE",
"985 1326 OFFCURVE",
"985 1122 CURVE SMOOTH",
"985 936 OFFCURVE",
"881 840 OFFCURVE",
"640 840 CURVE SMOOTH",
"372 840 LINE"
);
}
);
width = 1238;
},
{
anchors = (
{
name = bottom;
position = "{631, 0}";
},
{
name = top;
position = "{631, 1557}";
}
);
layerId = "8183A7D6-F04A-4582-B03C-55CCED69A0BD";
paths = (
{
closed = 1;
nodes = (
"428 0 LINE",
"428 663 LINE",
"621 663 LINE SMOOTH",
"1017 663 OFFCURVE",
"1199 793 OFFCURVE",
"1199 1121 CURVE SMOOTH",
"1199 1434 OFFCURVE",
"1011 1560 OFFCURVE",
"598 1560 CURVE SMOOTH",
"178 1560 LINE",
"178 0 LINE"
);
},
{
closed = 1;
nodes = (
"428 1360 LINE",
"620 1360 LINE SMOOTH",
"839 1360 OFFCURVE",
"943 1296 OFFCURVE",
"943 1119 CURVE SMOOTH",
"943 933 OFFCURVE",
"846 866 OFFCURVE",
"638 866 CURVE SMOOTH",
"428 866 LINE"
);
}
);
width = 1262;
}
);
unicode = 0050;
},
{
glyphname = Thorn;
lastChange = "2018-07-25 19:37:42 +0000";
layers = (
{
anchors = (
{
name = bottom;
position = "{631, 0}";
},
{
name = top;
position = "{631, 1560}";
}
);
layerId = "850197A4-73EE-4DD1-A43D-17FCD4749099";
paths = (
{
closed = 1;
nodes = (
"385 0 LINE",
"385 443 LINE",
"651 443 LINE SMOOTH",
"973 443 OFFCURVE",
"1187 554 OFFCURVE",
"1187 876 CURVE SMOOTH",
"1187 1231 OFFCURVE",
"941 1312 OFFCURVE",
"600 1312 CURVE SMOOTH",
"385 1312 LINE",
"385 1456 LINE",
"213 1456 LINE",
"213 0 LINE"
);
},
{
closed = 1;
nodes = (
"385 1164 LINE",
"642 1164 LINE SMOOTH",
"872 1164 OFFCURVE",
"1003 1114 OFFCURVE",
"1003 874 CURVE SMOOTH",
"1003 674 OFFCURVE",
"899 592 OFFCURVE",
"689 592 CURVE SMOOTH",
"385 592 LINE"
);
}
);
width = 1261;
},
{
anchors = (
{
name = bottom;
position = "{684, 0}";
},
{
name = top;
position = "{684, 1557}";
}
);
layerId = "8183A7D6-F04A-4582-B03C-55CCED69A0BD";
paths = (
{
closed = 1;
nodes = (
"442 0 LINE",
"442 456 LINE",
"677 456 LINE SMOOTH",
"1012 456 OFFCURVE",
"1253 528 OFFCURVE",
"1253 855 CURVE SMOOTH",
"1253 1210 OFFCURVE",
"990 1270 OFFCURVE",
"632 1270 CURVE SMOOTH",
"442 1270 LINE",
"442 1456 LINE",
"192 1456 LINE",
"192 0 LINE"
);
},
{
closed = 1;
nodes = (
"442 1080 LINE",
"636 1080 LINE SMOOTH",
"878 1080 OFFCURVE",
"1018 1072 OFFCURVE",
"1018 852 CURVE SMOOTH",
"1018 678 OFFCURVE",
"896 650 OFFCURVE",
"675 650 CURVE SMOOTH",
"442 650 LINE"
);
}
);
width = 1367;
}
);
unicode = 00DE;
},
{
glyphname = Q;
lastChange = "2018-07-25 19:37:42 +0000";
layers = (
{
anchors = (
{
name = bottom;
position = "{823, 0}";
},
{
name = top;
position = "{823, 1560}";
}
);
layerId = "850197A4-73EE-4DD1-A43D-17FCD4749099";
paths = (
{
closed = 1;
nodes = (
"1359 -168 LINE",
"1218 92 LINE",
"1419 234 OFFCURVE",
"1524 491 OFFCURVE",
"1524 782 CURVE SMOOTH",
"1524 1226 OFFCURVE",
"1282 1586 OFFCURVE",
"827 1586 CURVE SMOOTH",
"372 1586 OFFCURVE",
"130 1226 OFFCURVE",
"130 782 CURVE SMOOTH",
"130 340 OFFCURVE",
"372 -24 OFFCURVE",
"827 -24 CURVE SMOOTH",
"923 -24 OFFCURVE",
"1008 -7 OFFCURVE",
"1085 22 CURVE",
"1231 -237 LINE"
);
},
{
closed = 1;
nodes = (
"540 126 OFFCURVE",
"314 353 OFFCURVE",
"314 782 CURVE SMOOTH",
"314 1211 OFFCURVE",
"540 1436 OFFCURVE",
"827 1436 CURVE SMOOTH",
"1114 1436 OFFCURVE",
"1340 1211 OFFCURVE",
"1340 782 CURVE SMOOTH",
"1340 529 OFFCURVE",
"1261 346 OFFCURVE",
"1138 239 CURVE",
"1009 477 LINE",
"871 402 LINE",
"1008 159 LINE",
"952 137 OFFCURVE",
"891 126 OFFCURVE",
"827 126 CURVE SMOOTH"
);
}
);
width = 1646;
},
{
anchors = (
{
name = bottom;
position = "{837, 0}";
},
{
name = top;
position = "{837, 1557}";
}
);
layerId = "8183A7D6-F04A-4582-B03C-55CCED69A0BD";
paths = (
{
closed = 1;
nodes = (
"1355 -168 LINE",
"1219 83 LINE",
"1430 217 OFFCURVE",
"1558 467 OFFCURVE",
"1558 780 CURVE SMOOTH",
"1558 1248 OFFCURVE",
"1267 1584 OFFCURVE",
"834 1584 CURVE SMOOTH",
"405 1584 OFFCURVE",
"116 1248 OFFCURVE",
"116 780 CURVE SMOOTH",
"116 307 OFFCURVE",
"407 -24 OFFCURVE",
"834 -24 CURVE SMOOTH",
"907 -24 OFFCURVE",
"976 -14 OFFCURVE",
"1040 4 CURVE",
"1187 -257 LINE"
);
},
{
closed = 1;
nodes = (
"606 186 OFFCURVE",
"375 373 OFFCURVE",
"375 778 CURVE SMOOTH",
"375 1188 OFFCURVE",
"606 1377 OFFCURVE",
"834 1377 CURVE SMOOTH",
"1063 1377 OFFCURVE",
"1299 1186 OFFCURVE",
"1299 775 CURVE SMOOTH",
"1299 541 OFFCURVE",
"1219 381 OFFCURVE",
"1108 287 CURVE",
"1005 477 LINE",
"827 382 LINE",
"931 197 LINE",
"899 189 OFFCURVE",
"866 186 OFFCURVE",
"834 186 CURVE SMOOTH"
);
}
);
width = 1674;
}
);
unicode = 0051;
},
{
glyphname = R;
lastChange = "2018-07-25 19:37:42 +0000";
layers = (
{
anchors = (
{
name = bottom;
position = "{673, 0}";
},
{
name = top;
position = "{673, 1560}";
}
);
layerId = "850197A4-73EE-4DD1-A43D-17FCD4749099";
paths = (
{
closed = 1;
nodes = (
"372 0 LINE",
"372 756 LINE",
"672 756 LINE",
"1050 0 LINE",
"1242 0 LINE",
"837 780 LINE",
"1083 833 OFFCURVE",
"1173 982 OFFCURVE",
"1173 1176 CURVE SMOOTH",
"1173 1508 OFFCURVE",
"925 1560 OFFCURVE",
"603 1560 CURVE SMOOTH",
"198 1560 LINE",
"198 0 LINE"
);
},
{
closed = 1;
nodes = (
"372 1422 LINE",
"692 1422 LINE SMOOTH",
"887 1422 OFFCURVE",
"1002 1373 OFFCURVE",
"1002 1162 CURVE SMOOTH",
"1002 963 OFFCURVE",
"870 903 OFFCURVE",
"681 903 CURVE SMOOTH",
"372 903 LINE"
);
}
);
width = 1345;
},
{
anchors = (
{
name = bottom;
position = "{683, 0}";
},
{
name = top;
position = "{683, 1557}";
}
);
layerId = "8183A7D6-F04A-4582-B03C-55CCED69A0BD";
paths = (
{
closed = 1;
nodes = (
"428 0 LINE",
"428 706 LINE",
"740 706 LINE",
"994 0 LINE",
"1261 0 LINE",
"962 750 LINE",
"1135 826 OFFCURVE",
"1211 987 OFFCURVE",
"1211 1157 CURVE SMOOTH",
"1211 1423 OFFCURVE",
"1035 1560 OFFCURVE",
"661 1560 CURVE SMOOTH",
"178 1560 LINE",
"178 0 LINE"
);
},
{
closed = 1;
nodes = (
"428 1360 LINE",
"678 1360 LINE SMOOTH",
"874 1360 OFFCURVE",
"959 1302 OFFCURVE",
"959 1142 CURVE SMOOTH",
"959 975 OFFCURVE",
"847 889 OFFCURVE",
"644 889 CURVE SMOOTH",
"428 889 LINE"
);
}
);
width = 1365;
}
);
unicode = 0052;
},
{
glyphname = S;
lastChange = "2018-07-25 19:37:42 +0000";
layers = (
{
anchors = (
{
name = bottom;
position = "{551, 0}";
},
{
name = top;
position = "{551, 1560}";
}
);
layerId = "850197A4-73EE-4DD1-A43D-17FCD4749099";
paths = (
{
closed = 1;
nodes = (
"852 -24 OFFCURVE",
"1019 158 OFFCURVE",
"1019 420 CURVE SMOOTH",
"1019 636 OFFCURVE",
"934 771 OFFCURVE",
"599 885 CURVE SMOOTH",
"346 972 OFFCURVE",
"280 1034 OFFCURVE",
"280 1180 CURVE SMOOTH",
"280 1184 OFFCURVE",
"281 1189 OFFCURVE",
"281 1194 CURVE SMOOTH",
"284 1348 OFFCURVE",
"403 1436 OFFCURVE",
"584 1436 CURVE SMOOTH",
"709 1436 OFFCURVE",
"829 1373 OFFCURVE",
"911 1310 CURVE",
"977 1444 LINE",
"871 1527 OFFCURVE",
"737 1586 OFFCURVE",
"564 1586 CURVE SMOOTH",
"308 1586 OFFCURVE",
"109 1442 OFFCURVE",
"107 1184 CURVE",
"107 1178 LINE SMOOTH",
"107 946 OFFCURVE",
"219 829 OFFCURVE",
"499 735 CURVE SMOOTH",
"799 634 OFFCURVE",
"850 553 OFFCURVE",
"850 423 CURVE SMOOTH",
"850 249 OFFCURVE",
"752 126 OFFCURVE",
"568 126 CURVE SMOOTH",
"423 126 OFFCURVE",
"255 208 OFFCURVE",
"162 290 CURVE",
"111 139 LINE",
"202 65 OFFCURVE",
"382 -24 OFFCURVE",
"572 -24 CURVE SMOOTH"
);
}
);
width = 1102;
},
{
anchors = (
{
name = bottom;
position = "{618, 0}";
},
{
name = top;
position = "{618, 1557}";
}
);
layerId = "8183A7D6-F04A-4582-B03C-55CCED69A0BD";
paths = (
{
closed = 1;
nodes = (
"996 -22 OFFCURVE",
"1153 179 OFFCURVE",
"1158 421 CURVE SMOOTH",
"1158 439 LINE SMOOTH",
"1158 694 OFFCURVE",
"1032 802 OFFCURVE",
"667 926 CURVE",
"400 1021 OFFCURVE",
"376 1077 OFFCURVE",
"376 1184 CURVE SMOOTH",
"376 1287 OFFCURVE",
"438 1371 OFFCURVE",
"645 1371 CURVE SMOOTH",
"762 1371 OFFCURVE",
"890 1334 OFFCURVE",
"1026 1263 CURVE",
"1102 1461 LINE",
"959 1547 OFFCURVE",
"786 1584 OFFCURVE",
"628 1584 CURVE SMOOTH",
"246 1584 OFFCURVE",
"98 1380 OFFCURVE",
"98 1148 CURVE SMOOTH",
"98 964 OFFCURVE",
"184 837 OFFCURVE",
"530 718 CURVE",
"880 606 OFFCURVE",
"908 521 OFFCURVE",
"908 413 CURVE SMOOTH",
"908 300 OFFCURVE",
"820 195 OFFCURVE",
"646 195 CURVE SMOOTH",
"517 195 OFFCURVE",
"360 235 OFFCURVE",
"170 339 CURVE",
"106 133 LINE",
"257 39 OFFCURVE",
"476 -22 OFFCURVE",
"656 -22 CURVE SMOOTH"
);
}
);
width = 1235;
}
);
unicode = 0053;
},
{
glyphname = T;
lastChange = "2018-07-25 19:37:42 +0000";
layers = (
{
anchors = (
{
name = bottom;
position = "{562, 0}";
},
{
name = center;
position = "{562, 780}";
},
{
name = top;
position = "{562, 1560}";
}
);
layerId = "850197A4-73EE-4DD1-A43D-17FCD4749099";
paths = (
{
closed = 1;
nodes = (
"652 0 LINE",
"652 1422 LINE",
"1098 1422 LINE",
"1098 1560 LINE",
"27 1560 LINE",
"27 1422 LINE",
"478 1422 LINE",
"478 0 LINE"
);
}
);
width = 1124;
},
{
anchors = (
{
name = bottom;
position = "{558, 0}";
},
{
name = center;
position = "{558, 779}";
},
{
name = top;
position = "{558, 1557}";
}
);
layerId = "8183A7D6-F04A-4582-B03C-55CCED69A0BD";
paths = (
{
closed = 1;
nodes = (
"682 0 LINE",
"682 1360 LINE",
"1092 1360 LINE",
"1092 1560 LINE",
"24 1560 LINE",
"24 1360 LINE",
"434 1360 LINE",
"434 0 LINE"
);
}
);
width = 1116;
}
);
unicode = 0054;
},
{
glyphname = U;
lastChange = "2018-07-25 19:37:42 +0000";
layers = (
{
anchors = (
{
name = bottom;
position = "{731, 0}";
},
{
name = ogonek;
position = "{1316, 10}";
},
{
name = top;
position = "{731, 1560}";
},
{
name = topright;
position = "{1442, 1560}";
}
);
layerId = "850197A4-73EE-4DD1-A43D-17FCD4749099";
paths = (
{
closed = 1;
nodes = (
"1091 -24 OFFCURVE",
"1286 191 OFFCURVE",
"1288 551 CURVE",
"1288 1560 LINE",
"1115 1560 LINE",
"1115 539 LINE SMOOTH",
"1115 279 OFFCURVE",
"984 126 OFFCURVE",
"742 126 CURVE SMOOTH",
"481 126 OFFCURVE",
"349 260 OFFCURVE",
"349 546 CURVE SMOOTH",
"349 1560 LINE",
"175 1560 LINE",
"175 541 LINE SMOOTH",
"175 157 OFFCURVE",
"374 -24 OFFCURVE",
"743 -24 CURVE SMOOTH"
);
}
);
width = 1462;
},
{
anchors = (
{
name = bottom;
position = "{749, 0}";
},
{
name = ogonek;
position = "{1348, 10}";
},
{
name = top;
position = "{749, 1557}";
},
{
name = topright;
position = "{1478, 1557}";
}
);
layerId = "8183A7D6-F04A-4582-B03C-55CCED69A0BD";
paths = (
{
closed = 1;
nodes = (
"1127 -24 OFFCURVE",
"1334 213 OFFCURVE",
"1334 558 CURVE SMOOTH",
"1334 1560 LINE",
"1085 1560 LINE",
"1085 529 LINE SMOOTH",
"1085 319 OFFCURVE",
"962 184 OFFCURVE",
"757 184 CURVE SMOOTH",
"541 184 OFFCURVE",
"414 322 OFFCURVE",
"414 536 CURVE SMOOTH",
"414 1560 LINE",
"164 1560 LINE",
"164 547 LINE SMOOTH",
"164 208 OFFCURVE",
"381 -24 OFFCURVE",
"758 -24 CURVE SMOOTH"
);
}
);
width = 1498;
}
);
unicode = 0055;
},
{
glyphname = V;
lastChange = "2018-07-25 19:37:42 +0000";
layers = (
{
anchors = (
{
name = bottom;
position = "{694, 0}";
},
{
name = top;
position = "{694, 1560}";
}
);
layerId = "850197A4-73EE-4DD1-A43D-17FCD4749099";
paths = (
{
closed = 1;
nodes = (
"795 0 LINE",
"1333 1560 LINE",
"1149 1560 LINE",
"1000 1102 OFFCURVE",
"850 644 OFFCURVE",
"701 185 CURVE",
"655 335 LINE",
"243 1560 LINE",
"55 1560 LINE",
"609 0 LINE"
);
}
);
width = 1388;
},
{
anchors = (
{
name = bottom;
position = "{701, 0}";
},
{
name = top;
position = "{701, 1557}";
}
);
layerId = "8183A7D6-F04A-4582-B03C-55CCED69A0BD";
paths = (
{
closed = 1;
nodes = (
"857 0 LINE",
"1352 1560 LINE",
"1072 1560 LINE",
"826 629 LINE",
"719 323 LINE",
"604 630 LINE",
"323 1560 LINE",
"51 1560 LINE",
"579 0 LINE"
);
}
);
width = 1402;
}
);
unicode = 0056;
},
{
glyphname = W;
lastChange = "2018-07-25 19:37:42 +0000";
layers = (
{
anchors = (
{
name = bottom;
position = "{1060, 0}";
},
{
name = top;
position = "{1060, 1560}";
}
);
layerId = "850197A4-73EE-4DD1-A43D-17FCD4749099";
paths = (
{
closed = 1;
nodes = (
"681 0 LINE",
"1062 1354 LINE",
"1439 0 LINE",
"1651 0 LINE",
"2054 1560 LINE",
"1877 1560 LINE",
"1767 1100 OFFCURVE",
"1659 637 OFFCURVE",
"1547 179 CURVE",
"1418 641 OFFCURVE",
"1285 1099 OFFCURVE",
"1154 1560 CURVE",
"981 1560 LINE",
"848 1099 OFFCURVE",
"715 638 OFFCURVE",
"581 178 CURVE",
"543 349 LINE",
"250 1560 LINE",
"67 1560 LINE",
"470 0 LINE"
);
}
);
width = 2120;
},
{
anchors = (
{
name = bottom;
position = "{1088, 0}";
},
{
name = top;
position = "{1088, 1557}";
}
);
layerId = "8183A7D6-F04A-4582-B03C-55CCED69A0BD";
paths = (
{
closed = 1;
nodes = (
"734 0 LINE",
"1089 1155 LINE",
"1442 0 LINE",
"1663 0 LINE",
"2114 1560 LINE",
"1865 1560 LINE",
"1622 614 LINE",
"1550 386 LINE",
"1469 610 LINE",
"1175 1560 LINE",
"1013 1560 LINE",
"718 614 LINE",
"632 385 LINE",
"565 614 LINE",
"316 1560 LINE",
"61 1560 LINE",
"513 0 LINE"
);
}
);
width = 2175;
}
);
unicode = 0057;
},
{
glyphname = X;
lastChange = "2018-07-25 19:37:42 +0000";
layers = (
{
anchors = (
{
name = bottom;
position = "{680, 0}";
},
{
name = top;
position = "{680, 1560}";
}
);
layerId = "850197A4-73EE-4DD1-A43D-17FCD4749099";
paths = (
{
closed = 1;
nodes = (
"265 0 LINE",
"681 697 LINE",
"1099 0 LINE",
"1300 0 LINE",
"792 816 LINE",
"1290 1560 LINE",
"1094 1560 LINE",
"694 928 LINE",
"306 1560 LINE",
"100 1560 LINE",
"585 815 LINE",
"61 0 LINE"
);
}
);
width = 1360;
},
{
anchors = (
{
name = bottom;
position = "{718, 0}";
},
{
name = top;
position = "{718, 1557}";
}
);
layerId = "8183A7D6-F04A-4582-B03C-55CCED69A0BD";
paths = (
{
closed = 1;
nodes = (
"330 0 LINE",
"718 603 LINE",
"1093 0 LINE",
"1364 0 LINE",
"865 770 LINE",
"1381 1557 LINE",
"1108 1557 LINE",
"742 971 LINE",
"383 1557 LINE",
"105 1557 LINE",
"595 803 LINE",
"56 0 LINE"
);
}
);
width = 1436;
}
);
unicode = 0058;
},
{
glyphname = Y;
lastChange = "2018-07-25 19:37:42 +0000";
layers = (
{
anchors = (
{
name = bottom;
position = "{635, 0}";
},
{
name = top;
position = "{635, 1560}";
},
{
name = topleft;
position = "{20, 1560}";
}
);
layerId = "850197A4-73EE-4DD1-A43D-17FCD4749099";
paths = (
{
closed = 1;
nodes = (
"721 0 LINE",
"721 655 LINE",
"1244 1560 LINE",
"1054 1560 LINE",
"634 797 LINE",
"218 1560 LINE",
"26 1560 LINE",
"547 652 LINE",
"547 0 LINE"
);
}
);
width = 1269;
},
{
anchors = (
{
name = bottom;
position = "{650, 0}";
},
{
name = top;
position = "{650, 1557}";
},
{
name = topleft;
position = "{20, 1557}";
}
);
layerId = "8183A7D6-F04A-4582-B03C-55CCED69A0BD";
paths = (
{
closed = 1;
nodes = (
"782 0 LINE",
"782 614 LINE",
"1276 1560 LINE",
"1018 1560 LINE",
"655 838 LINE",
"294 1560 LINE",
"23 1560 LINE",
"532 612 LINE",
"532 0 LINE"
);
}
);
width = 1299;
}
);
unicode = 0059;
},
{
glyphname = Z;
lastChange = "2018-07-25 19:37:42 +0000";
layers = (
{
anchors = (
{
name = bottom;
position = "{572, 0}";
},
{
name = top;
position = "{572, 1560}";
}
);
layerId = "850197A4-73EE-4DD1-A43D-17FCD4749099";
paths = (
{
closed = 1;
nodes = (
"1076 0 LINE",
"1076 138 LINE",
"320 138 LINE",
"1084 1472 LINE",
"1084 1560 LINE",
"124 1560 LINE",
"124 1422 LINE",
"852 1422 LINE",
"92 92 LINE",
"92 0 LINE"
);
}
);
width = 1143;
},
{
anchors = (
{
name = bottom;
position = "{585, 0}";
},
{
name = top;
position = "{585, 1557}";
}
);
layerId = "8183A7D6-F04A-4582-B03C-55CCED69A0BD";
paths = (
{
closed = 1;
nodes = (
"1109 0 LINE",
"1109 200 LINE",
"380 200 LINE",
"1117 1380 LINE",
"1117 1560 LINE",
"116 1560 LINE",
"116 1360 LINE",
"825 1360 LINE",
"85 198 LINE",
"85 0 LINE"
);
}
);
width = 1170;
}
);
unicode = 005A;
},
{
glyphname = a;
lastChange = "2018-07-25 19:37:42 +0000";
layers = (
{
anchors = (
{
name = bottom;
position = "{603, 0}";
},
{
name = ogonek;
position = "{1085, 10}";
},
{
name = top;
position = "{603, 1026}";
}
);
layerId = "850197A4-73EE-4DD1-A43D-17FCD4749099";
paths = (
{
closed = 1;
nodes = (
"694 -22 OFFCURVE",
"774 46 OFFCURVE",
"830 145 CURVE",
"994 241 LINE",
"994 976 LINE",
"916 1017 OFFCURVE",
"802.157 1052 OFFCURVE",
"675.157 1052 CURVE SMOOTH",
"279.026 1052 OFFCURVE",
"106 752.235 OFFCURVE",
"106 475.063 CURVE SMOOTH",
"106 215.836 OFFCURVE",
"256 -22 OFFCURVE",
"545 -22 CURVE SMOOTH"
);
},
{
closed = 1;
nodes = (
"364.945 109.893 OFFCURVE",
"280.313 278.577 OFFCURVE",
"280.313 465.131 CURVE SMOOTH",
"280.313 681.548 OFFCURVE",
"397.319 920.286 OFFCURVE",
"645.065 920.286 CURVE SMOOTH",
"719.93 920.286 OFFCURVE",
"782.851 907.425 OFFCURVE",
"824.157 894 CURVE",
"824.157 453 LINE SMOOTH",
"824.157 258.03 OFFCURVE",
"746.411 109.893 OFFCURVE",
"554.939 109.893 CURVE SMOOTH"
);
},
{
closed = 1;
nodes = (
"1208 146 LINE",
"1160 124 OFFCURVE",
"994 41 OFFCURVE {name = inserted;}",
"994 241 CURVE",
"829 145 LINE",
"869 -101 OFFCURVE",
"1162 -17 OFFCURVE {name = inserted;}",
"1230 33 CURVE"
);
}
);
width = 1206;
},
{
anchors = (
{
name = bottom;
position = "{625, 0}";
},
{
name = ogonek;
position = "{1125, 10}";
},
{
name = top;
position = "{625, 1026}";
}
);
components = (
{
name = lc_kick;
transform = "{1, 0, 0, 1, 704, 0}";
}
);
layerId = "8183A7D6-F04A-4582-B03C-55CCED69A0BD";
paths = (
{
closed = 1;
nodes = (
"675.816 -22.025 OFFCURVE",
"766.394 44.493 OFFCURVE",
"819.14 151 CURVE",
"1029.14 345 LINE",
"1029.14 976 LINE",
"987.14 993 OFFCURVE",
"803.14 1048 OFFCURVE",
"655.14 1048 CURVE SMOOTH",
"276.948 1048 OFFCURVE",
"102 766.196 OFFCURVE",
"102 491.825 CURVE SMOOTH",
"102 231.557 OFFCURVE",
"259.428 -22.025 OFFCURVE",
"550.132 -22.025 CURVE SMOOTH"
);
},
{
closed = 1;
nodes = (
"426.148 163.974 OFFCURVE",
"346.952 322.827 OFFCURVE",
"346.952 488.974 CURVE SMOOTH",
"346.952 671.105 OFFCURVE",
"442.123 862 OFFCURVE",
"640.14 862 CURVE SMOOTH",
"699.14 862 OFFCURVE",
"787.14 849 OFFCURVE",
"787.14 849 CURVE",
"787.14 429 LINE SMOOTH",
"787.14 285.301 OFFCURVE",
"723.432 163.974 OFFCURVE",
"578.716 163.974 CURVE SMOOTH"
);
}
);
width = 1250;
}
);
unicode = 0061;
userData = {
com.typemytype.robofont.guides = (
{
angle = 0;
isGlobal = 0;
magnetic = 5;
x = 572;
y = 110;
}
);
com.typemytype.robofont.layerData = {
b = {
anchors = (
);
components = (
{
baseGlyph = lc_kick;
transformation = (
1,
0,
0,
1,
754,
0
);
}
);
contours = (
{
points = (
{
segmentType = line;
smooth = 0;
x = 994;
y = 241;
},
{
name = inserted;
smooth = 0;
x = 994;
y = 163;
},
{
smooth = 0;
x = 1025;
y = 124;
},
{
segmentType = curve;
smooth = 1;
x = 1088;
y = 124;
},
{
name = inserted;
smooth = 0;
x = 1123;
y = 124;
},
{
smooth = 0;
x = 1152;
y = 128;
},
{
segmentType = curve;
smooth = 0;
x = 1176;
y = 136;
},
{
segmentType = line;
smooth = 0;
x = 1198;
y = 7;
},
{
name = inserted;
smooth = 0;
x = 1142;
y = -12;
},
{
smooth = 0;
x = 1087;
y = -21;
},
{
segmentType = curve;
smooth = 1;
x = 1032;
y = -21;
},
{
name = inserted;
smooth = 0;
x = 917;
y = -21;
},
{
smooth = 0;
x = 850;
y = 34;
},
{
segmentType = curve;
smooth = 0;
x = 830;
y = 145;
}
);
}
);
lib = {
};
name = a;
unicodes = (
);
width = 1206;
};
};
};
},
{
glyphname = ae;
lastChange = "2018-07-25 19:37:42 +0000";
layers = (
{
anchors = (
{
name = bottom;
position = "{858, 0}";
},
{
name = top;
position = "{858, 1026}";
}
);
layerId = "850197A4-73EE-4DD1-A43D-17FCD4749099";
paths = (
{
closed = 1;
nodes = (
"659 -22 OFFCURVE",
"782 87 OFFCURVE",
"852 213 CURVE",
"927 61 OFFCURVE",
"1066 -22 OFFCURVE",
"1246 -22 CURVE SMOOTH",
"1402 -22 OFFCURVE",
"1512 25 OFFCURVE",
"1632 122 CURVE",
"1564 232 LINE",
"1499 179 OFFCURVE",
"1408 114 OFFCURVE",
"1257 114 CURVE SMOOTH",
"1073 114 OFFCURVE",
"945 233 OFFCURVE",
"921 445 CURVE",
"1253 445 OFFCURVE",
"1591 510 OFFCURVE",
"1591 755 CURVE SMOOTH",
"1591 922 OFFCURVE",
"1454 1052 OFFCURVE",
"1247 1052 CURVE SMOOTH",
"1068 1052 OFFCURVE",
"945 972 OFFCURVE",
"873 849 CURVE",
"820 976 OFFCURVE",
"692 1052 OFFCURVE",
"541 1052 CURVE SMOOTH",
"394 1052 OFFCURVE",
"273 1021 OFFCURVE",
"130 908 CURVE",
"198 798 LINE",
"309 898 OFFCURVE",
"422 916 OFFCURVE",
"531 916 CURVE SMOOTH",
"667 916 OFFCURVE",
"773 831 OFFCURVE",
"773 632 CURVE SMOOTH",
"773 609 LINE",
"738 609 LINE SMOOTH",
"420 609 OFFCURVE",
"91 603 OFFCURVE",
"91 286 CURVE SMOOTH",
"91 96 OFFCURVE",
"232 -22 OFFCURVE",
"451 -22 CURVE SMOOTH"
);
},
{
closed = 1;
nodes = (
"347 114 OFFCURVE",
"260 167 OFFCURVE",
"260 294 CURVE SMOOTH",
"260 465 OFFCURVE",
"452 485 OFFCURVE",
"637 490 CURVE SMOOTH",
"775 493 LINE",
"775 276 OFFCURVE",
"694 114 OFFCURVE",
"474 114 CURVE SMOOTH"
);
},
{
closed = 1;
nodes = (
"933 794 OFFCURVE",
"1082 916 OFFCURVE",
"1248 916 CURVE SMOOTH",
"1363 916 OFFCURVE",
"1428 852 OFFCURVE",
"1428 758 CURVE SMOOTH",
"1428 597 OFFCURVE",
"1152 566 OFFCURVE",
"919 566 CURVE"
);
}
);
width = 1716;
},
{
anchors = (
{
name = bottom;
position = "{874, 0}";
},
{
name = top;
position = "{874, 1026}";
}
);
layerId = "8183A7D6-F04A-4582-B03C-55CCED69A0BD";
paths = (
{
closed = 1;
nodes = (
"622 -22 OFFCURVE",
"775 24 OFFCURVE",
"884 160 CURVE",
"979 42 OFFCURVE",
"1126 -22 OFFCURVE",
"1294 -22 CURVE SMOOTH",
"1420 -22 OFFCURVE",
"1573 3 OFFCURVE",
"1684 100 CURVE",
"1596 259 LINE",
"1510 196 OFFCURVE",
"1414 164 OFFCURVE",
"1325 164 CURVE SMOOTH",
"1184 164 OFFCURVE",
"1033 248 OFFCURVE",
"1015 429 CURVE",
"1441 465 OFFCURVE",
"1619 566 OFFCURVE",
"1627 750 CURVE",
"1627 763 LINE SMOOTH",
"1627 925 OFFCURVE",
"1498 1048 OFFCURVE",
"1279 1048 CURVE SMOOTH",
"1129 1048 OFFCURVE",
"999 983 OFFCURVE",
"909 857 CURVE",
"847 992 OFFCURVE",
"710 1051 OFFCURVE",
"561 1051 CURVE SMOOTH",
"426 1051 OFFCURVE",
"282 1004 OFFCURVE",
"172 924 CURVE",
"262 763 LINE",
"331 821 OFFCURVE",
"439 862 OFFCURVE",
"539 862 CURVE SMOOTH",
"662 862 OFFCURVE",
"770 799 OFFCURVE",
"770 626 CURVE SMOOTH",
"770 563 LINE",
"476 563 OFFCURVE",
"130 549 OFFCURVE",
"130 263 CURVE SMOOTH",
"130 75 OFFCURVE",
"269 -22 OFFCURVE",
"468 -22 CURVE SMOOTH"
);
},
{
closed = 1;
nodes = (
"402 142 OFFCURVE",
"337 180 OFFCURVE",
"337 260 CURVE SMOOTH",
"337 396 OFFCURVE",
"474 411 OFFCURVE",
"772 418 CURVE",
"772 238 OFFCURVE",
"608 142 OFFCURVE",
"482 142 CURVE SMOOTH"
);
},
{
closed = 1;
nodes = (
"1015 698 OFFCURVE",
"1115 867 OFFCURVE",
"1268 867 CURVE SMOOTH",
"1346 867 OFFCURVE",
"1393 823 OFFCURVE",
"1393 758 CURVE SMOOTH",
"1393 644 OFFCURVE",
"1299 605 OFFCURVE",
"1007 571 CURVE"
);
}
);
width = 1748;
}
);
unicode = 00E6;
},
{
glyphname = b;
lastChange = "2018-07-25 19:37:42 +0000";
layers = (
{
anchors = (
{
name = bottom;
position = "{598, 0}";
},
{
name = top;
position = "{598, 1560}";
}
);
layerId = "850197A4-73EE-4DD1-A43D-17FCD4749099";
paths = (
{
closed = 1;
nodes = (
"895 -22 OFFCURVE",
"1090 215 OFFCURVE",
"1090 545 CURVE SMOOTH",
"1090 865 OFFCURVE",
"910 1052 OFFCURVE",
"687 1052 CURVE SMOOTH",
"552 1052 OFFCURVE",
"443 1013 OFFCURVE",
"351 879 CURVE",
"351 1560 LINE",
"181 1560 LINE",
"181 71 LINE",
"181 71 OFFCURVE",
"358 -22 OFFCURVE",
"591 -22 CURVE SMOOTH"
);
},
{
closed = 1;
nodes = (
"434 114 OFFCURVE",
"351 151 OFFCURVE",
"351 151 CURVE",
"351 538 LINE SMOOTH",
"351 728 OFFCURVE",
"445 920 OFFCURVE",
"658 920 CURVE SMOOTH",
"800 920 OFFCURVE",
"916 793 OFFCURVE",
"916 550 CURVE SMOOTH",
"916 309 OFFCURVE",
"806 114 OFFCURVE",
"582 114 CURVE SMOOTH"
);
}
);
width = 1196;
},
{
anchors = (
{
name = bottom;
position = "{595, 0}";
},
{
name = top;
position = "{595, 1560}";
}
);
layerId = "8183A7D6-F04A-4582-B03C-55CCED69A0BD";
paths = (
{
closed = 1;
nodes = (
"847 -22 OFFCURVE",
"1089 171 OFFCURVE",
"1089 561 CURVE SMOOTH",
"1089 877 OFFCURVE",
"894 1048 OFFCURVE",
"673 1048 CURVE SMOOTH",
"547 1048 OFFCURVE",
"443 1023 OFFCURVE",
"384 905 CURVE",
"384 1560 LINE",
"142 1560 LINE",
"142 55 LINE",
"281 3 OFFCURVE",
"414 -22 OFFCURVE",
"547 -22 CURVE SMOOTH"
);
},
{
closed = 1;
nodes = (
"482 164 OFFCURVE",
"428 169 OFFCURVE",
"384 181 CURVE",
"384 521 LINE SMOOTH",
"384 750 OFFCURVE",
"486 862 OFFCURVE",
"624 862 CURVE SMOOTH",
"745 862 OFFCURVE",
"847 769 OFFCURVE",
"846 553 CURVE SMOOTH",
"845 273 OFFCURVE",
"698 164 OFFCURVE",
"538 164 CURVE SMOOTH"
);
}
);
width = 1189;
}
);
unicode = 0062;
userData = {
com.typemytype.robofont.layerData = {
b = {
anchors = (
);
components = (
);
contours = (
{
points = (
{
segmentType = line;
smooth = 0;
x = 351;
y = 161;
},
{
smooth = 0;
x = 414;
y = 135;
},
{
smooth = 0;
x = 487;
y = 110;
},
{
segmentType = curve;
smooth = 1;
x = 570;
y = 110;
},
{
smooth = 0;
x = 763;
y = 110;
},
{
smooth = 0;
x = 914;
y = 239;
},
{
segmentType = curve;
smooth = 1;
x = 914;
y = 541;
},
{
smooth = 0;
x = 914;
y = 785;
},
{
smooth = 0;
x = 817;
y = 920;
},
{
segmentType = curve;
smooth = 1;
x = 639;
y = 920;
},
{
smooth = 0;
x = 436;
y = 920;
},
{
smooth = 0;
x = 351;
y = 721;
},
{
segmentType = curve;
smooth = 1;
x = 351;
y = 500;
}
);
},
{
points = (
{
segmentType = line;
smooth = 0;
x = 351;
y = -574;
},
{
segmentType = line;
smooth = 0;
x = 181;
y = -574;
},
{
segmentType = line;
smooth = 1;
x = 181;
y = 634;
},
{
smooth = 0;
x = 181;
y = 833;
},
{
smooth = 0;
x = 138;
y = 1026;
},
{
segmentType = curve;
smooth = 0;
x = 138;
y = 1026;
},
{
segmentType = line;
smooth = 0;
x = 309;
y = 1026;
},
{
smooth = 0;
x = 309;
y = 1026;
},
{
smooth = 0;
x = 326;
y = 963;
},
{
segmentType = curve;
smooth = 0;
x = 338;
y = 870;
},
{
smooth = 0;
x = 398;
y = 969;
},
{
smooth = 0;
x = 499;
y = 1052;
},
{
segmentType = curve;
smooth = 1;
x = 674;
y = 1052;
},
{
smooth = 0;
x = 925;
y = 1052;
},
{
smooth = 0;
x = 1088;
y = 853;
},
{
segmentType = curve;
smooth = 1;
x = 1088;
y = 543;
},
{
smooth = 0;
x = 1088;
y = 186;
},
{
smooth = 0;
x = 886;
y = -22;
},
{
segmentType = curve;
smooth = 1;
x = 596;
y = -22;
},
{
smooth = 0;
x = 503;
y = -22;
},
{
smooth = 0;
x = 417;
y = -1;
},
{
segmentType = curve;
smooth = 0;
x = 351;
y = 22;
}
);
}
);
lib = {
};
name = b;
unicodes = (
);
width = 1196;
};
};
};
},
{
glyphname = c;
lastChange = "2018-07-25 19:37:42 +0000";
layers = (
{
anchors = (
{
name = bottom;
position = "{508, 0}";
},
{
name = top;
position = "{508, 1026}";
}
);
layerId = "850197A4-73EE-4DD1-A43D-17FCD4749099";
paths = (
{
closed = 1;
nodes = (
"720 -22 OFFCURVE",
"846 10 OFFCURVE",
"949 78 CURVE",
"899 200 LINE",
"815 144 OFFCURVE",
"731 110 OFFCURVE",
"614 110 CURVE SMOOTH",
"433 110 OFFCURVE",
"280 241 OFFCURVE",
"280 510 CURVE SMOOTH",
"280 778 OFFCURVE",
"421.5 925 OFFCURVE",
"627 920 CURVE SMOOTH",
"714.974 917.86 OFFCURVE",
"813 884 OFFCURVE",
"899 826 CURVE",
"948 952 LINE",
"842 1020 OFFCURVE",
"727 1052 OFFCURVE",
"618 1052 CURVE SMOOTH",
"323.5 1052 OFFCURVE",
"106 853 OFFCURVE",
"106 511 CURVE SMOOTH",
"106 180 OFFCURVE",
"328.5 -22 OFFCURVE",
"609 -22 CURVE SMOOTH"
);
}
);
width = 1016;
},
{
anchors = (
{
name = bottom;
position = "{513, 0}";
},
{
name = top;
position = "{513, 1026}";
}
);
layerId = "8183A7D6-F04A-4582-B03C-55CCED69A0BD";
paths = (
{
closed = 1;
nodes = (
"727.026 -22.329 OFFCURVE",
"842.506 11.573 OFFCURVE",
"955 81 CURVE",
"882 236 LINE",
"801.24 191.805 OFFCURVE",
"719.107 163.856 OFFCURVE",
"636.229 163.856 CURVE SMOOTH",
"483.854 163.856 OFFCURVE",
"348 258.329 OFFCURVE",
"348 520 CURVE SMOOTH",
"348 755.099 OFFCURVE",
"475.123 861.836 OFFCURVE",
"634.237 861.836 CURVE SMOOTH",
"706.395 861.836 OFFCURVE",
"778.775 839.885 OFFCURVE",
"860 798 CURVE",
"925 960 LINE",
"819.114 1019.65 OFFCURVE",
"714.736 1047.99 OFFCURVE",
"610.439 1047.99 CURVE SMOOTH",
"337.381 1047.99 OFFCURVE",
"100 853.782 OFFCURVE",
"100 519 CURVE SMOOTH",
"100 165.149 OFFCURVE",
"341.298 -22.329 OFFCURVE",
"611.938 -22.329 CURVE SMOOTH"
);
}
);
width = 1025;
}
);
unicode = 0063;
},
{
glyphname = d;
lastChange = "2018-07-26 15:23:23 +0000";
layers = (
{
anchors = (
{
name = bottom;
position = "{602, 0}";
},
{
name = center;
position = "{602, 513}";
},
{
name = top;
position = "{602, 1560}";
},
{
name = topright;
position = "{913, 1600}";
}
);
components = (
{
name = lc_kick;
transform = "{1, 0, 0, 1, 768, 0}";
}
);
layerId = "850197A4-73EE-4DD1-A43D-17FCD4749099";
paths = (
{
closed = 1;
nodes = (
"715 -22 OFFCURVE",
"794 44 OFFCURVE",
"863 161 CURVE",
"1008 228 LINE",
"1008 1560 LINE",
"838 1560 LINE",
"838 1014 LINE",
"773 1037 OFFCURVE",
"696 1052 OFFCURVE",
"631 1052 CURVE SMOOTH",
"335 1052 OFFCURVE",
"106 869 OFFCURVE",
"106 474 CURVE SMOOTH",
"106 159 OFFCURVE",
"318 -22 OFFCURVE",
"552 -22 CURVE SMOOTH"
);
},
{
closed = 1;
nodes = (
"397 110 OFFCURVE",
"280 243 OFFCURVE",
"280 473 CURVE SMOOTH",
"280 724 OFFCURVE",
"378 920 OFFCURVE",
"630 920 CURVE SMOOTH",
"696 920 OFFCURVE",
"763.657 912.908 OFFCURVE",
"839 886 CURVE",
"839 497 LINE SMOOTH",
"839 258 OFFCURVE",
"747 110 OFFCURVE",
"558 110 CURVE SMOOTH"
);
}
);
width = 1203;
},
{
anchors = (
{
name = bottom;
position = "{628, 0}";
},
{
name = center;
position = "{628, 513}";
},
{
name = top;
position = "{628, 1560}";
},
{
name = topright;
position = "{1036, 1625}";
}
);
components = (
{
name = lc_kick;
transform = "{1, 0, 0, 1, 710, 0}";
}
);
layerId = "8183A7D6-F04A-4582-B03C-55CCED69A0BD";
paths = (
{
closed = 1;
nodes = (
"674 -22 OFFCURVE",
"772 44 OFFCURVE",
"825 151 CURVE",
"1035 345 LINE SMOOTH",
"1035 1560 LINE",
"793 1560 LINE",
"794 1024 LINE",
"760 1034 OFFCURVE",
"705 1048 OFFCURVE",
"661 1048 CURVE SMOOTH",
"283 1048 OFFCURVE",
"100 766 OFFCURVE",
"100 492 CURVE SMOOTH",
"100 232 OFFCURVE",
"249 -22 OFFCURVE",
"548 -22 CURVE SMOOTH"
);
},
{
closed = 1;
nodes = (
"410 164 OFFCURVE",
"345 323 OFFCURVE",
"345 489 CURVE SMOOTH",
"345 671 OFFCURVE",
"448 862 OFFCURVE",
"646 862 CURVE SMOOTH",
"705 862 OFFCURVE",
"793 849 OFFCURVE",
"793 849 CURVE",
"793 429 LINE SMOOTH",
"793 285 OFFCURVE",
"721 164 OFFCURVE",
"577 164 CURVE SMOOTH"
);
}
);
width = 1256;
}
);
unicode = 0064;
userData = {
com.typemytype.robofont.guides = (
);
com.typemytype.robofont.layerData = {
b = {
anchors = (
);
components = (
);
contours = (
{
points = (
{
segmentType = line;
x = 1008;
y = 228;
},
{
name = inserted;
x = 1008;
y = 151;
},
{
x = 1037;
y = 113;
},
{
segmentType = curve;
smooth = 1;
x = 1098;
y = 113;
},
{
name = inserted;
x = 1124;
y = 113;
},
{
x = 1153;
y = 117;
},
{
segmentType = curve;
smooth = 0;
x = 1187;
y = 125;
},
{
segmentType = line;
smooth = 0;
x = 1205;
y = -1;
},
{
name = inserted;
x = 1152;
y = -20;
},
{
x = 1098;
y = -29;
},
{
segmentType = curve;
smooth = 1;
x = 1044;
y = -29;
},
{
name = inserted;
x = 909;
y = -29;
},
{
x = 838;
y = 50;
},
{
segmentType = curve;
smooth = 1;
x = 838;
y = 209;
}
);
}
);
lib = {
};
name = d;
unicodes = (
);
width = 1203;
};
};
};
},
{
glyphname = eth;
lastChange = "2018-07-25 19:37:42 +0000";
layers = (
{
layerId = "850197A4-73EE-4DD1-A43D-17FCD4749099";
paths = (
{
closed = 1;
nodes = (
"906 -22 OFFCURVE",
"1079 234 OFFCURVE",
"1079 602 CURVE SMOOTH",
"1079 906 OFFCURVE",
"972 1119 OFFCURVE",
"837 1260 CURVE",
"994 1361 LINE",
"933 1456 LINE",
"750 1338 LINE",
"653 1414 OFFCURVE",
"551 1462 OFFCURVE",
"467 1490 CURVE",
"392 1383 LINE",
"447 1366 OFFCURVE",
"537 1325 OFFCURVE",
"626 1258 CURVE",
"467 1156 LINE",
"529 1061 LINE",
"715 1181 LINE",
"819 1076 OFFCURVE",
"902 928 OFFCURVE",
"902 733 CURVE SMOOTH",
"902 723 LINE",
"833 838 OFFCURVE",
"729 915 OFFCURVE",
"556 915 CURVE SMOOTH",
"299 915 OFFCURVE",
"98 738 OFFCURVE",
"98 446 CURVE SMOOTH",
"98 186 OFFCURVE",
"288 -22 OFFCURVE",
"589 -22 CURVE SMOOTH"
);
},
{
closed = 1;
nodes = (
"408 118 OFFCURVE",
"274 239 OFFCURVE",
"274 441 CURVE SMOOTH",
"274 638 OFFCURVE",
"391 775 OFFCURVE",
"582 775 CURVE SMOOTH",
"745 775 OFFCURVE",
"845 664 OFFCURVE",
"887 536 CURVE",
"887 310 OFFCURVE",
"798 118 OFFCURVE",
"582 118 CURVE SMOOTH"
);
}
);
width = 1173;
},
{
layerId = "8183A7D6-F04A-4582-B03C-55CCED69A0BD";
paths = (
{
closed = 1;
nodes = (
"794 -40 OFFCURVE",
"869 -22 OFFCURVE",
"937 12 CURVE",
"1160 129 OFFCURVE",
"1263 410 OFFCURVE",
"1263 776 CURVE SMOOTH",
"1263 933 OFFCURVE",
"1242 1068 OFFCURVE",
"1207 1191 CURVE",
"1377 1191 LINE",
"1377 1352 LINE",
"1146 1352 LINE",
"1067 1531 OFFCURVE",
"953 1663 OFFCURVE",
"784 1736 CURVE",
"701 1637 LINE",
"817 1565 OFFCURVE",
"904 1479 OFFCURVE",
"968 1352 CURVE",
"749 1352 LINE",
"749 1191 LINE",
"1027 1191 LINE",
"1052 1087 OFFCURVE",
"1063 981 OFFCURVE",
"1064 847 CURVE",
"1064 836 LINE",
"988 970 OFFCURVE",
"860 1040 OFFCURVE",
"669 1040 CURVE SMOOTH",
"595 1040 OFFCURVE",
"530 1027 OFFCURVE",
"470 1001 CURVE SMOOTH",
"296 928 OFFCURVE",
"165 764 OFFCURVE",
"165 510 CURVE SMOOTH",
"165 433 OFFCURVE",
"177 359 OFFCURVE",
"205 293 CURVE",
"283 95 OFFCURVE",
"461 -40 OFFCURVE",
"708 -40 CURVE SMOOTH"
);
},
{
closed = 1;
nodes = (
"649 126 OFFCURVE",
"605 134 OFFCURVE",
"564 153 CURVE SMOOTH",
"450 207 OFFCURVE",
"372 329 OFFCURVE",
"372 504 CURVE SMOOTH",
"372 736 OFFCURVE",
"487 875 OFFCURVE",
"698 875 CURVE SMOOTH",
"879 875 OFFCURVE",
"1002 766 OFFCURVE",
"1049 616 CURVE",
"1049 588 LINE SMOOTH",
"1049 327 OFFCURVE",
"937 126 OFFCURVE",
"700 126 CURVE SMOOTH"
);
}
);
width = 2022;
}
);
unicode = 00F0;
},
{
glyphname = e;
lastChange = "2018-07-25 19:37:42 +0000";
layers = (
{
anchors = (
{
name = bottom;
position = "{535, 0}";
},
{
name = ogonek;
position = "{963, 10}";
},
{
name = top;
position = "{535, 1026}";
}
);
layerId = "850197A4-73EE-4DD1-A43D-17FCD4749099";
paths = (
{
closed = 1;
nodes = (
"756 -22 OFFCURVE",
"879 17 OFFCURVE",
"998 100 CURVE",
"940 223 LINE",
"877 186 OFFCURVE",
"766 110 OFFCURVE",
"615 110 CURVE SMOOTH",
"495 110 OFFCURVE",
"335 166 OFFCURVE",
"290 398 CURVE",
"613 398 OFFCURVE",
"951 510 OFFCURVE",
"951 755 CURVE SMOOTH",
"951 922 OFFCURVE",
"819 1052 OFFCURVE",
"612 1052 CURVE SMOOTH",
"282 1052 OFFCURVE",
"106 803 OFFCURVE",
"106 505 CURVE SMOOTH",
"106 168 OFFCURVE",
"341 -22 OFFCURVE",
"600 -22 CURVE SMOOTH"
);
},
{
closed = 1;
nodes = (
"280 761 OFFCURVE",
"418 920 OFFCURVE",
"600 920 CURVE SMOOTH",
"715 920 OFFCURVE",
"788 852 OFFCURVE",
"788 758 CURVE SMOOTH",
"788 597 OFFCURVE",
"485 519 OFFCURVE",
"279 519 CURVE"
);
}
);
width = 1070;
},
{
anchors = (
{
name = bottom;
position = "{544, 0}";
},
{
name = ogonek;
position = "{979, 10}";
},
{
name = top;
position = "{544, 1026}";
}
);
layerId = "8183A7D6-F04A-4582-B03C-55CCED69A0BD";
paths = (
{
closed = 1;
nodes = (
"739 -22 OFFCURVE",
"908 16 OFFCURVE",
"1019 113 CURVE",
"939 266 LINE",
"833 191 OFFCURVE",
"727.94 163.539 OFFCURVE",
"632.805 163.539 CURVE SMOOTH",
"506.651 163.539 OFFCURVE",
"403.97 225.502 OFFCURVE",
"365 371 CURVE",
"818 415 OFFCURVE",
"952 566 OFFCURVE",
"952 750 CURVE SMOOTH",
"952 897 OFFCURVE",
"829 1048 OFFCURVE",
"604 1048 CURVE SMOOTH",
"304 1048 OFFCURVE",
"100 821 OFFCURVE",
"100 519 CURVE SMOOTH",
"100 178 OFFCURVE",
"320 -22 OFFCURVE",
"613 -22 CURVE SMOOTH"
);
},
{
closed = 1;
nodes = (
"348 723 OFFCURVE",
"448 867 OFFCURVE",
"601 867 CURVE SMOOTH",
"683.432 867 OFFCURVE",
"736 818.31 OFFCURVE",
"736 742 CURVE SMOOTH",
"736 637 OFFCURVE",
"635 565 OFFCURVE",
"348 523 CURVE"
);
}
);
width = 1088;
}
);
unicode = 0065;
},
{
glyphname = f;
lastChange = "2018-07-25 19:37:42 +0000";
layers = (
{
anchors = (
{
name = bottom;
position = "{375, 0}";
},
{
name = top;
position = "{375, 1560}";
}
);
layerId = "850197A4-73EE-4DD1-A43D-17FCD4749099";
paths = (
{
closed = 1;
nodes = (
"407 0 LINE",
"407 920 LINE",
"666 920 LINE",
"666 1026 LINE",
"407 1026 LINE",
"407 1159 LINE SMOOTH",
"407 1336 OFFCURVE",
"492 1424 OFFCURVE",
"731 1424 CURVE",
"714 1560 LINE",
"334 1560 OFFCURVE",
"237 1380 OFFCURVE",
"237 1147 CURVE SMOOTH",
"237 1026 LINE",
"35 1026 LINE",
"35 920 LINE",
"237 920 LINE",
"237 0 LINE"
);
}
);
width = 750;
},
{
anchors = (
{
name = bottom;
position = "{424, 0}";
},
{
name = top;
position = "{424, 1560}";
}
);
layerId = "8183A7D6-F04A-4582-B03C-55CCED69A0BD";
paths = (
{
closed = 1;
nodes = (
"470 0 LINE",
"470 862 LINE",
"772 862 LINE",
"772 1026 LINE",
"470 1026 LINE",
"470 1141 LINE SMOOTH",
"470 1303 OFFCURVE",
"496 1372 OFFCURVE",
"705 1372 CURVE SMOOTH",
"792 1372 LINE",
"792 1560 LINE",
"687 1560 LINE SMOOTH",
"374 1560 OFFCURVE",
"228 1466 OFFCURVE",
"228 1176 CURVE SMOOTH",
"228 1026 LINE",
"32 1026 LINE",
"32 862 LINE",
"228 862 LINE",
"228 0 LINE"
);
}
);
width = 848;
}
);
unicode = 0066;
},
{
glyphname = g;
lastChange = "2018-07-25 19:37:42 +0000";
layers = (
{
anchors = (
{
name = bottom;
position = "{581, -656}";
},
{
name = top;
position = "{581, 1026}";
}
);
layerId = "850197A4-73EE-4DD1-A43D-17FCD4749099";
paths = (
{
closed = 1;
nodes = (
"845.048 -566 OFFCURVE",
"1006.048 -309 OFFCURVE",
"1006.048 9 CURVE SMOOTH",
"1006.048 971 LINE",
"926.048 1023 OFFCURVE",
"782.048 1052 OFFCURVE",
"653.048 1052 CURVE SMOOTH",
"367.277 1052 OFFCURVE",
"106 846.2 OFFCURVE",
"106 469.838 CURVE SMOOTH",
"106 186.521 OFFCURVE",
"285.349 -22 OFFCURVE",
"528.048 -22 CURVE SMOOTH",
"664.048 -22 OFFCURVE",
"770.048 21 OFFCURVE",
"836.048 136 CURVE",
"836.048 -12 LINE SMOOTH",
"836.048 -272 OFFCURVE",
"721.048 -424 OFFCURVE",
"489.048 -424 CURVE SMOOTH",
"410.048 -424 OFFCURVE",
"319.048 -407 OFFCURVE",
"214.048 -370 CURVE",
"196.048 -513 LINE",
"309.048 -549 OFFCURVE",
"409.048 -566 OFFCURVE",
"497.048 -566 CURVE SMOOTH"
);
},
{
closed = 1;
nodes = (
"365.836 109.893 OFFCURVE",
"281.204 278.577 OFFCURVE",
"281.204 465.131 CURVE SMOOTH",
"281.204 681.548 OFFCURVE",
"398.21 920.285 OFFCURVE",
"645.955 920.285 CURVE SMOOTH",
"720.821 920.285 OFFCURVE",
"794.741 907.425 OFFCURVE",
"836.048 894 CURVE",
"836.048 453 LINE SMOOTH",
"836.048 258.029 OFFCURVE",
"747.302 109.893 OFFCURVE",
"555.83 109.893 CURVE SMOOTH"
);
}
);
width = 1161.048;
},
{
anchors = (
{
name = bottom;
position = "{600, -656}";
},
{
name = top;
position = "{600, 1026}";
}
);
layerId = "8183A7D6-F04A-4582-B03C-55CCED69A0BD";
paths = (
{
closed = 1;
nodes = (
"855.443 -575 OFFCURVE",
"1041.44 -385 OFFCURVE",
"1041.44 -16 CURVE SMOOTH",
"1041.44 955 LINE",
"945.443 1011 OFFCURVE",
"778.443 1048 OFFCURVE",
"651.443 1048 CURVE SMOOTH",
"326.711 1048 OFFCURVE",
"100 831.026 OFFCURVE",
"100 485.628 CURVE SMOOTH",
"100 186.652 OFFCURVE",
"297.036 -0.479 OFFCURVE",
"539.312 -0.479 CURVE SMOOTH",
"650.733 -0.479 OFFCURVE",
"727.539 30.661 OFFCURVE",
"799.443 129 CURVE",
"799.443 -62 LINE SMOOTH",
"799.443 -303 OFFCURVE",
"662.443 -379 OFFCURVE",
"507.443 -379 CURVE SMOOTH",
"399.443 -379 OFFCURVE",
"282.443 -342 OFFCURVE",
"195.443 -298 CURVE",
"168.443 -501 LINE",
"308.443 -551 OFFCURVE",
"435.443 -575 OFFCURVE",
"546.443 -575 CURVE SMOOTH"
);
},
{
closed = 1;
nodes = (
"468.245 186 OFFCURVE",
"344.435 277.633 OFFCURVE",
"344.435 481.46 CURVE SMOOTH",
"344.435 734.164 OFFCURVE",
"482.164 862 OFFCURVE",
"640.443 862 CURVE SMOOTH",
"693.443 862 OFFCURVE",
"763.443 853 OFFCURVE",
"799.443 839 CURVE",
"799.443 514 LINE SMOOTH",
"799.443 321 OFFCURVE",
"728.443 186 OFFCURVE",
"580.443 186 CURVE SMOOTH"
);
}
);
width = 1199;
}
);
unicode = 0067;
userData = {
com.typemytype.robofont.layerData = {
b = {
anchors = (
);
components = (
);
contours = (
);
lib = {
};
name = g;
unicodes = (
);
width = 1161.048;
};
};
};
},
{
glyphname = gcommaaccent;
lastChange = "2018-07-26 15:23:35 +0000";
layers = (
{
background = {
paths = (
{
closed = 1;
nodes = (
"811 -494 OFFCURVE",
"1009 -306 OFFCURVE",
"1009 -23 CURVE SMOOTH",
"1009 962 LINE",
"929 1014 OFFCURVE",
"789 1048 OFFCURVE",
"660 1048 CURVE SMOOTH",
"328 1048 OFFCURVE",
"100 804 OFFCURVE",
"100 438 CURVE SMOOTH",
"100 162 OFFCURVE",
"266 -22 OFFCURVE",
"506 -22 CURVE SMOOTH",
"642 -22 OFFCURVE",
"773 39 OFFCURVE",
"845 133 CURVE",
"845 -44 LINE SMOOTH",
"845 -232 OFFCURVE",
"712 -357 OFFCURVE",
"511 -357 CURVE SMOOTH",
"426 -357 OFFCURVE",
"308 -326 OFFCURVE",
"218 -280 CURVE",
"199 -433 LINE",
"299 -470 OFFCURVE",
"427 -494 OFFCURVE",
"524 -494 CURVE SMOOTH"
);
},
{
closed = 1;
nodes = (
"374 116 OFFCURVE",
"270 249 OFFCURVE",
"270 448 CURVE SMOOTH",
"270 723 OFFCURVE",
"425 907 OFFCURVE",
"657 907 CURVE SMOOTH",
"730 907 OFFCURVE",
"805 893 OFFCURVE",
"845 872 CURVE",
"845 453 LINE SMOOTH",
"845 261 OFFCURVE",
"719 116 OFFCURVE",
"530 116 CURVE SMOOTH"
);
},
{
closed = 1;
nodes = (
"606 1162 LINE",
"709 1625 LINE",
"583 1625 LINE",
"426 1162 LINE"
);
}
);
};
components = (
{
name = g;
},
{
name = commaaccentcomb;
transform = "{-1, 0, 0, -1, 586, 1026}";
}
);
layerId = "850197A4-73EE-4DD1-A43D-17FCD4749099";
width = 1161;
},
{
components = (
{
name = g;
},
{
name = commaaccentcomb;
transform = "{-1, 0, 0, -1, 1624, 1026}";
}
);
layerId = "8183A7D6-F04A-4582-B03C-55CCED69A0BD";
width = 1199;
}
);
unicode = 0123;
},
{
glyphname = h;
lastChange = "2018-07-25 19:37:42 +0000";
layers = (
{
anchors = (
{
name = bottom;
position = "{620, 0}";
},
{
name = center;
position = "{620, 780}";
},
{
name = top;
position = "{620, 1560}";
}
);
components = (
{
name = lc_kick;
transform = "{1, 0, 0, 1, 803, 0}";
}
);
layerId = "850197A4-73EE-4DD1-A43D-17FCD4749099";
paths = (
{
closed = 1;
nodes = (
"350 0 LINE",
"350 532 LINE SMOOTH",
"350 753 OFFCURVE",
"490 912 OFFCURVE",
"657 920 CURVE SMOOTH",
"802 927 OFFCURVE",
"873 853 OFFCURVE",
"873 607 CURVE SMOOTH",
"873 216 LINE",
"1043 235 LINE",
"1043 625 LINE SMOOTH",
"1043 946 OFFCURVE",
"895 1052 OFFCURVE",
"709 1052 CURVE SMOOTH",
"546 1052 OFFCURVE",
"432 986 OFFCURVE",
"350 876 CURVE",
"350 1560 LINE",
"180 1560 LINE",
"180 0 LINE"
);
}
);
width = 1239;
},
{
anchors = (
{
name = bottom;
position = "{637, 0}";
},
{
name = center;
position = "{637, 780}";
},
{
name = top;
position = "{637, 1560}";
}
);
components = (
{
name = lc_kick;
transform = "{1, 0, 0, 1, 728, 0}";
}
);
layerId = "8183A7D6-F04A-4582-B03C-55CCED69A0BD";
paths = (
{
closed = 1;
nodes = (
"382 0 LINE",
"382 503 LINE SMOOTH",
"382 717 OFFCURVE",
"473 858 OFFCURVE",
"635 858 CURVE SMOOTH",
"763 858 OFFCURVE",
"811 759 OFFCURVE",
"811 606 CURVE SMOOTH",
"811 298 LINE",
"1053 358 LINE",
"1053 658 LINE SMOOTH",
"1053 925 OFFCURVE",
"923 1048 OFFCURVE",
"696 1048 CURVE SMOOTH",
"605 1048 OFFCURVE",
"468 1027 OFFCURVE",
"382 925 CURVE",
"382 1560 LINE",
"140 1560 LINE",
"140 0 LINE"
);
}
);
width = 1274;
}
);
unicode = 0068;
userData = {
com.typemytype.robofont.layerData = {
b = {
anchors = (
);
components = (
);
contours = (
);
lib = {
};
name = h;
unicodes = (
);
width = 1239;
};
};
};
},
{
glyphname = hbar;
lastChange = "2018-07-25 19:37:42 +0000";
layers = (
{
components = (
{
name = h;
}
);
layerId = "850197A4-73EE-4DD1-A43D-17FCD4749099";
paths = (
{
closed = 1;
nodes = (
"606 1207 LINE",
"606 1341 LINE",
"55 1341 LINE",
"55 1207 LINE"
);
}
);
width = 1233;
},
{
components = (
{
name = h;
}
);
layerId = "8183A7D6-F04A-4582-B03C-55CCED69A0BD";
paths = (
{
closed = 1;
nodes = (
"769 1154 LINE",
"769 1311 LINE",
"34 1311 LINE",
"34 1154 LINE"
);
}
);
width = 1238;
}
);
unicode = 0127;
userData = {
com.typemytype.robofont.layerData = {
b = {
anchors = (
);
components = (
);
contours = (
);
lib = {
};
name = hbar;
unicodes = (
);
width = 1233;
};
};
};
},
{
glyphname = i;
lastChange = "2018-07-25 19:37:42 +0000";
layers = (
{
anchors = (
{
name = bottom;
position = "{317, 0}";
}
);
components = (
{
name = lc_kick;
transform = "{1, 0, 0, 1, 137, 0}";
}
);
layerId = "850197A4-73EE-4DD1-A43D-17FCD4749099";
paths = (
{
closed = 1;
nodes = (
"377 235 LINE",
"377 1026 LINE",
"207 1026 LINE",
"207 216 LINE"
);
},
{
closed = 1;
nodes = (
"301 1236 LINE SMOOTH",
"360 1236 OFFCURVE",
"418 1273 OFFCURVE",
"418 1346 CURVE SMOOTH",
"418 1420 OFFCURVE",
"359 1458 OFFCURVE",
"301 1458 CURVE SMOOTH",
"300 1458 LINE SMOOTH",
"240 1458 OFFCURVE",
"180 1421 OFFCURVE",
"180 1347 CURVE SMOOTH",
"180 1274 OFFCURVE",
"240 1236 OFFCURVE",
"300 1236 CURVE SMOOTH"
);
}
);
width = 633;
},
{
anchors = (
{
name = bottom;
position = "{326, 0}";
}
);
components = (
{
name = lc_kick;
transform = "{1, 0, 0, 1, 68, 0}";
}
);
layerId = "8183A7D6-F04A-4582-B03C-55CCED69A0BD";
paths = (
{
closed = 1;
nodes = (
"393 358 LINE",
"393 1026 LINE",
"151 1026 LINE",
"151 323 LINE"
);
},
{
closed = 1;
nodes = (
"376 1188 OFFCURVE",
"440 1242 OFFCURVE",
"440 1333 CURVE SMOOTH",
"440 1424 OFFCURVE",
"376 1480 OFFCURVE",
"279 1480 CURVE SMOOTH",
"179 1480 OFFCURVE",
"116 1426 OFFCURVE",
"116 1334 CURVE SMOOTH",
"116 1242 OFFCURVE",
"179 1188 OFFCURVE",
"277 1188 CURVE SMOOTH"
);
}
);
width = 652;
}
);
unicode = 0069;
userData = {
com.typemytype.robofont.layerData = {
b = {
anchors = (
);
components = (
);
contours = (
);
lib = {
};
name = i;
unicodes = (
);
width = 633;
};
};
};
},
{
glyphname = dotlessi;
lastChange = "2018-07-25 19:37:42 +0000";
layers = (
{
anchors = (
{
name = bottom;
position = "{317, 0}";
},
{
name = ogonek;
position = "{570, 10}";
},
{
name = top;
position = "{317, 1026}";
}
);
layerId = "850197A4-73EE-4DD1-A43D-17FCD4749099";
paths = (
{
closed = 1;
nodes = (
"520 -18 OFFCURVE",
"589 -3 OFFCURVE",
"659 26 CURVE",
"636 145 LINE",
"583 126 OFFCURVE",
"530 111 OFFCURVE",
"484 111 CURVE SMOOTH",
"411 111 OFFCURVE",
"357 149 OFFCURVE",
"357 267 CURVE SMOOTH",
"357 1026 LINE",
"193 1026 LINE",
"193 262 LINE SMOOTH",
"193 66 OFFCURVE",
"308 -18 OFFCURVE",
"456 -18 CURVE SMOOTH"
);
}
);
width = 633;
},
{
anchors = (
{
name = bottom;
position = "{366, 0}";
},
{
name = ogonek;
position = "{658, 10}";
},
{
name = top;
position = "{366, 1026}";
}
);
layerId = "8183A7D6-F04A-4582-B03C-55CCED69A0BD";
paths = (
{
closed = 1;
nodes = (
"589 -15 OFFCURVE",
"669 2 OFFCURVE",
"747 33 CURVE",
"716 203 LINE",
"658 187 OFFCURVE",
"608 177 OFFCURVE",
"567 177 CURVE SMOOTH",
"485 177 OFFCURVE",
"439 217 OFFCURVE",
"439 334 CURVE SMOOTH",
"439 1026 LINE",
"197 1026 LINE",
"197 337 LINE SMOOTH",
"197 82 OFFCURVE",
"340 -15 OFFCURVE",
"515 -15 CURVE SMOOTH"
);
}
);
width = 731;
}
);
unicode = 0131;
},
{
glyphname = j;
lastChange = "2018-07-25 19:37:42 +0000";
layers = (
{
layerId = "850197A4-73EE-4DD1-A43D-17FCD4749099";
paths = (
{
closed = 1;
nodes = (
"354 -464 OFFCURVE",
"431 -390 OFFCURVE",
"431 -226 CURVE SMOOTH",
"431 1026 LINE",
"261 1026 LINE",
"261 -207 LINE SMOOTH",
"261 -288 OFFCURVE",
"229 -322 OFFCURVE",
"154 -322 CURVE SMOOTH",
"128 -322 OFFCURVE",
"97 -318 OFFCURVE",
"60 -310 CURVE",
"41 -436 LINE",
"107 -455 OFFCURVE",
"165 -464 OFFCURVE",
"215 -464 CURVE SMOOTH"
);
},
{
closed = 1;
nodes = (
"351 1236 LINE SMOOTH",
"410 1236 OFFCURVE",
"468 1273 OFFCURVE",
"468 1346 CURVE SMOOTH",
"468 1420 OFFCURVE",
"409 1458 OFFCURVE",
"351 1458 CURVE SMOOTH",
"350 1458 LINE SMOOTH",
"290 1458 OFFCURVE",
"230 1421 OFFCURVE",
"230 1347 CURVE SMOOTH",
"230 1274 OFFCURVE",
"290 1236 OFFCURVE",
"350 1236 CURVE SMOOTH"
);
}
);
width = 595;
},
{
layerId = "8183A7D6-F04A-4582-B03C-55CCED69A0BD";
paths = (
{
closed = 1;
nodes = (
"428 -499 OFFCURVE",
"492 -325 OFFCURVE",
"492 -93 CURVE SMOOTH",
"492 1026 LINE",
"250 1026 LINE",
"250 -90 LINE SMOOTH",
"250 -280 OFFCURVE",
"198 -323 OFFCURVE",
"100 -323 CURVE SMOOTH",
"32 -323 OFFCURVE",
"-33 -305 OFFCURVE",
"-33 -305 CURVE",
"-54 -475 LINE",
"-54 -475 OFFCURVE",
"19 -499 OFFCURVE",
"122 -499 CURVE SMOOTH"
);
},
{
closed = 1;
nodes = (
"481 1188 OFFCURVE",
"545 1242 OFFCURVE",
"545 1333 CURVE SMOOTH",
"545 1424 OFFCURVE",
"481 1480 OFFCURVE",
"384 1480 CURVE SMOOTH",
"284 1480 OFFCURVE",
"221 1426 OFFCURVE",
"221 1334 CURVE SMOOTH",
"221 1242 OFFCURVE",
"284 1188 OFFCURVE",
"382 1188 CURVE SMOOTH"
);
}
);
width = 665;
}
);
unicode = 006A;
userData = {
com.typemytype.robofont.layerData = {
b = {
anchors = (
);
components = (
);
contours = (
{
points = (
{
segmentType = curve;
smooth = 1;
x = 215;
y = -464;
},
{
smooth = 0;
x = 354;
y = -464;
},
{
smooth = 0;
x = 431;
y = -390;
},
{
segmentType = curve;
smooth = 1;
x = 431;
y = -226;
},
{
segmentType = line;
smooth = 0;
x = 431;
y = 1026;
},
{
segmentType = line;
smooth = 0;
x = 261;
y = 1026;
},
{
segmentType = line;
smooth = 1;
x = 261;
y = -207;
},
{
smooth = 0;
x = 261;
y = -288;
},
{
smooth = 0;
x = 229;
y = -322;
},
{
segmentType = curve;
smooth = 1;
x = 154;
y = -322;
},
{
smooth = 0;
x = 128;
y = -322;
},
{
smooth = 0;
x = 97;
y = -318;
},
{
segmentType = curve;
smooth = 0;
x = 60;
y = -310;
},
{
segmentType = line;
smooth = 0;
x = 41;
y = -436;
},
{
smooth = 0;
x = 107;
y = -455;
},
{
smooth = 0;
x = 165;
y = -464;
}
);
}
);
lib = {
};
name = j;
unicodes = (
);
width = 595;
};
};
};
},
{
glyphname = dotlessj;
lastChange = "2018-07-25 19:37:42 +0000";
layers = (
{
anchors = (
{
name = bottom;
position = "{279, -656}";
},
{
name = top;
position = "{279, 1026}";
}
);
layerId = "850197A4-73EE-4DD1-A43D-17FCD4749099";
paths = (
{
closed = 1;
nodes = (
"302 -464 OFFCURVE",
"381 -360 OFFCURVE",
"381 -84 CURVE SMOOTH",
"381 1026 LINE",
"216 1026 LINE",
"216 -76 LINE SMOOTH",
"216 -269 OFFCURVE",
"189 -329 OFFCURVE",
"78 -329 CURVE SMOOTH",
"20 -329 OFFCURVE",
"-35 -311 OFFCURVE",
"-35 -311 CURVE",
"-50 -443 LINE",
"-17 -452 OFFCURVE",
"44 -464 OFFCURVE",
"101 -464 CURVE SMOOTH"
);
}
);
width = 558;
},
{
anchors = (
{
name = bottom;
position = "{448, -656}";
},
{
name = top;
position = "{448, 1026}";
}
);
layerId = "8183A7D6-F04A-4582-B03C-55CCED69A0BD";
paths = (
{
closed = 1;
nodes = (
"29 -756 OFFCURVE",
"75 -747 OFFCURVE",
"115 -730 CURVE SMOOTH",
"297 -650 OFFCURVE",
"349 -428 OFFCURVE",
"349 -166 CURVE SMOOTH",
"349 953 LINE",
"155 953 LINE",
"155 -216 LINE SMOOTH",
"155 -423 OFFCURVE",
"112 -585 OFFCURVE",
"-71 -585 CURVE SMOOTH",
"-106 -585 OFFCURVE",
"-135 -578 OFFCURVE",
"-170 -573 CURVE",
"-169 -740 LINE",
"-124 -750 OFFCURVE",
"-77 -756 OFFCURVE",
"-25 -756 CURVE SMOOTH"
);
}
);
width = 895;
}
);
unicode = 0237;
},
{
glyphname = k;
lastChange = "2018-07-25 19:37:42 +0000";
layers = (
{
anchors = (
{
name = bottom;
position = "{537, 0}";
},
{
name = top;
position = "{537, 1560}";
}
);
layerId = "850197A4-73EE-4DD1-A43D-17FCD4749099";
paths = (
{
closed = 1;
nodes = (
"350 0 LINE",
"350 460 LINE",
"843 0 LINE",
"1060 0 LINE",
"506 513 LINE",
"998 1026 LINE",
"791 1026 LINE",
"350 556 LINE",
"350 1560 LINE",
"180 1560 LINE",
"180 0 LINE"
);
}
);
width = 1073;
},
{
anchors = (
{
name = bottom;
position = "{564, 0}";
},
{
name = top;
position = "{564, 1560}";
}
);
layerId = "8183A7D6-F04A-4582-B03C-55CCED69A0BD";
paths = (
{
closed = 1;
nodes = (
"382 0 LINE",
"382 482 LINE",
"833 0 LINE",
"1107 0 LINE",
"618 536 LINE",
"1095 1026 LINE",
"811 1026 LINE",
"382 588 LINE",
"382 1560 LINE",
"140 1560 LINE",
"140 0 LINE"
);
}
);
width = 1127;
}
);
unicode = 006B;
},
{
glyphname = kgreenlandic;
lastChange = "2018-07-25 19:37:42 +0000";
layers = (
{
anchors = (
{
name = bottom;
position = "{536, 0}";
},
{
name = top;
position = "{536, 1026}";
}
);
layerId = "850197A4-73EE-4DD1-A43D-17FCD4749099";
paths = (
{
closed = 1;
nodes = (
"353 0 LINE",
"353 471 LINE",
"843 0 LINE",
"1062 0 LINE",
"871 174 OFFCURVE",
"691 338 OFFCURVE",
"508 512 CURVE",
"1024 1026 LINE",
"800 1026 LINE",
"353 557 LINE",
"353 1026 LINE",
"188 1026 LINE",
"188 0 LINE"
);
}
);
width = 1071;
},
{
anchors = (
{
name = bottom;
position = "{928, 0}";
},
{
name = top;
position = "{928, 1026}";
}
);
layerId = "8183A7D6-F04A-4582-B03C-55CCED69A0BD";
paths = (
{
closed = 1;
nodes = (
"517 0 LINE",
"517 553 LINE",
"1058 0 LINE",
"1315 0 LINE",
"1091 204 OFFCURVE",
"891 396 OFFCURVE",
"689 601 CURVE",
"1271 1205 LINE",
"1011 1205 LINE",
"517 654 LINE",
"517 1205 LINE",
"324 1205 LINE",
"324 0 LINE"
);
}
);
width = 1855;
}
);
unicode = 0138;
},
{
glyphname = l;
lastChange = "2018-07-25 19:37:42 +0000";
layers = (
{
anchors = (
{
name = bottom;
position = "{331, 0}";
},
{
name = center;
position = "{331, 780}";
},
{
name = top;
position = "{331, 1560}";
},
{
name = topright;
position = "{641, 1560}";
}
);
components = (
{
name = lc_kick_2;
transform = "{1, 0, 0, 1, 144, 0}";
}
);
layerId = "850197A4-73EE-4DD1-A43D-17FCD4749099";
paths = (
{
closed = 1;
nodes = (
"384 235 LINE",
"384 1560 LINE",
"214 1560 LINE",
"214 216 LINE"
);
}
);
width = 661;
},
{
anchors = (
{
name = bottom;
position = "{324, 0}";
},
{
name = center;
position = "{324, 780}";
},
{
name = top;
position = "{324, 1560}";
},
{
name = topright;
position = "{627, 1560}";
}
);
components = (
{
name = lc_kick;
transform = "{1, 0, 0, 1, 55, 0}";
}
);
layerId = "8183A7D6-F04A-4582-B03C-55CCED69A0BD";
paths = (
{
closed = 1;
nodes = (
"380 358 LINE",
"380 1560 LINE",
"138 1560 LINE",
"138 323 LINE"
);
}
);
width = 647;
}
);
unicode = 006C;
userData = {
com.typemytype.robofont.layerData = {
b = {
anchors = (
);
components = (
);
contours = (
{
points = (
{
segmentType = curve;
smooth = 1;
x = 384;
y = 1580;
},
{
segmentType = line;
smooth = 1;
x = 384;
y = 223;
},
{
name = inserted;
x = 384;
y = 145;
},
{
x = 415;
y = 106;
},
{
segmentType = curve;
smooth = 1;
x = 477;
y = 106;
},
{
name = inserted;
x = 499;
y = 106;
},
{
x = 528;
y = 110;
},
{
segmentType = curve;
smooth = 0;
x = 567;
y = 118;
},
{
segmentType = line;
smooth = 0;
x = 587;
y = -11;
},
{
name = inserted;
x = 532;
y = -30;
},
{
x = 478;
y = -39;
},
{
segmentType = curve;
smooth = 1;
x = 421;
y = -39;
},
{
name = inserted;
x = 282;
y = -39;
},
{
x = 214;
y = 42;
},
{
segmentType = curve;
smooth = 1;
x = 214;
y = 204;
},
{
segmentType = line;
smooth = 0;
x = 214;
y = 1518;
},
{
segmentType = line;
smooth = 0;
x = 85;
y = 1535;
},
{
segmentType = line;
smooth = 0;
x = 85;
y = 1647;
},
{
segmentType = line;
smooth = 1;
x = 320;
y = 1647;
},
{
name = inserted;
x = 363;
y = 1647;
},
{
x = 384;
y = 1625;
}
);
}
);
lib = {
};
name = l;
unicodes = (
);
width = 661;
};
};
};
},
{
glyphname = lslash;
lastChange = "2018-07-25 19:37:42 +0000";
layers = (
{
layerId = "850197A4-73EE-4DD1-A43D-17FCD4749099";
paths = (
{
closed = 1;
nodes = (
"343 0 LINE",
"343 788 LINE",
"514 890 LINE",
"514 1027 LINE",
"343 925 LINE",
"343 1492 LINE",
"178 1492 LINE",
"178 826 LINE",
"10 726 LINE",
"10 589 LINE",
"178 689 LINE",
"178 0 LINE"
);
}
);
width = 513;
},
{
layerId = "8183A7D6-F04A-4582-B03C-55CCED69A0BD";
paths = (
{
closed = 1;
nodes = (
"401 0 LINE",
"401 925 LINE",
"602 1045 LINE",
"602 1206 LINE",
"401 1086 LINE",
"401 1752 LINE",
"207 1752 LINE",
"207 970 LINE",
"10 852 LINE",
"10 691 LINE",
"207 809 LINE",
"207 0 LINE"
);
}
);
width = 895;
}
);
unicode = 0142;
},
{
glyphname = m;
lastChange = "2018-07-25 19:37:42 +0000";
layers = (
{
anchors = (
{
name = bottom;
position = "{928, 0}";
},
{
name = top;
position = "{928, 1026}";
}
);
components = (
{
name = lc_kick;
transform = "{1, 0, 0, 1, 1413, 0}";
}
);
layerId = "850197A4-73EE-4DD1-A43D-17FCD4749099";
paths = (
{
closed = 1;
nodes = (
"351 0 LINE",
"351 515 LINE SMOOTH",
"351 796 OFFCURVE",
"528 920 OFFCURVE",
"657 920 CURVE SMOOTH",
"782 920 OFFCURVE",
"840 840 OFFCURVE",
"840 607 CURVE SMOOTH",
"840 2 LINE",
"1011 0 LINE",
"1011 542 LINE SMOOTH",
"1011 792 OFFCURVE",
"1148 920 OFFCURVE",
"1291 920 CURVE SMOOTH",
"1430 920 OFFCURVE",
"1483 853 OFFCURVE",
"1483 607 CURVE SMOOTH",
"1483 216 LINE",
"1653 235 LINE",
"1653 625 LINE SMOOTH",
"1653 946 OFFCURVE",
"1501 1052 OFFCURVE",
"1320 1052 CURVE SMOOTH",
"1155 1052 OFFCURVE",
"1045 988 OFFCURVE",
"968 870 CURVE",
"913 1003 OFFCURVE",
"806 1052 OFFCURVE",
"684 1052 CURVE SMOOTH",
"528 1052 OFFCURVE",
"413 984 OFFCURVE",
"339 878 CURVE",
"327 976 OFFCURVE",
"309 1026 OFFCURVE",
"309 1026 CURVE",
"138 1026 LINE",
"138 1026 OFFCURVE",
"181 833 OFFCURVE",
"181 634 CURVE SMOOTH",
"181 0 LINE"
);
}
);
width = 1856;
},
{
anchors = (
{
name = bottom;
position = "{952, 0}";
},
{
name = top;
position = "{952, 1026}";
}
);
components = (
{
name = lc_kick;
transform = "{1, 0, 0, 1, 1350, 0}";
},
{
name = lc_kick;
transform = "{1, 0, 0, 1, 1350, 0}";
}
);
layerId = "8183A7D6-F04A-4582-B03C-55CCED69A0BD";
paths = (
{
closed = 1;
nodes = (
"405 0 LINE",
"405 548 LINE SMOOTH",
"405 765 OFFCURVE",
"519 856 OFFCURVE",
"650 856 CURVE SMOOTH",
"758 856 OFFCURVE",
"802 782 OFFCURVE",
"802 617 CURVE SMOOTH",
"802 0 LINE",
"1044 0 LINE",
"1044 574 LINE SMOOTH",
"1044 758 OFFCURVE",
"1150 856 OFFCURVE",
"1261 856 CURVE SMOOTH",
"1391 856 OFFCURVE",
"1433 770 OFFCURVE",
"1433 617 CURVE SMOOTH",
"1433 323 LINE",
"1675 358 LINE",
"1675 623 LINE SMOOTH",
"1675 890 OFFCURVE",
"1549 1048 OFFCURVE",
"1313 1048 CURVE SMOOTH",
"1209 1048 OFFCURVE",
"1070 1018 OFFCURVE",
"976 862 CURVE",
"928 964 OFFCURVE",
"861 1048 OFFCURVE",
"705 1048 CURVE SMOOTH",
"603 1048 OFFCURVE",
"484 1013 OFFCURVE",
"391 907 CURVE",
"384 988 OFFCURVE",
"376 1026 OFFCURVE",
"376 1026 CURVE",
"128 1026 LINE",
"128 1026 OFFCURVE",
"163 834 OFFCURVE",
"163 524 CURVE SMOOTH",
"163 0 LINE"
);
}
);
width = 1904;
}
);
unicode = 006D;
userData = {
com.typemytype.robofont.layerData = {
b = {
anchors = (
);
components = (
);
contours = (
);
lib = {
};
name = m;
unicodes = (
);
width = 1856;
};
};
};
},
{
glyphname = n;
lastChange = "2018-07-25 19:37:42 +0000";
layers = (
{
anchors = (
{
name = bottom;
position = "{627, 0}";
},
{
name = top;
position = "{627, 1026}";
}
);
components = (
{
name = lc_kick;
transform = "{1, 0, 0, 1, 800, 0}";
}
);
layerId = "850197A4-73EE-4DD1-A43D-17FCD4749099";
paths = (
{
closed = 1;
nodes = (
"351 0 LINE",
"351 552 LINE SMOOTH",
"351 815 OFFCURVE",
"500 920 OFFCURVE",
"661 920 CURVE SMOOTH",
"793 920 OFFCURVE",
"870 859 OFFCURVE",
"870 621 CURVE SMOOTH",
"870 216 LINE",
"1040 235 LINE",
"1040 625 LINE SMOOTH",
"1040 946 OFFCURVE",
"880 1052 OFFCURVE",
"686 1052 CURVE SMOOTH",
"528 1052 OFFCURVE",
"421 993 OFFCURVE",
"339 878 CURVE",
"327 977 OFFCURVE",
"309 1026 OFFCURVE",
"309 1026 CURVE",
"138 1026 LINE",
"138 1026 OFFCURVE",
"181 833 OFFCURVE",
"181 634 CURVE SMOOTH",
"181 0 LINE"
);
}
);
width = 1253;
},
{
anchors = (
{
name = bottom;
position = "{651, 0}";
},
{
name = top;
position = "{651, 1026}";
}
);
components = (
{
name = lc_kick;
transform = "{1, 0, 0, 1, 747, 0}";
}
);
layerId = "8183A7D6-F04A-4582-B03C-55CCED69A0BD";
paths = (
{
closed = 1;
nodes = (
"405 0 LINE",
"405 522 LINE SMOOTH",
"405 717 OFFCURVE",
"504 857 OFFCURVE",
"650 857 CURVE SMOOTH",
"784 857 OFFCURVE",
"830 757 OFFCURVE",
"830 604 CURVE SMOOTH",
"830 323 LINE",
"1072 358 LINE",
"1072 647 LINE SMOOTH",
"1072 914 OFFCURVE",
"953 1048 OFFCURVE",
"724 1048 CURVE SMOOTH",
"576 1048 OFFCURVE",
"469 1002 OFFCURVE",
"391 906 CURVE",
"384 987 OFFCURVE",
"376 1026 OFFCURVE",
"376 1026 CURVE",
"128 1026 LINE",
"128 1026 OFFCURVE",
"163 834 OFFCURVE",
"163 524 CURVE SMOOTH",
"163 0 LINE"
);
}
);
width = 1301;
}
);
unicode = 006E;
userData = {
com.typemytype.robofont.layerData = {
b = {
anchors = (
);
components = (
);
contours = (
{
points = (
{
segmentType = curve;
smooth = 1;
x = 873;
y = 209;
},
{
segmentType = line;
smooth = 1;
x = 873;
y = 857;
},
{
smooth = 0;
x = 873;
y = 1035;
},
{
smooth = 0;
x = 818;
y = 1105;
},
{
segmentType = curve;
smooth = 1;
x = 663;
y = 1105;
},
{
name = inserted;
x = 530;
y = 1105;
},
{
x = 402;
y = 1053;
},
{
segmentType = curve;
smooth = 0;
x = 273;
y = 950;
},
{
segmentType = line;
smooth = 0;
x = 273;
y = 125;
},
{
segmentType = line;
smooth = 0;
x = 422;
y = 110;
},
{
segmentType = line;
smooth = 0;
x = 422;
y = 1;
},
{
segmentType = line;
smooth = 0;
x = -39;
y = 1;
},
{
segmentType = line;
smooth = 0;
x = -39;
y = 110;
},
{
segmentType = line;
smooth = 0;
x = 108;
y = 125;
},
{
segmentType = line;
smooth = 0;
x = 108;
y = 1079;
},
{
segmentType = line;
smooth = 0;
x = -39;
y = 1095;
},
{
segmentType = line;
smooth = 0;
x = -39;
y = 1203;
},
{
segmentType = line;
smooth = 1;
x = 183;
y = 1203;
},
{
name = inserted;
x = 227;
y = 1203;
},
{
x = 249;
y = 1183;
},
{
segmentType = curve;
smooth = 1;
x = 249;
y = 1141;
},
{
segmentType = line;
smooth = 0;
x = 249;
y = 1058;
},
{
name = inserted;
x = 398;
y = 1176;
},
{
x = 546;
y = 1233;
},
{
segmentType = curve;
smooth = 1;
x = 694;
y = 1233;
},
{
smooth = 0;
x = 941;
y = 1233;
},
{
smooth = 0;
x = 1040;
y = 1113;
},
{
segmentType = curve;
smooth = 1;
x = 1040;
y = 857;
},
{
segmentType = line;
smooth = 1;
x = 1040;
y = 228;
},
{
name = inserted;
x = 1040;
y = 151;
},
{
x = 1069;
y = 113;
},
{
segmentType = curve;
smooth = 1;
x = 1130;
y = 113;
},
{
name = inserted;
x = 1156;
y = 113;
},
{
x = 1185;
y = 117;
},
{
segmentType = curve;
smooth = 0;
x = 1219;
y = 125;
},
{
segmentType = line;
smooth = 0;
x = 1237;
y = -1;
},
{
name = inserted;
x = 1184;
y = -20;
},
{
x = 1130;
y = -29;
},
{
segmentType = curve;
smooth = 1;
x = 1076;
y = -29;
},
{
name = inserted;
x = 941;
y = -29;
},
{
x = 873;
y = 50;
}
);
}
);
lib = {
};
name = n;
unicodes = (
);
width = 1253;
};
};
};
},
{
glyphname = o;
lastChange = "2018-07-25 19:37:42 +0000";
layers = (
{
anchors = (
{
name = bottom;
position = "{602, 0}";
},
{
name = center;
position = "{602, 513}";
},
{
name = ogonek;
position = "{1084, 10}";
},
{
name = top;
position = "{602, 1026}";
},
{
name = topright;
position = "{1184, 1026}";
}
);
layerId = "850197A4-73EE-4DD1-A43D-17FCD4749099";
paths = (
{
closed = 1;
nodes = (
"894 -22 OFFCURVE",
"1098 192 OFFCURVE",
"1098 513 CURVE SMOOTH",
"1098 834 OFFCURVE",
"894 1052 OFFCURVE",
"606 1052 CURVE SMOOTH",
"314 1052 OFFCURVE",
"106 835 OFFCURVE",
"106 513 CURVE SMOOTH",
"106 193 OFFCURVE",
"313 -22 OFFCURVE",
"606 -22 CURVE SMOOTH"
);
},
{
closed = 1;
nodes = (
"407 110 OFFCURVE",
"280 276 OFFCURVE",
"280 513 CURVE SMOOTH",
"280 755 OFFCURVE",
"408 920 OFFCURVE",
"606 920 CURVE SMOOTH",
"801 920 OFFCURVE",
"924 754 OFFCURVE",
"924 513 CURVE SMOOTH",
"924 275 OFFCURVE",
"800 110 OFFCURVE",
"606 110 CURVE SMOOTH"
);
}
);
width = 1204;
},
{
anchors = (
{
name = bottom;
position = "{605, 0}";
},
{
name = center;
position = "{605, 513}";
},
{
name = ogonek;
position = "{1089, 10}";
},
{
name = top;
position = "{605, 1026}";
},
{
name = topright;
position = "{1190, 1026}";
}
);
layerId = "8183A7D6-F04A-4582-B03C-55CCED69A0BD";
paths = (
{
closed = 1;
nodes = (
"913 -22 OFFCURVE",
"1108 196 OFFCURVE",
"1108 513 CURVE SMOOTH",
"1108 832 OFFCURVE",
"911 1048 OFFCURVE",
"602 1048 CURVE SMOOTH",
"297 1048 OFFCURVE",
"102 830 OFFCURVE",
"102 512 CURVE SMOOTH",
"102 195 OFFCURVE",
"298 -22 OFFCURVE",
"603 -22 CURVE SMOOTH"
);
},
{
closed = 1;
nodes = (
"433 164 OFFCURVE",
"350 299 OFFCURVE",
"350 512 CURVE SMOOTH",
"350 725 OFFCURVE",
"432 862 OFFCURVE",
"603 862 CURVE SMOOTH",
"774 862 OFFCURVE",
"860 725 OFFCURVE",
"860 512 CURVE SMOOTH",
"860 299 OFFCURVE",
"775 164 OFFCURVE",
"605 164 CURVE SMOOTH"
);
}
);
width = 1210;
}
);
unicode = 006F;
},
{
glyphname = oslash;
lastChange = "2018-07-25 19:37:42 +0000";
layers = (
{
anchors = (
{
name = top;
position = "{608, 1026}";
}
);
components = (
{
name = o;
}
);
layerId = "850197A4-73EE-4DD1-A43D-17FCD4749099";
paths = (
{
closed = 1;
nodes = (
"969 1245 LINE",
"869 1277 LINE",
"257 -229 LINE",
"353 -261 LINE"
);
}
);
width = 1216;
},
{
anchors = (
{
name = top;
position = "{1068, 1026}";
}
);
components = (
{
name = o;
transform = "{1, 0, 0, 1, 10, 0}";
}
);
layerId = "8183A7D6-F04A-4582-B03C-55CCED69A0BD";
paths = (
{
closed = 1;
nodes = (
"961 1196 LINE",
"840 1233 LINE",
"292 -153 LINE",
"397 -191 LINE"
);
}
);
width = 2136;
}
);
unicode = 00F8;
},
{
glyphname = oe;
lastChange = "2018-07-25 19:37:42 +0000";
layers = (
{
anchors = (
{
name = bottom;
position = "{952, 0}";
},
{
name = top;
position = "{952, 1026}";
}
);
layerId = "850197A4-73EE-4DD1-A43D-17FCD4749099";
paths = (
{
closed = 1;
nodes = (
"788 -22 OFFCURVE",
"932 67 OFFCURVE",
"1018 222 CURVE",
"1108 63 OFFCURVE",
"1262 -22 OFFCURVE",
"1433 -22 CURVE SMOOTH",
"1589 -22 OFFCURVE",
"1699 25 OFFCURVE",
"1819 122 CURVE",
"1751 232 LINE",
"1686 179 OFFCURVE",
"1595 114 OFFCURVE",
"1444 114 CURVE SMOOTH",
"1260 114 OFFCURVE",
"1132 233 OFFCURVE",
"1108 445 CURVE",
"1440 445 OFFCURVE",
"1778 510 OFFCURVE",
"1778 755 CURVE SMOOTH",
"1778 922 OFFCURVE",
"1641 1052 OFFCURVE",
"1434 1052 CURVE SMOOTH",
"1246 1052 OFFCURVE",
"1104 954 OFFCURVE",
"1021 801 CURVE",
"935 959 OFFCURVE",
"789 1052 OFFCURVE",
"612 1052 CURVE SMOOTH",
"320 1052 OFFCURVE",
"112 833 OFFCURVE",
"112 511 CURVE SMOOTH",
"112 191 OFFCURVE",
"320 -22 OFFCURVE",
"613 -22 CURVE SMOOTH"
);
},
{
closed = 1;
nodes = (
"414 114 OFFCURVE",
"282 276 OFFCURVE",
"282 513 CURVE SMOOTH",
"282 755 OFFCURVE",
"414 916 OFFCURVE",
"612 916 CURVE SMOOTH",
"807 916 OFFCURVE",
"933 756 OFFCURVE",
"933 515 CURVE SMOOTH",
"933 277 OFFCURVE",
"807 114 OFFCURVE",
"613 114 CURVE SMOOTH"
);
},
{
closed = 1;
nodes = (
"1120 794 OFFCURVE",
"1269 916 OFFCURVE",
"1435 916 CURVE SMOOTH",
"1550 916 OFFCURVE",
"1615 852 OFFCURVE",
"1615 758 CURVE SMOOTH",
"1615 597 OFFCURVE",
"1339 566 OFFCURVE",
"1106 566 CURVE"
);
}
);
width = 1903;
},
{
anchors = (
{
name = bottom;
position = "{1682, 0}";
},
{
name = top;
position = "{1682, 1026}";
}
);
layerId = "8183A7D6-F04A-4582-B03C-55CCED69A0BD";
paths = (
{
closed = 1;
nodes = (
"965 -49 OFFCURVE",
"1115 51 OFFCURVE",
"1186 229 CURVE",
"1257 57 OFFCURVE",
"1411 -49 OFFCURVE",
"1642 -49 CURVE SMOOTH",
"1884 -49 OFFCURVE",
"2048 57 OFFCURVE",
"2141 225 CURVE",
"2038 327 LINE",
"1964 209 OFFCURVE",
"1835 112 OFFCURVE",
"1655 112 CURVE SMOOTH",
"1597 112 OFFCURVE",
"1546 122 OFFCURVE",
"1501 142 CURVE SMOOTH",
"1373 201 OFFCURVE",
"1298 332 OFFCURVE",
"1293 513 CURVE",
"1293 536 LINE",
"2113 538 LINE",
"2113 600 LINE SMOOTH",
"2113 964 OFFCURVE",
"1946 1220 OFFCURVE",
"1615 1220 CURVE SMOOTH",
"1402 1220 OFFCURVE",
"1272 1115 OFFCURVE",
"1192 948 CURVE",
"1104 1116 OFFCURVE",
"975 1220 OFFCURVE",
"752 1220 CURVE SMOOTH",
"664 1220 OFFCURVE",
"584 1204 OFFCURVE",
"514 1170 CURVE",
"319 1079 OFFCURVE",
"172 877 OFFCURVE",
"172 581 CURVE SMOOTH",
"172 494 OFFCURVE",
"186 412 OFFCURVE",
"213 335 CURVE SMOOTH",
"293 112 OFFCURVE",
"470 -49 OFFCURVE",
"741 -49 CURVE SMOOTH"
);
},
{
closed = 1;
nodes = (
"688 112 OFFCURVE",
"631 125 OFFCURVE",
"584 150 CURVE SMOOTH",
"453 219 OFFCURVE",
"376 368 OFFCURVE",
"376 579 CURVE SMOOTH",
"376 643 OFFCURVE",
"383 704 OFFCURVE",
"399 762 CURVE SMOOTH",
"443 925 OFFCURVE",
"553 1060 OFFCURVE",
"743 1060 CURVE SMOOTH",
"991 1060 OFFCURVE",
"1096 858 OFFCURVE",
"1096 584 CURVE SMOOTH",
"1096 321 OFFCURVE",
"991 112 OFFCURVE",
"752 112 CURVE SMOOTH"
);
},
{
closed = 1;
nodes = (
"1297 745 OFFCURVE",
"1306 791 OFFCURVE",
"1321 835 CURVE",
"1367 958 OFFCURVE",
"1467 1060 OFFCURVE",
"1621 1060 CURVE SMOOTH",
"1817 1060 OFFCURVE",
"1910 915 OFFCURVE",
"1910 698 CURVE",
"1293 698 LINE"
);
}
);
width = 3363;
}
);
unicode = 0153;
},
{
glyphname = p;
lastChange = "2018-07-25 19:37:42 +0000";
layers = (
{
anchors = (
{
name = bottom;
position = "{597, 0}";
},
{
name = top;
position = "{597, 1026}";
}
);
layerId = "850197A4-73EE-4DD1-A43D-17FCD4749099";
paths = (
{
closed = 1;
nodes = (
"351 -574 LINE",
"351 22 LINE",
"417 -1 OFFCURVE",
"503 -22 OFFCURVE",
"596 -22 CURVE SMOOTH",
"886 -22 OFFCURVE",
"1088 186 OFFCURVE",
"1088 543 CURVE SMOOTH",
"1088 853 OFFCURVE",
"925 1052 OFFCURVE",
"674 1052 CURVE SMOOTH",
"499 1052 OFFCURVE",
"398 969 OFFCURVE",
"338 870 CURVE",
"326 963 OFFCURVE",
"309 1026 OFFCURVE",
"309 1026 CURVE",
"138 1026 LINE",
"138 1026 OFFCURVE",
"181 833 OFFCURVE",
"181 634 CURVE SMOOTH",
"181 -574 LINE"
);
},
{
closed = 1;
nodes = (
"487 110 OFFCURVE",
"414 135 OFFCURVE",
"351 161 CURVE",
"351 500 LINE SMOOTH",
"351 721 OFFCURVE",
"436 920 OFFCURVE",
"639 920 CURVE SMOOTH",
"817 920 OFFCURVE",
"914 785 OFFCURVE",
"914 541 CURVE SMOOTH",
"914 239 OFFCURVE",
"763 110 OFFCURVE",
"570 110 CURVE SMOOTH"
);
}
);
width = 1194;
},
{
anchors = (
{
name = bottom;
position = "{601, 0}";
},
{
name = top;
position = "{601, 1026}";
}
);
layerId = "8183A7D6-F04A-4582-B03C-55CCED69A0BD";
paths = (
{
closed = 1;
nodes = (
"409 -574 LINE",
"409 2 LINE",
"460 -11 OFFCURVE",
"519 -22 OFFCURVE",
"583 -22 CURVE SMOOTH",
"904 -22 OFFCURVE",
"1102 204 OFFCURVE",
"1102 557 CURVE SMOOTH",
"1102 936 OFFCURVE",
"858 1048 OFFCURVE",
"684 1048 CURVE SMOOTH",
"543 1048 OFFCURVE",
"451 1002 OFFCURVE",
"393 895 CURVE",
"385 980 OFFCURVE",
"374 1026 OFFCURVE",
"374 1026 CURVE",
"132 1026 LINE",
"132 1026 OFFCURVE",
"167 834 OFFCURVE",
"167 524 CURVE SMOOTH",
"167 -574 LINE"
);
},
{
closed = 1;
nodes = (
"497 164 OFFCURVE",
"446 171 OFFCURVE",
"409 179 CURVE",
"409 520 LINE SMOOTH",
"409 759 OFFCURVE",
"516 862 OFFCURVE",
"647 862 CURVE SMOOTH",
"777 862 OFFCURVE",
"858 750 OFFCURVE",
"858 555 CURVE SMOOTH",
"858 305 OFFCURVE",
"754 164 OFFCURVE",
"547 164 CURVE SMOOTH"
);
}
);
width = 1202;
}
);
unicode = 0070;
userData = {
com.typemytype.robofont.layerData = {
b = {
anchors = (
);
components = (
);
contours = (
{
points = (
{
segmentType = curve;
smooth = 1;
x = 581;
y = -22;
},
{
smooth = 0;
x = 348;
y = -22;
},
{
smooth = 0;
x = 180;
y = 71;
},
{
segmentType = curve;
smooth = 0;
x = 180;
y = 71;
},
{
segmentType = line;
smooth = 0;
x = 180;
y = 1560;
},
{
segmentType = line;
smooth = 0;
x = 350;
y = 1560;
},
{
segmentType = line;
smooth = 0;
x = 350;
y = 868;
},
{
smooth = 0;
x = 442;
y = 1002;
},
{
smooth = 0;
x = 553;
y = 1052;
},
{
segmentType = curve;
smooth = 1;
x = 688;
y = 1052;
},
{
smooth = 0;
x = 911;
y = 1052;
},
{
smooth = 0;
x = 1089;
y = 865;
},
{
segmentType = curve;
smooth = 1;
x = 1089;
y = 545;
},
{
smooth = 0;
x = 1089;
y = 215;
},
{
smooth = 0;
x = 885;
y = -22;
}
);
},
{
points = (
{
segmentType = curve;
smooth = 1;
x = 575;
y = 114;
},
{
smooth = 0;
x = 799;
y = 114;
},
{
smooth = 0;
x = 915;
y = 318;
},
{
segmentType = curve;
smooth = 1;
x = 915;
y = 550;
},
{
smooth = 0;
x = 915;
y = 793;
},
{
smooth = 0;
x = 807;
y = 920;
},
{
segmentType = curve;
smooth = 1;
x = 665;
y = 920;
},
{
smooth = 0;
x = 512;
y = 920;
},
{
smooth = 0;
x = 350;
y = 791;
},
{
segmentType = curve;
smooth = 1;
x = 350;
y = 601;
},
{
segmentType = line;
smooth = 0;
x = 350;
y = 151;
},
{
smooth = 0;
x = 350;
y = 151;
},
{
smooth = 0;
x = 427;
y = 114;
}
);
}
);
lib = {
};
name = p;
unicodes = (
);
width = 1194;
};
};
};
},
{
glyphname = thorn;
lastChange = "2018-07-25 19:37:42 +0000";
layers = (
{
anchors = (
{
name = bottom;
position = "{612, 0}";
},
{
name = top;
position = "{612, 1026}";
}
);
layerId = "850197A4-73EE-4DD1-A43D-17FCD4749099";
paths = (
{
closed = 1;
nodes = (
"333 -508 LINE",
"333 135 LINE",
"416 30 OFFCURVE",
"526 -22 OFFCURVE",
"664 -22 CURVE SMOOTH",
"952 -22 OFFCURVE",
"1123 197 OFFCURVE",
"1123 527 CURVE SMOOTH",
"1123 807 OFFCURVE",
"978 1052 OFFCURVE",
"664 1052 CURVE SMOOTH",
"509 1052 OFFCURVE",
"406 982 OFFCURVE",
"335 882 CURVE",
"335 1456 LINE",
"168 1456 LINE",
"168 -508 LINE"
);
},
{
closed = 1;
nodes = (
"443 109 OFFCURVE",
"333 263 OFFCURVE",
"333 494 CURVE SMOOTH",
"333 732 OFFCURVE",
"418 916 OFFCURVE",
"647 916 CURVE SMOOTH",
"863 916 OFFCURVE",
"947 745 OFFCURVE",
"947 521 CURVE SMOOTH",
"947 296 OFFCURVE",
"858 109 OFFCURVE",
"641 109 CURVE SMOOTH"
);
}
);
width = 1223;
},
{
anchors = (
{
name = bottom;
position = "{1058, 0}";
},
{
name = top;
position = "{1058, 1026}";
}
);
layerId = "8183A7D6-F04A-4582-B03C-55CCED69A0BD";
paths = (
{
closed = 1;
nodes = (
"482 -752 LINE",
"482 -92 LINE",
"573 -216 OFFCURVE",
"695 -278 OFFCURVE",
"848 -278 CURVE SMOOTH",
"932 -278 OFFCURVE",
"1004 -259 OFFCURVE",
"1066 -224 CURVE",
"1248 -126 OFFCURVE",
"1367 83 OFFCURVE",
"1367 368 CURVE SMOOTH",
"1367 718 OFFCURVE",
"1182 983 OFFCURVE",
"848 983 CURVE SMOOTH",
"677 983 OFFCURVE",
"564 902 OFFCURVE",
"485 785 CURVE",
"485 1458 LINE",
"289 1458 LINE",
"289 -752 LINE"
);
},
{
closed = 1;
nodes = (
"767 -123 OFFCURVE",
"718 -111 OFFCURVE",
"676 -89 CURVE SMOOTH",
"551 -22 OFFCURVE",
"482 126 OFFCURVE",
"482 329 CURVE SMOOTH",
"482 609 OFFCURVE",
"576 826 OFFCURVE",
"829 826 CURVE SMOOTH",
"1068 826 OFFCURVE",
"1161 624 OFFCURVE",
"1161 361 CURVE SMOOTH",
"1161 97 OFFCURVE",
"1062 -123 OFFCURVE",
"822 -123 CURVE SMOOTH"
);
}
);
width = 2116;
}
);
unicode = 00FE;
},
{
glyphname = q;
lastChange = "2018-07-25 19:37:42 +0000";
layers = (
{
anchors = (
{
name = bottom;
position = "{592, 0}";
},
{
name = top;
position = "{592, 1026}";
}
);
layerId = "850197A4-73EE-4DD1-A43D-17FCD4749099";
paths = (
{
closed = 1;
nodes = (
"965 -555 OFFCURVE",
"983 -551 OFFCURVE",
"999 -544 CURVE SMOOTH",
"1316 -405 LINE",
"1270 -285 LINE",
"1009 -394 LINE",
"1009 954 LINE",
"929 1006 OFFCURVE",
"789 1052 OFFCURVE",
"660 1052 CURVE SMOOTH",
"328 1052 OFFCURVE",
"106 820 OFFCURVE",
"106 438 CURVE SMOOTH",
"106 162 OFFCURVE",
"274 -22 OFFCURVE",
"514 -22 CURVE SMOOTH",
"650 -22 OFFCURVE",
"763 28 OFFCURVE",
"839 153 CURVE",
"839 -441 LINE SMOOTH",
"839 -526 OFFCURVE",
"896 -555 OFFCURVE",
"946 -555 CURVE SMOOTH"
);
},
{
closed = 1;
nodes = (
"379 110 OFFCURVE",
"280 248 OFFCURVE",
"280 448 CURVE SMOOTH",
"280 734 OFFCURVE",
"425 920 OFFCURVE",
"657 920 CURVE SMOOTH",
"730 920 OFFCURVE",
"799 893 OFFCURVE",
"839 881 CURVE",
"839 476 LINE SMOOTH",
"839 273 OFFCURVE",
"739 110 OFFCURVE",
"535 110 CURVE SMOOTH"
);
}
);
width = 1183;
},
{
anchors = (
{
name = bottom;
position = "{633, 0}";
},
{
name = top;
position = "{633, 1026}";
}
);
layerId = "8183A7D6-F04A-4582-B03C-55CCED69A0BD";
paths = (
{
closed = 1;
nodes = (
"1012 -575 OFFCURVE",
"1048 -568 OFFCURVE",
"1089 -552 CURVE",
"1371 -405 LINE",
"1322 -226 LINE",
"1060 -357 LINE",
"1060 942 LINE",
"964 998 OFFCURVE",
"785 1048 OFFCURVE",
"658 1048 CURVE SMOOTH",
"325 1048 OFFCURVE",
"106 790 OFFCURVE",
"106 444 CURVE SMOOTH",
"106 183 OFFCURVE",
"288 -22 OFFCURVE",
"532 -22 CURVE SMOOTH",
"628 -22 OFFCURVE",
"750 14 OFFCURVE",
"818 107 CURVE",
"818 -391 LINE SMOOTH",
"818 -497 OFFCURVE",
"874 -575 OFFCURVE",
"980 -575 CURVE SMOOTH"
);
},
{
closed = 1;
nodes = (
"450 164 OFFCURVE",
"354 302 OFFCURVE",
"354 454 CURVE SMOOTH",
"354 709 OFFCURVE",
"490 862 OFFCURVE",
"659 862 CURVE SMOOTH",
"712 862 OFFCURVE",
"782 852 OFFCURVE",
"818 838 CURVE",
"818 529 LINE SMOOTH",
"818 336 OFFCURVE",
"709 164 OFFCURVE",
"561 164 CURVE SMOOTH"
);
}
);
width = 1266;
}
);
unicode = 0071;
userData = {
com.typemytype.robofont.layerData = {
b = {
anchors = (
);
components = (
);
contours = (
);
lib = {
};
name = q;
unicodes = (
);
width = 1183;
};
};
};
},
{
glyphname = r;
lastChange = "2018-07-25 19:37:42 +0000";
layers = (
{
anchors = (
{
name = bottom;
position = "{389, 0}";
},
{
name = top;
position = "{389, 1026}";
}
);
layerId = "850197A4-73EE-4DD1-A43D-17FCD4749099";
paths = (
{
closed = 1;
nodes = (
"353 0 LINE",
"353 457 LINE SMOOTH",
"353 680 OFFCURVE",
"412 904 OFFCURVE",
"614 904 CURVE SMOOTH",
"649 904 OFFCURVE",
"688 898 OFFCURVE",
"732 883 CURVE",
"746 1028 LINE",
"697 1041 OFFCURVE",
"652 1047 OFFCURVE",
"612 1047 CURVE",
"472 1047 OFFCURVE",
"385 975 OFFCURVE",
"339 890 CURVE",
"327 981 OFFCURVE",
"311 1026 OFFCURVE",
"311 1026 CURVE",
"140 1026 LINE",
"140 1026 OFFCURVE",
"183 833 OFFCURVE",
"183 634 CURVE SMOOTH",
"183 0 LINE"
);
}
);
width = 778;
},
{
anchors = (
{
name = bottom;
position = "{424, 0}";
},
{
name = top;
position = "{424, 1026}";
}
);
layerId = "8183A7D6-F04A-4582-B03C-55CCED69A0BD";
paths = (
{
closed = 1;
nodes = (
"409 0 LINE",
"409 553 LINE SMOOTH",
"409 566 LINE SMOOTH",
"409 648 OFFCURVE",
"483 831 OFFCURVE",
"654 831 CURVE SMOOTH",
"689 831 OFFCURVE",
"726 826 OFFCURVE",
"770 815 CURVE",
"788 1022 LINE",
"776 1027 OFFCURVE",
"735 1044 OFFCURVE",
"655 1044 CURVE",
"569 1044 OFFCURVE",
"464 996 OFFCURVE",
"395 902 CURVE",
"387 986 OFFCURVE",
"380 1026 OFFCURVE",
"380 1026 CURVE",
"132 1026 LINE",
"132 1026 OFFCURVE",
"167 834 OFFCURVE",
"167 524 CURVE SMOOTH",
"167 0 LINE"
);
}
);
width = 848;
}
);
unicode = 0072;
},
{
glyphname = s;
lastChange = "2018-07-25 19:37:42 +0000";
layers = (
{
anchors = (
{
name = bottom;
position = "{445, 0}";
},
{
name = top;
position = "{445, 1026}";
}
);
layerId = "850197A4-73EE-4DD1-A43D-17FCD4749099";
paths = (
{
closed = 1;
nodes = (
"661 -22 OFFCURVE",
"804 91 OFFCURVE",
"804 290 CURVE SMOOTH",
"804 468 OFFCURVE",
"678 525 OFFCURVE",
"514 601 CURVE SMOOTH",
"365 670 OFFCURVE",
"283 695 OFFCURVE",
"283 784 CURVE SMOOTH",
"283 872 OFFCURVE",
"366 920 OFFCURVE",
"469 920 CURVE SMOOTH",
"551 920 OFFCURVE",
"649 887 OFFCURVE",
"733 838 CURVE",
"771 976 LINE",
"701 1013 OFFCURVE",
"596 1052 OFFCURVE",
"460 1052 CURVE SMOOTH",
"268 1052 OFFCURVE",
"113 961 OFFCURVE",
"113 771 CURVE SMOOTH",
"113 575 OFFCURVE",
"294 532 OFFCURVE",
"438 465 CURVE SMOOTH",
"597 392 OFFCURVE",
"641 365 OFFCURVE",
"641 272 CURVE SMOOTH",
"641 155 OFFCURVE",
"552 110 OFFCURVE",
"453 110 CURVE SMOOTH",
"353 110 OFFCURVE",
"233 156 OFFCURVE",
"157 206 CURVE",
"105 75 LINE",
"166 38 OFFCURVE",
"292 -22 OFFCURVE",
"462 -22 CURVE SMOOTH"
);
}
);
width = 890;
},
{
anchors = (
{
name = bottom;
position = "{460, 0}";
},
{
name = top;
position = "{460, 1026}";
}
);
layerId = "8183A7D6-F04A-4582-B03C-55CCED69A0BD";
paths = (
{
closed = 1;
nodes = (
"716.209 -22 OFFCURVE",
"835.209 101 OFFCURVE",
"839.209 297 CURVE SMOOTH",
"846.209 631 OFFCURVE",
"336.209 598 OFFCURVE",
"340.209 767 CURVE SMOOTH",
"342.209 836 OFFCURVE",
"398.209 868 OFFCURVE",
"488.209 868 CURVE SMOOTH",
"557.209 868 OFFCURVE",
"647.209 848 OFFCURVE",
"740.209 810 CURVE",
"797.209 973 LINE",
"770.209 988 OFFCURVE",
"649.209 1048 OFFCURVE",
"464.209 1048 CURVE SMOOTH",
"156.209 1048 OFFCURVE",
"105.209 839 OFFCURVE",
"109.209 742 CURVE SMOOTH",
"122.209 420 OFFCURVE",
"610.209 463 OFFCURVE",
"610.209 283 CURVE SMOOTH",
"610.209 202 OFFCURVE",
"554.209 167 OFFCURVE",
"468.209 167 CURVE SMOOTH",
"394.209 167 OFFCURVE",
"292.209 193 OFFCURVE",
"169.209 246 CURVE",
"116.209 69 LINE",
"178.209 36 OFFCURVE",
"322.209 -22 OFFCURVE",
"478.209 -22 CURVE SMOOTH"
);
}
);
width = 920.20933;
}
);
unicode = 0073;
},
{
glyphname = germandbls;
lastChange = "2018-07-25 19:37:42 +0000";
layers = (
{
anchors = (
{
name = bottom;
position = "{632, 0}";
},
{
name = top;
position = "{632, 1026}";
}
);
layerId = "850197A4-73EE-4DD1-A43D-17FCD4749099";
paths = (
{
closed = 1;
nodes = (
"988 -22 OFFCURVE",
"1181 102 OFFCURVE",
"1181 341 CURVE SMOOTH",
"1181 601 OFFCURVE",
"986 704 OFFCURVE",
"738 775 CURVE SMOOTH",
"712 782 OFFCURVE",
"702 790 OFFCURVE",
"702 797 CURVE SMOOTH",
"702 805 OFFCURVE",
"714 812 OFFCURVE",
"735 819 CURVE SMOOTH",
"902 876 OFFCURVE",
"996 1026 OFFCURVE",
"996 1168 CURVE SMOOTH",
"996 1329 OFFCURVE",
"877 1480 OFFCURVE",
"612 1480 CURVE SMOOTH",
"347 1480 OFFCURVE",
"182 1325 OFFCURVE",
"182 1040 CURVE SMOOTH",
"184 0 LINE",
"349 0 LINE",
"345 1007 LINE SMOOTH",
"344 1197 OFFCURVE",
"421 1351 OFFCURVE",
"611 1351 CURVE SMOOTH",
"747 1351 OFFCURVE",
"819 1266 OFFCURVE",
"819 1164 CURVE SMOOTH",
"819 1064 OFFCURVE",
"750 948 OFFCURVE",
"604 881 CURVE SMOOTH",
"555 858 OFFCURVE",
"533 823 OFFCURVE",
"533 790 CURVE SMOOTH",
"533 760 OFFCURVE",
"551 731 OFFCURVE",
"585 713 CURVE SMOOTH",
"770 616 OFFCURVE",
"1024 580 OFFCURVE",
"1024 324 CURVE SMOOTH",
"1024 199 OFFCURVE",
"919 109 OFFCURVE",
"796 109 CURVE SMOOTH",
"687 109 OFFCURVE",
"605 173 OFFCURVE",
"544 243 CURVE",
"479 138 LINE",
"551 47 OFFCURVE",
"656 -22 OFFCURVE",
"800 -22 CURVE SMOOTH"
);
}
);
width = 1263;
},
{
anchors = (
{
name = bottom;
position = "{617, 0}";
},
{
name = top;
position = "{617, 1026}";
}
);
layerId = "8183A7D6-F04A-4582-B03C-55CCED69A0BD";
paths = (
{
closed = 1;
nodes = (
"1007 -23 OFFCURVE",
"1181 97 OFFCURVE",
"1181 321 CURVE SMOOTH",
"1181 574 OFFCURVE",
"1016 656 OFFCURVE",
"812 779 CURVE SMOOTH",
"787 794 OFFCURVE",
"796 814 OFFCURVE",
"810 820 CURVE SMOOTH",
"950 882 OFFCURVE",
"1045 960 OFFCURVE",
"1045 1135 CURVE SMOOTH",
"1045 1145 OFFCURVE",
"1045 1154 OFFCURVE",
"1044 1164 CURVE SMOOTH",
"1034 1343 OFFCURVE",
"894 1480 OFFCURVE",
"637 1480 CURVE SMOOTH",
"389 1480 OFFCURVE",
"192 1324 OFFCURVE",
"192 1044 CURVE SMOOTH",
"192 0 LINE",
"434 0 LINE",
"434 1032 LINE SMOOTH",
"434 1220 OFFCURVE",
"506 1312 OFFCURVE",
"636 1312 CURVE SMOOTH",
"719 1312 OFFCURVE",
"791 1259 OFFCURVE",
"802 1163 CURVE SMOOTH",
"804 1145 OFFCURVE",
"805 1128 OFFCURVE",
"805 1113 CURVE SMOOTH",
"805 977 OFFCURVE",
"724 954 OFFCURVE",
"622 897 CURVE SMOOTH",
"580 874 OFFCURVE",
"563 836 OFFCURVE",
"563 800 CURVE SMOOTH",
"563 763 OFFCURVE",
"580 728 OFFCURVE",
"607 711 CURVE SMOOTH",
"826 573 OFFCURVE",
"962 467 OFFCURVE",
"962 319 CURVE SMOOTH",
"962 308 OFFCURVE",
"961 298 OFFCURVE",
"960 287 CURVE SMOOTH",
"949 202 OFFCURVE",
"880 159 OFFCURVE",
"797 159 CURVE SMOOTH",
"723 159 OFFCURVE",
"639 193 OFFCURVE",
"575 263 CURVE",
"538 109 LINE",
"612 20 OFFCURVE",
"721 -23 OFFCURVE",
"828 -23 CURVE SMOOTH"
);
}
);
width = 1234;
}
);
unicode = 00DF;
},
{
glyphname = t;
lastChange = "2018-07-26 15:35:15 +0000";
layers = (
{
anchors = (
{
name = bottom;
position = "{388, 0}";
},
{
name = center;
position = "{388, 513}";
},
{
name = top;
position = "{388, 1026}";
},
{
name = topright;
position = "{756, 1026}";
}
);
components = (
{
name = lc_kick_2;
transform = "{1, 0, 0, 1, 185, 0}";
}
);
layerId = "850197A4-73EE-4DD1-A43D-17FCD4749099";
paths = (
{
closed = 1;
nodes = (
"425 235 LINE SMOOTH",
"425 920 LINE",
"681 920 LINE",
"681 1026 LINE",
"425 1026 LINE",
"425 1353 LINE",
"255 1353 LINE",
"255 1026 LINE",
"52 1026 LINE",
"52 920 LINE",
"255 920 LINE",
"255 216 LINE"
);
}
);
width = 776;
},
{
anchors = (
{
name = bottom;
position = "{436, 0}";
},
{
name = center;
position = "{436, 513}";
},
{
name = top;
position = "{436, 1026}";
},
{
name = topright;
position = "{852, 1026}";
}
);
components = (
{
name = lc_kick_2;
transform = "{1, 0, 0, 1, 3, 0}";
}
);
layerId = "8183A7D6-F04A-4582-B03C-55CCED69A0BD";
paths = (
{
closed = 1;
nodes = (
"465 358 LINE SMOOTH",
"465 862 LINE",
"768 862 LINE",
"768 1026 LINE",
"465 1026 LINE",
"465 1419 LINE",
"223 1419 LINE",
"223 1026 LINE",
"20 1026 LINE",
"20 862 LINE",
"223 862 LINE",
"223 323 LINE"
);
}
);
width = 872;
}
);
unicode = 0074;
userData = {
com.typemytype.robofont.layerData = {
b = {
anchors = (
);
components = (
);
contours = (
{
points = (
{
segmentType = line;
smooth = 0;
x = 52;
y = 920;
},
{
segmentType = line;
smooth = 0;
x = 52;
y = 1026;
},
{
segmentType = line;
smooth = 0;
x = 255;
y = 1026;
},
{
segmentType = line;
smooth = 0;
x = 255;
y = 1353;
},
{
segmentType = line;
smooth = 0;
x = 425;
y = 1353;
},
{
segmentType = line;
smooth = 0;
x = 425;
y = 1026;
},
{
segmentType = line;
smooth = 0;
x = 708;
y = 1026;
},
{
segmentType = line;
smooth = 0;
x = 708;
y = 920;
},
{
segmentType = line;
smooth = 0;
x = 425;
y = 920;
},
{
segmentType = line;
smooth = 1;
x = 425;
y = 320;
},
{
smooth = 0;
x = 425;
y = 195;
},
{
smooth = 0;
x = 442;
y = 123;
},
{
segmentType = curve;
smooth = 1;
x = 648;
y = 123;
},
{
smooth = 0;
x = 664;
y = 123;
},
{
smooth = 0;
x = 681;
y = 123;
},
{
segmentType = curve;
smooth = 0;
x = 699;
y = 124;
},
{
segmentType = line;
smooth = 0;
x = 685;
y = -10;
},
{
smooth = 0;
x = 655;
y = -12;
},
{
smooth = 0;
x = 626;
y = -13;
},
{
segmentType = curve;
smooth = 1;
x = 600;
y = -13;
},
{
smooth = 0;
x = 292;
y = -13;
},
{
smooth = 0;
x = 255;
y = 144;
},
{
segmentType = curve;
smooth = 1;
x = 255;
y = 326;
},
{
segmentType = line;
smooth = 0;
x = 255;
y = 920;
}
);
}
);
lib = {
};
name = t;
unicodes = (
);
width = 776;
};
};
};
},
{
glyphname = u;
lastChange = "2018-07-25 19:37:42 +0000";
layers = (
{
anchors = (
{
name = bottom;
position = "{608, 0}";
},
{
name = ogonek;
position = "{1094, 10}";
},
{
name = top;
position = "{608, 1026}";
},
{
name = topright;
position = "{1196, 1026}";
}
);
components = (
{
name = lc_kick;
transform = "{1, 0, 0, 1, 783, 0}";
}
);
layerId = "850197A4-73EE-4DD1-A43D-17FCD4749099";
paths = (
{
closed = 1;
nodes = (
"698 -22 OFFCURVE",
"786 51 OFFCURVE",
"859 145 CURVE",
"1023 235 LINE SMOOTH",
"1023 1026 LINE",
"853 1026 LINE",
"853 482 LINE",
"853 259 OFFCURVE",
"723 110 OFFCURVE",
"558 110 CURVE SMOOTH",
"445 110 OFFCURVE",
"347 165 OFFCURVE",
"347 352 CURVE SMOOTH",
"347 365 LINE SMOOTH",
"353 583 LINE SMOOTH",
"354 613 OFFCURVE",
"354 640 OFFCURVE",
"354 667 CURVE SMOOTH",
"354 906 OFFCURVE",
"325 1026 OFFCURVE",
"325 1026 CURVE",
"154 1026 LINE",
"154 1026 OFFCURVE",
"183 832 OFFCURVE",
"183 634 CURVE SMOOTH",
"183 617 OFFCURVE",
"182 599 OFFCURVE",
"182 582 CURVE SMOOTH",
"176 365 LINE",
"176 347 LINE SMOOTH",
"176 78 OFFCURVE",
"352 -22 OFFCURVE",
"533 -22 CURVE SMOOTH"
);
}
);
width = 1216;
},
{
anchors = (
{
name = bottom;
position = "{621, 0}";
},
{
name = ogonek;
position = "{1117, 10}";
},
{
name = top;
position = "{621, 1026}";
},
{
name = topright;
position = "{1221, 1026}";
}
);
components = (
{
name = lc_kick;
transform = "{1, 0, 0, 1, 693, 0}";
}
);
layerId = "8183A7D6-F04A-4582-B03C-55CCED69A0BD";
paths = (
{
closed = 1;
nodes = (
"655 -22 OFFCURVE",
"770 50 OFFCURVE",
"818 151 CURVE",
"1018 358 LINE SMOOTH",
"1018 1026 LINE",
"776 1026 LINE",
"776 409 LINE SMOOTH",
"776 237 OFFCURVE",
"694 164 OFFCURVE",
"569 164 CURVE SMOOTH",
"450 164 OFFCURVE",
"380 228.765 OFFCURVE",
"380 377 CURVE SMOOTH",
"380 553 LINE SMOOTH",
"380 880 OFFCURVE",
"364 1026 OFFCURVE",
"364 1026 CURVE",
"116 1026 LINE",
"116 1026 OFFCURVE",
"138 834 OFFCURVE",
"138 524 CURVE SMOOTH",
"138 354 LINE SMOOTH",
"138 129 OFFCURVE",
"273 -22 OFFCURVE",
"497 -22 CURVE SMOOTH"
);
}
);
width = 1241;
}
);
unicode = 0075;
userData = {
com.typemytype.robofont.layerData = {
b = {
anchors = (
);
components = (
);
contours = (
{
points = (
{
segmentType = curve;
smooth = 1;
x = 1023;
y = 1173;
},
{
segmentType = line;
smooth = 1;
x = 1023;
y = 241;
},
{
name = inserted;
x = 1023;
y = 163;
},
{
x = 1054;
y = 124;
},
{
segmentType = curve;
smooth = 1;
x = 1117;
y = 124;
},
{
name = inserted;
x = 1152;
y = 124;
},
{
x = 1181;
y = 128;
},
{
segmentType = curve;
smooth = 0;
x = 1205;
y = 136;
},
{
segmentType = line;
smooth = 0;
x = 1227;
y = 7;
},
{
name = inserted;
x = 1171;
y = -12;
},
{
x = 1116;
y = -21;
},
{
segmentType = curve;
smooth = 1;
x = 1061;
y = -21;
},
{
name = inserted;
x = 946;
y = -21;
},
{
x = 879;
y = 34;
},
{
segmentType = curve;
smooth = 0;
x = 859;
y = 145;
},
{
name = inserted;
x = 709;
y = 34;
},
{
x = 568;
y = -21;
},
{
segmentType = curve;
smooth = 1;
x = 431;
y = -21;
},
{
smooth = 0;
x = 160;
y = -21;
},
{
smooth = 0;
x = 62;
y = 96;
},
{
segmentType = curve;
smooth = 1;
x = 62;
y = 364;
},
{
segmentType = line;
smooth = 0;
x = 62;
y = 1111;
},
{
segmentType = line;
smooth = 0;
x = -89;
y = 1128;
},
{
segmentType = line;
smooth = 0;
x = -89;
y = 1239;
},
{
segmentType = line;
smooth = 1;
x = 158;
y = 1239;
},
{
name = inserted;
x = 207;
y = 1239;
},
{
x = 231;
y = 1217;
},
{
segmentType = curve;
smooth = 1;
x = 231;
y = 1173;
},
{
segmentType = line;
smooth = 1;
x = 231;
y = 364;
},
{
smooth = 0;
x = 231;
y = 183;
},
{
smooth = 0;
x = 289;
y = 108;
},
{
segmentType = curve;
smooth = 1;
x = 446;
y = 108;
},
{
name = inserted;
x = 584;
y = 108;
},
{
x = 718;
y = 164;
},
{
segmentType = curve;
smooth = 0;
x = 855;
y = 276;
},
{
segmentType = line;
smooth = 0;
x = 855;
y = 1111;
},
{
segmentType = line;
smooth = 0;
x = 725;
y = 1128;
},
{
segmentType = line;
smooth = 0;
x = 725;
y = 1239;
},
{
segmentType = line;
smooth = 1;
x = 959;
y = 1239;
},
{
name = inserted;
x = 1002;
y = 1239;
},
{
x = 1023;
y = 1217;
}
);
}
);
lib = {
};
name = u;
unicodes = (
);
width = 1216;
};
};
};
},
{
glyphname = v;
lastChange = "2018-07-25 19:37:42 +0000";
layers = (
{
anchors = (
{
name = bottom;
position = "{530, 0}";
},
{
name = top;
position = "{530, 1026}";
}
);
layerId = "850197A4-73EE-4DD1-A43D-17FCD4749099";
paths = (
{
closed = 1;
nodes = (
"616 0 LINE",
"1014 1026 LINE",
"837 1026 LINE",
"738 739 OFFCURVE",
"626 465 OFFCURVE",
"538 167 CURVE",
"481 353 LINE",
"228 1026 LINE",
"46 1026 LINE",
"448 0 LINE"
);
}
);
width = 1060;
},
{
anchors = (
{
name = bottom;
position = "{513, 0}";
},
{
name = top;
position = "{513, 1026}";
}
);
layerId = "8183A7D6-F04A-4582-B03C-55CCED69A0BD";
paths = (
{
closed = 1;
nodes = (
"632 0 LINE",
"1014 1026 LINE",
"765 1026 LINE",
"686 792 OFFCURVE",
"607 558 OFFCURVE",
"528 325 CURVE",
"438 557 OFFCURVE",
"353 792 OFFCURVE",
"265 1026 CURVE",
"12 1026 LINE",
"430 0 LINE"
);
}
);
width = 1026;
}
);
unicode = 0076;
},
{
glyphname = w;
lastChange = "2018-07-25 19:37:42 +0000";
layers = (
{
anchors = (
{
name = bottom;
position = "{822, 0}";
},
{
name = top;
position = "{822, 1026}";
}
);
layerId = "850197A4-73EE-4DD1-A43D-17FCD4749099";
paths = (
{
closed = 1;
nodes = (
"542 0 LINE",
"834 831 LINE",
"1100 0 LINE",
"1260 0 LINE",
"1610 1026 LINE",
"1441 1026 LINE",
"1219 287 LINE",
"1207 255 OFFCURVE",
"1198 219 OFFCURVE",
"1185 189 CURVE",
"1175 219 OFFCURVE",
"1165 258 OFFCURVE",
"1156 286 CURVE SMOOTH",
"919 1026 LINE",
"760 1026 LINE",
"500 276 LINE",
"488 249 OFFCURVE",
"479 214 OFFCURVE",
"469 186 CURVE",
"459 217 OFFCURVE",
"449 255 OFFCURVE",
"440 284 CURVE SMOOTH",
"209 1026 LINE",
"33 1026 LINE",
"380 0 LINE"
);
}
);
width = 1643;
},
{
anchors = (
{
name = bottom;
position = "{798, 0}";
},
{
name = top;
position = "{798, 1026}";
}
);
layerId = "8183A7D6-F04A-4582-B03C-55CCED69A0BD";
paths = (
{
closed = 1;
nodes = (
"602 0 LINE",
"805 582 LINE",
"1024 0 LINE",
"1218 0 LINE",
"1584 1026 LINE",
"1350 1026 LINE",
"1272 792 OFFCURVE",
"1194 558 OFFCURVE",
"1115 325 CURVE",
"1035 548 OFFCURVE",
"956 772 OFFCURVE",
"876 995 CURVE",
"719 995 LINE",
"646 772 OFFCURVE",
"578 544 OFFCURVE",
"501 325 CURVE",
"419 557 OFFCURVE",
"340 792 OFFCURVE",
"260 1026 CURVE",
"13 1026 LINE",
"402 0 LINE"
);
}
);
width = 1596;
}
);
unicode = 0077;
},
{
glyphname = x;
lastChange = "2018-07-25 19:37:42 +0000";
layers = (
{
anchors = (
{
name = bottom;
position = "{498, 0}";
},
{
name = top;
position = "{498, 1026}";
}
);
layerId = "850197A4-73EE-4DD1-A43D-17FCD4749099";
paths = (
{
closed = 1;
nodes = (
"204 0 LINE",
"501 396 LINE",
"780 0 LINE",
"981 0 LINE",
"598 518 LINE",
"968 1026 LINE",
"789 1026 LINE",
"512 638 LINE",
"235 1026 LINE",
"33 1026 LINE",
"406 514 LINE",
"14 0 LINE"
);
}
);
width = 995;
},
{
anchors = (
{
name = bottom;
position = "{534, 0}";
},
{
name = top;
position = "{534, 1026}";
}
);
layerId = "8183A7D6-F04A-4582-B03C-55CCED69A0BD";
paths = (
{
closed = 1;
nodes = (
"273 0 LINE",
"520 361 LINE",
"758 0 LINE",
"1061 0 LINE",
"680 520 LINE",
"1044 1026 LINE",
"765 1026 LINE",
"556 697 LINE",
"337 1026 LINE",
"52 1026 LINE",
"401 535 LINE",
"7 0 LINE"
);
}
);
width = 1067;
}
);
unicode = 0078;
},
{
glyphname = y;
lastChange = "2018-07-25 19:37:42 +0000";
layers = (
{
anchors = (
{
name = bottom;
position = "{599, 0}";
},
{
name = top;
position = "{599, 1026}";
}
);
layerId = "850197A4-73EE-4DD1-A43D-17FCD4749099";
paths = (
{
closed = 1;
nodes = (
"880 -566 OFFCURVE",
"1041 -309 OFFCURVE",
"1041 9 CURVE SMOOTH",
"1041 1026 LINE",
"871 1026 LINE",
"871 453 LINE SMOOTH",
"871 258 OFFCURVE",
"782 110 OFFCURVE",
"591 110 CURVE",
"563 -22 LINE",
"699 -22 OFFCURVE",
"805 21 OFFCURVE",
"871 136 CURVE",
"871 -12 LINE SMOOTH",
"871 -272 OFFCURVE",
"756 -424 OFFCURVE",
"524 -424 CURVE SMOOTH",
"445 -424 OFFCURVE",
"354 -407 OFFCURVE",
"249 -370 CURVE",
"231 -513 LINE",
"344 -549 OFFCURVE",
"444 -566 OFFCURVE",
"532 -566 CURVE SMOOTH"
);
},
{
closed = 1;
nodes = (
"591 110 LINE",
"477 110 OFFCURVE",
"347 165 OFFCURVE",
"347 354 CURVE SMOOTH",
"347 365 LINE SMOOTH",
"353 595 LINE SMOOTH",
"354 633 OFFCURVE",
"354 667 OFFCURVE",
"354 699 CURVE SMOOTH",
"354 959 OFFCURVE",
"325 1026 OFFCURVE",
"325 1026 CURVE",
"154 1026 LINE",
"154 1026 OFFCURVE",
"183 927 OFFCURVE",
"183 679 CURVE SMOOTH",
"183 649 OFFCURVE",
"183 617 OFFCURVE",
"182 582 CURVE SMOOTH",
"176 365 LINE SMOOTH",
"176 349 LINE SMOOTH",
"176 76 OFFCURVE",
"381 -22 OFFCURVE",
"563 -22 CURVE"
);
}
);
width = 1197;
},
{
anchors = (
{
name = bottom;
position = "{590, 0}";
},
{
name = top;
position = "{590, 1026}";
}
);
layerId = "8183A7D6-F04A-4582-B03C-55CCED69A0BD";
paths = (
{
closed = 1;
nodes = (
"833 -574 OFFCURVE",
"1019 -385 OFFCURVE",
"1019 -16 CURVE SMOOTH",
"1019 417 LINE",
"1018 416 LINE",
"1018 1026 LINE",
"776 1026 LINE",
"776 431 LINE SMOOTH",
"776 259 OFFCURVE",
"694 186 OFFCURVE",
"569 186 CURVE SMOOTH",
"562 186 OFFCURVE",
"555 186 OFFCURVE",
"547 187 CURVE SMOOTH",
"439 194 OFFCURVE",
"380 273 OFFCURVE",
"380 399 CURVE SMOOTH",
"380 553 LINE SMOOTH",
"380 880 OFFCURVE",
"364 1026 OFFCURVE",
"364 1026 CURVE",
"116 1026 LINE",
"116 1026 OFFCURVE",
"138 834 OFFCURVE",
"138 524 CURVE SMOOTH",
"138 376 LINE SMOOTH",
"138 151 OFFCURVE",
"273 0 OFFCURVE",
"497 0 CURVE SMOOTH",
"620 0 OFFCURVE",
"717 44 OFFCURVE",
"777 111 CURVE",
"777 -62 LINE SMOOTH",
"777 -303 OFFCURVE",
"640 -379 OFFCURVE",
"485 -379 CURVE SMOOTH",
"377 -379 OFFCURVE",
"260 -342 OFFCURVE",
"173 -298 CURVE",
"146 -501 LINE",
"286 -550 OFFCURVE",
"412 -574 OFFCURVE",
"523 -574 CURVE SMOOTH"
);
}
);
width = 1180;
}
);
unicode = 0079;
userData = {
com.typemytype.robofont.layerData = {
b = {
anchors = (
);
components = (
);
contours = (
{
points = (
{
segmentType = line;
smooth = 0;
x = 591;
y = 110;
},
{
smooth = 0;
x = 782;
y = 110;
},
{
smooth = 0;
x = 871;
y = 258;
},
{
segmentType = curve;
smooth = 1;
x = 871;
y = 453;
},
{
segmentType = line;
smooth = 0;
x = 871;
y = 1026;
},
{
segmentType = line;
smooth = 0;
x = 1041;
y = 1026;
},
{
segmentType = line;
smooth = 1;
x = 1041;
y = 9;
},
{
smooth = 0;
x = 1041;
y = -309;
},
{
smooth = 0;
x = 880;
y = -566;
},
{
segmentType = curve;
smooth = 1;
x = 532;
y = -566;
},
{
smooth = 0;
x = 444;
y = -566;
},
{
smooth = 0;
x = 344;
y = -549;
},
{
segmentType = curve;
smooth = 0;
x = 231;
y = -513;
},
{
segmentType = line;
smooth = 0;
x = 249;
y = -370;
},
{
smooth = 0;
x = 354;
y = -407;
},
{
smooth = 0;
x = 445;
y = -424;
},
{
segmentType = curve;
smooth = 1;
x = 524;
y = -424;
},
{
smooth = 0;
x = 756;
y = -424;
},
{
smooth = 0;
x = 871;
y = -272;
},
{
segmentType = curve;
smooth = 1;
x = 871;
y = -12;
},
{
segmentType = line;
smooth = 0;
x = 871;
y = 136;
},
{
smooth = 0;
x = 805;
y = 21;
},
{
smooth = 0;
x = 699;
y = -22;
},
{
segmentType = curve;
smooth = 0;
x = 563;
y = -22;
}
);
}
);
lib = {
};
name = y;
unicodes = (
);
width = 1197;
};
};
};
},
{
glyphname = z;
lastChange = "2018-07-25 19:37:42 +0000";
layers = (
{
anchors = (
{
name = bottom;
position = "{491, 0}";
},
{
name = top;
position = "{491, 1026}";
}
);
layerId = "850197A4-73EE-4DD1-A43D-17FCD4749099";
paths = (
{
closed = 1;
nodes = (
"892 0 LINE",
"892 134 LINE",
"332 134 LINE",
"875 939 LINE",
"875 1026 LINE",
"133 1026 LINE",
"133 891 LINE",
"652 891 LINE",
"107 89 LINE",
"107 0 LINE"
);
}
);
width = 982;
},
{
anchors = (
{
name = bottom;
position = "{479, 0}";
},
{
name = top;
position = "{479, 1026}";
}
);
layerId = "8183A7D6-F04A-4582-B03C-55CCED69A0BD";
paths = (
{
closed = 1;
nodes = (
"899 0 LINE",
"899 170 LINE",
"407 170 LINE",
"877 873 LINE",
"877 1026 LINE",
"117 1026 LINE",
"117 856 LINE",
"589 856 LINE",
"111 155 LINE",
"111 0 LINE"
);
}
);
width = 957;
}
);
unicode = 007A;
},
{
glyphname = k.alt.2;
lastChange = "2018-07-25 19:37:42 +0000";
layers = (
{
anchors = (
{
name = bottom;
position = "{563, 0}";
},
{
name = top;
position = "{563, 1560}";
}
);
layerId = "850197A4-73EE-4DD1-A43D-17FCD4749099";
paths = (
{
closed = 1;
nodes = (
"1044 -24 OFFCURVE",
"1075 -17 OFFCURVE",
"1108 -4 CURVE",
"1120 131 LINE",
"1094 117 OFFCURVE",
"1070 110 OFFCURVE",
"1048 110 CURVE SMOOTH",
"960 110 OFFCURVE",
"896 207 OFFCURVE",
"831 295 CURVE SMOOTH",
"671 512 LINE",
"1008 976 LINE",
"860 1026 LINE",
"336 288 LINE",
"336 1526 LINE",
"172 1526 LINE",
"172 60 LINE SMOOTH",
"172 11 OFFCURVE",
"203 -15 OFFCURVE",
"239 -15 CURVE SMOOTH",
"265 -15 OFFCURVE",
"294 -1 OFFCURVE",
"317 27 CURVE",
"582 390 LINE",
"718 206 LINE SMOOTH",
"812 78 OFFCURVE",
"898 -24 OFFCURVE",
"1015 -24 CURVE SMOOTH"
);
}
);
width = 1126;
},
{
anchors = (
{
name = bottom;
position = "{300, 0}";
},
{
name = top;
position = "{300, 1560}";
}
);
layerId = "8183A7D6-F04A-4582-B03C-55CCED69A0BD";
paths = (
{
closed = 1;
nodes = (
"1049 -23 OFFCURVE",
"1090 -12 OFFCURVE",
"1130 3 CURVE",
"1167 195 LINE",
"1127 184 OFFCURVE",
"1099 176 OFFCURVE",
"1075 176 CURVE SMOOTH",
"1031 176 OFFCURVE",
"1000 203 OFFCURVE",
"932 290 CURVE",
"762 539 LINE",
"1046 965 LINE",
"824 1026 LINE",
"404 389 LINE",
"404 1470 LINE",
"162 1470 LINE",
"162 102 LINE SMOOTH",
"162 24 OFFCURVE",
"217 -20 OFFCURVE",
"277 -20 CURVE SMOOTH",
"317 -20 OFFCURVE",
"360 -1 OFFCURVE",
"390 42 CURVE SMOOTH",
"618 362 LINE",
"780 123 LINE",
"856 15 OFFCURVE",
"932 -23 OFFCURVE",
"1009 -23 CURVE SMOOTH"
);
}
);
width = 1171;
}
);
},
{
glyphname = f.alt;
lastChange = "2018-07-25 19:37:42 +0000";
layers = (
{
anchors = (
{
name = bottom;
position = "{356, 0}";
},
{
name = top;
position = "{356, 1560}";
}
);
layerId = "850197A4-73EE-4DD1-A43D-17FCD4749099";
paths = (
{
closed = 1;
nodes = (
"403 -393 OFFCURVE",
"425 -215 OFFCURVE",
"425 -83 CURVE SMOOTH",
"425 919 LINE",
"671 919 LINE",
"671 1026 LINE",
"425 1026 LINE",
"425 1196 LINE SMOOTH",
"425 1393 OFFCURVE",
"542 1406 OFFCURVE",
"721 1406 CURVE",
"721 1526 LINE",
"667 1526 LINE SMOOTH",
"404 1526 OFFCURVE",
"266 1447 OFFCURVE",
"266 1194 CURVE SMOOTH",
"266 1026 LINE",
"64 1026 LINE",
"64 919 LINE",
"266 919 LINE",
"266 -76 LINE SMOOTH",
"266 -227 OFFCURVE",
"239 -255 OFFCURVE",
"153 -269 CURVE",
"173 -404 LINE"
);
}
);
width = 711;
},
{
anchors = (
{
name = bottom;
position = "{380, 0}";
},
{
name = top;
position = "{380, 1560}";
}
);
layerId = "8183A7D6-F04A-4582-B03C-55CCED69A0BD";
paths = (
{
closed = 1;
nodes = (
"370 -410 OFFCURVE",
"501 -273 OFFCURVE",
"501 -11 CURVE SMOOTH",
"501 862 LINE",
"731 862 LINE",
"731 1026 LINE",
"501 1026 LINE",
"501 1061 LINE SMOOTH",
"501 1223 OFFCURVE",
"538 1292 OFFCURVE",
"696 1292 CURVE SMOOTH",
"781 1292 LINE",
"781 1480 LINE",
"678 1480 LINE SMOOTH",
"405 1480 OFFCURVE",
"259 1386 OFFCURVE",
"259 1096 CURVE SMOOTH",
"259 1026 LINE",
"73 1026 LINE",
"73 862 LINE",
"259 862 LINE",
"259 -19 LINE SMOOTH",
"259 -155 OFFCURVE",
"210 -213 OFFCURVE",
"80 -213 CURVE",
"101 -410 LINE"
);
}
);
width = 760;
}
);
},
{
glyphname = k.alt;
lastChange = "2018-07-25 19:46:40 +0000";
layers = (
{
anchors = (
{
name = bottom;
position = "{534, 0}";
},
{
name = top;
position = "{534, 1560}";
}
);
layerId = "850197A4-73EE-4DD1-A43D-17FCD4749099";
paths = (
{
closed = 1;
nodes = (
"313 0 LINE",
"602 445 LINE",
"872 0 LINE",
"1053 0 LINE",
"689 580 LINE",
"985 1026 LINE",
"808 1026 LINE",
"351 308 LINE",
"351 1526 LINE",
"188 1526 LINE",
"188 0 LINE"
);
}
);
width = 1068;
},
{
anchors = (
{
name = bottom;
position = "{586, 0}";
},
{
name = top;
position = "{586, 1560}";
}
);
background = {
components = (
{
name = k;
}
);
};
layerId = "8183A7D6-F04A-4582-B03C-55CCED69A0BD";
paths = (
{
closed = 1;
nodes = (
"335 0 LINE",
"601 389 LINE",
"849 0 LINE",
"1110 0 LINE",
"729 577 LINE",
"1044 1026 LINE",
"786 1026 LINE",
"321 333 LINE",
"387 319 LINE",
"387 1560 LINE",
"152 1560 LINE",
"152 0 LINE"
);
}
);
width = 1171;
}
);
},
{
glyphname = ordmasculine;
lastChange = "2018-07-25 19:37:42 +0000";
layers = (
{
layerId = "850197A4-73EE-4DD1-A43D-17FCD4749099";
paths = (
{
closed = 1;
nodes = (
"757 771 OFFCURVE",
"903 896 OFFCURVE",
"903 1125 CURVE SMOOTH",
"903 1326 OFFCURVE",
"775 1480 OFFCURVE",
"548 1480 CURVE SMOOTH",
"341 1480 OFFCURVE",
"191 1357 OFFCURVE",
"191 1128 CURVE SMOOTH",
"191 905 OFFCURVE",
"329 771 OFFCURVE",
"549 771 CURVE SMOOTH"
);
},
{
closed = 1;
nodes = (
"407 879 OFFCURVE",
"331 981 OFFCURVE",
"331 1127 CURVE SMOOTH",
"331 1268 OFFCURVE",
"409 1373 OFFCURVE",
"546 1373 CURVE SMOOTH",
"686 1373 OFFCURVE",
"765 1268 OFFCURVE",
"765 1123 CURVE SMOOTH",
"765 983 OFFCURVE",
"686 879 OFFCURVE",
"549 879 CURVE SMOOTH"
);
}
);
width = 1094;
},
{
layerId = "8183A7D6-F04A-4582-B03C-55CCED69A0BD";
paths = (
{
closed = 1;
nodes = (
"831 647 OFFCURVE",
"994 798 OFFCURVE",
"994 1062 CURVE SMOOTH",
"994 1295 OFFCURVE",
"842 1480 OFFCURVE",
"590 1480 CURVE SMOOTH",
"343 1480 OFFCURVE",
"182 1328 OFFCURVE",
"182 1066 CURVE SMOOTH",
"182 805 OFFCURVE",
"343 647 OFFCURVE",
"590 647 CURVE SMOOTH"
);
},
{
closed = 1;
nodes = (
"434 773 OFFCURVE",
"346 894 OFFCURVE",
"346 1065 CURVE SMOOTH",
"346 1231 OFFCURVE",
"436 1354 OFFCURVE",
"587 1354 CURVE SMOOTH",
"740 1354 OFFCURVE",
"832 1231 OFFCURVE",
"832 1061 CURVE SMOOTH",
"832 896 OFFCURVE",
"739 773 OFFCURVE",
"590 773 CURVE SMOOTH"
);
}
);
width = 1176;
}
);
unicode = 00BA;
},
{
glyphname = Delta;
lastChange = "2018-07-25 19:37:42 +0000";
layers = (
{
layerId = "850197A4-73EE-4DD1-A43D-17FCD4749099";
paths = (
{
closed = 1;
nodes = (
"1244 0 LINE",
"1244 80 LINE",
"735 1456 LINE",
"560 1456 LINE",
"50 80 LINE",
"50 0 LINE"
);
},
{
closed = 1;
nodes = (
"612 1187 LINE",
"643 1294 LINE",
"675 1187 LINE",
"1050 135 LINE",
"245 135 LINE"
);
}
);
width = 1294;
},
{
layerId = "8183A7D6-F04A-4582-B03C-55CCED69A0BD";
paths = (
{
closed = 1;
nodes = (
"1517 0 LINE",
"1517 94 LINE",
"906 1678 LINE",
"692 1678 LINE",
"81 94 LINE",
"81 0 LINE"
);
},
{
closed = 1;
nodes = (
"756 1305 LINE",
"793 1430 LINE",
"833 1305 LINE",
"1247 190 LINE",
"350 190 LINE"
);
}
);
width = 2324;
}
);
unicode = "0394,03B4";
},
{
glyphname = Omega;
lastChange = "2018-07-26 15:30:43 +0000";
layers = (
{
anchors = (
{
name = bottom;
position = "{786, 0}";
},
{
name = topleft;
position = "{20, 1560}";
}
);
layerId = "850197A4-73EE-4DD1-A43D-17FCD4749099";
paths = (
{
closed = 1;
nodes = (
"641 0 LINE",
"638 121 LINE",
"454 246 OFFCURVE",
"303 477 OFFCURVE",
"303 790 CURVE SMOOTH",
"303 1093 OFFCURVE",
"468 1330 OFFCURVE",
"794 1330 CURVE SMOOTH",
"1094 1330 OFFCURVE",
"1273 1126 OFFCURVE",
"1273 785 CURVE SMOOTH",
"1273 509 OFFCURVE",
"1123 253 OFFCURVE",
"933 121 CURVE",
"937 0 LINE",
"1444 0 LINE",
"1453 138 LINE",
"1131 137 LINE",
"1297 273 OFFCURVE",
"1451 497 OFFCURVE",
"1451 803 CURVE SMOOTH",
"1451 1221 OFFCURVE",
"1212 1480 OFFCURVE",
"798 1480 CURVE SMOOTH",
"383 1480 OFFCURVE",
"124 1236 OFFCURVE",
"124 807 CURVE SMOOTH",
"124 524 OFFCURVE",
"262 273 OFFCURVE",
"439 137 CURVE",
"103 138 LINE",
"114 0 LINE"
);
}
);
width = 1572;
},
{
layerId = "8183A7D6-F04A-4582-B03C-55CCED69A0BD";
paths = (
{
closed = 1;
nodes = (
"782 0 LINE",
"778 142 LINE",
"723 182 OFFCURVE",
"674 229 OFFCURVE",
"628 282 CURVE SMOOTH",
"508 424 OFFCURVE",
"408 624 OFFCURVE",
"408 891 CURVE SMOOTH",
"408 986 OFFCURVE",
"422 1073 OFFCURVE",
"448 1153 CURVE SMOOTH",
"521 1371 OFFCURVE",
"686 1537 OFFCURVE",
"950 1537 CURVE SMOOTH",
"1038 1537 OFFCURVE",
"1116 1519 OFFCURVE",
"1182 1484 CURVE SMOOTH",
"1363 1387 OFFCURVE",
"1480 1179 OFFCURVE",
"1480 885 CURVE SMOOTH",
"1480 807 OFFCURVE",
"1470 730 OFFCURVE",
"1450 658 CURVE",
"1392 431 OFFCURVE",
"1263 260 OFFCURVE",
"1104 142 CURVE",
"1109 0 LINE",
"1680 0 LINE",
"1691 163 LINE",
"1322 161 LINE",
"1414 242 OFFCURVE",
"1503 347 OFFCURVE",
"1571 467 CURVE",
"1636 585 OFFCURVE",
"1688 729 OFFCURVE",
"1688 906 CURVE SMOOTH",
"1688 1150 OFFCURVE",
"1601 1342 OFFCURVE",
"1476 1472 CURVE",
"1360 1606 OFFCURVE",
"1185 1702 OFFCURVE",
"955 1702 CURVE SMOOTH",
"729 1702 OFFCURVE",
"550 1613 OFFCURVE",
"429 1487 CURVE",
"295 1359 OFFCURVE",
"198 1167 OFFCURVE",
"198 911 CURVE SMOOTH",
"198 830 OFFCURVE",
"208 752 OFFCURVE",
"227 679 CURVE SMOOTH",
"283 452 OFFCURVE",
"411 282 OFFCURVE",
"559 161 CURVE",
"173 163 LINE",
"186 0 LINE"
);
}
);
width = 2716;
}
);
unicode = "03A9,03C9";
},
{
glyphname = mu;
lastChange = "2018-07-26 15:30:38 +0000";
layers = (
{
layerId = "850197A4-73EE-4DD1-A43D-17FCD4749099";
paths = (
{
closed = 1;
nodes = (
"342 -202 LINE",
"342 26 LINE",
"401 -8 OFFCURVE",
"471 -22 OFFCURVE",
"541 -22 CURVE SMOOTH",
"693 -22 OFFCURVE",
"806 37 OFFCURVE",
"881 161 CURVE",
"911 32 OFFCURVE",
"1005 -14 OFFCURVE",
"1142 -14 CURVE",
"1171 121 LINE",
"1045 121 OFFCURVE",
"1026 182 OFFCURVE",
"1026 328 CURVE SMOOTH",
"1026 1026 LINE",
"862 1026 LINE",
"862 482 LINE SMOOTH",
"862 259 OFFCURVE",
"726 114 OFFCURVE",
"561 114 CURVE SMOOTH",
"448 114 OFFCURVE",
"344 165 OFFCURVE",
"344 352 CURVE SMOOTH",
"344 365 LINE SMOOTH",
"350 595 LINE SMOOTH",
"351 616 OFFCURVE",
"351 636 OFFCURVE",
"351 656 CURVE SMOOTH",
"351 951 OFFCURVE",
"291 1026 OFFCURVE",
"291 1026 CURVE",
"126 1000 LINE",
"126 1000 OFFCURVE",
"186 913 OFFCURVE",
"186 639 CURVE SMOOTH",
"186 621 OFFCURVE",
"186 602 OFFCURVE",
"185 582 CURVE SMOOTH",
"187 -202 LINE"
);
}
);
width = 1239;
},
{
layerId = "8183A7D6-F04A-4582-B03C-55CCED69A0BD";
paths = (
{
closed = 1;
nodes = (
"480 -356 LINE",
"480 -83 LINE",
"547 -123 OFFCURVE",
"630 -145 OFFCURVE",
"737 -145 CURVE SMOOTH",
"911 -145 OFFCURVE",
"1043 -83 OFFCURVE",
"1133 40 CURVE",
"1137 -119 LINE",
"1336 -119 LINE",
"1328 -20 OFFCURVE",
"1327 64 OFFCURVE",
"1327 170 CURVE SMOOTH",
"1327 1086 LINE",
"1133 1086 LINE",
"1133 393 LINE SMOOTH",
"1133 341 OFFCURVE",
"1125 292 OFFCURVE",
"1110 245 CURVE SMOOTH",
"1065 111 OFFCURVE",
"958 9 OFFCURVE",
"781 9 CURVE SMOOTH",
"567 9 OFFCURVE",
"480 132 OFFCURVE",
"480 350 CURVE SMOOTH",
"480 1086 LINE",
"287 1086 LINE",
"287 -356 LINE"
);
}
);
width = 2153;
}
);
unicode = 03BC;
},
{
glyphname = pi;
lastChange = "2018-07-25 19:37:42 +0000";
layers = (
{
layerId = "850197A4-73EE-4DD1-A43D-17FCD4749099";
paths = (
{
closed = 1;
nodes = (
"1099 -22 OFFCURVE",
"1144 -16 OFFCURVE",
"1189 -8 CURVE",
"1179 114 LINE",
"1150 105 OFFCURVE",
"1124 101 OFFCURVE",
"1099 101 CURVE SMOOTH",
"1015 101 OFFCURVE",
"1001 160 OFFCURVE",
"1001 242 CURVE SMOOTH",
"1001 893 LINE",
"1205 893 LINE",
"1205 1026 LINE",
"420 1026 LINE SMOOTH",
"278 1026 OFFCURVE",
"156 993 OFFCURVE",
"77 933 CURVE",
"107 782 LINE",
"174 854 OFFCURVE",
"281 893 OFFCURVE",
"375 893 CURVE",
"375 655 OFFCURVE",
"293 216 OFFCURVE",
"170 0 CURVE",
"351 0 LINE",
"443 161 OFFCURVE",
"527 618 OFFCURVE",
"527 893 CURVE",
"842 893 LINE",
"842 265 LINE SMOOTH",
"842 90 OFFCURVE",
"879 -22 OFFCURVE",
"1052 -22 CURVE SMOOTH"
);
}
);
width = 1278;
},
{
layerId = "8183A7D6-F04A-4582-B03C-55CCED69A0BD";
paths = (
{
closed = 1;
nodes = (
"1256 -14 OFFCURVE",
"1309 -6 OFFCURVE",
"1362 3 CURVE",
"1350 37 OFFCURVE",
"1347 72 OFFCURVE",
"1347 113 CURVE SMOOTH",
"1347 125 OFFCURVE",
"1347 137 OFFCURVE",
"1348 148 CURVE SMOOTH",
"1350 183 LINE",
"1316 173 OFFCURVE",
"1285 168 OFFCURVE",
"1256 168 CURVE SMOOTH",
"1158 168 OFFCURVE",
"1140 238 OFFCURVE",
"1140 334 CURVE",
"1129 1060 LINE",
"1369 1060 LINE",
"1369 1217 LINE",
"444 1217 LINE SMOOTH",
"287 1217 OFFCURVE",
"133 1214 OFFCURVE",
"40 1143 CURVE",
"60 989 LINE",
"150 1037 OFFCURVE",
"247 1057 OFFCURVE",
"379 1060 CURVE",
"374 862 OFFCURVE",
"364 661 OFFCURVE",
"341 478 CURVE SMOOTH",
"320 304 OFFCURVE",
"293 119 OFFCURVE",
"222 -4 CURVE",
"412 -4 LINE",
"426 20 OFFCURVE",
"438 55 OFFCURVE",
"449 99 CURVE SMOOTH",
"519 389 OFFCURVE",
"538 722 OFFCURVE",
"561 1060 CURVE",
"955 1060 LINE",
"955 322 LINE SMOOTH",
"955 117 OFFCURVE",
"998 -14 OFFCURVE",
"1201 -14 CURVE SMOOTH"
);
}
);
width = 2201;
}
);
unicode = 03C0;
},
{
glyphname = zero;
lastChange = "2018-07-25 19:37:42 +0000";
layers = (
{
layerId = "850197A4-73EE-4DD1-A43D-17FCD4749099";
paths = (
{
closed = 1;
nodes = (
"1022 -24 OFFCURVE",
"1154 361 OFFCURVE",
"1154 786 CURVE SMOOTH",
"1154 1213 OFFCURVE",
"1048 1586 OFFCURVE",
"656 1586 CURVE SMOOTH",
"284 1586 OFFCURVE",
"162 1199 OFFCURVE",
"162 786 CURVE SMOOTH",
"162 355 OFFCURVE",
"281 -24 OFFCURVE",
"656 -24 CURVE SMOOTH"
);
},
{
closed = 1;
nodes = (
"383 126 OFFCURVE",
"346 499 OFFCURVE",
"346 786 CURVE SMOOTH",
"346 1060 OFFCURVE",
"401 1436 OFFCURVE",
"656 1436 CURVE SMOOTH",
"928 1436 OFFCURVE",
"970 1072 OFFCURVE",
"970 786 CURVE SMOOTH",
"970 516 OFFCURVE",
"907 126 OFFCURVE",
"656 126 CURVE SMOOTH"
);
}
);
width = 1316;
},
{
layerId = "8183A7D6-F04A-4582-B03C-55CCED69A0BD";
paths = (
{
closed = 1;
nodes = (
"989 -24 OFFCURVE",
"1175 290 OFFCURVE",
"1175 728 CURVE SMOOTH",
"1175 1172 OFFCURVE",
"989 1480 OFFCURVE",
"640 1480 CURVE SMOOTH",
"293 1480 OFFCURVE",
"107 1172 OFFCURVE",
"107 728 CURVE SMOOTH",
"107 290 OFFCURVE",
"293 -24 OFFCURVE",
"640 -24 CURVE SMOOTH"
);
},
{
closed = 1;
nodes = (
"441 184 OFFCURVE",
"345 413 OFFCURVE",
"345 731 CURVE SMOOTH",
"345 1055 OFFCURVE",
"441 1272 OFFCURVE",
"639 1272 CURVE SMOOTH",
"834 1272 OFFCURVE",
"937 1055 OFFCURVE",
"937 731 CURVE SMOOTH",
"937 413 OFFCURVE",
"834 184 OFFCURVE",
"639 184 CURVE SMOOTH"
);
}
);
width = 1282;
}
);
unicode = 0030;
},
{
glyphname = one;
lastChange = "2018-07-25 19:37:42 +0000";
layers = (
{
layerId = "850197A4-73EE-4DD1-A43D-17FCD4749099";
paths = (
{
closed = 1;
nodes = (
"474 0 LINE",
"474 1560 LINE",
"302 1560 LINE",
"302 0 LINE"
);
}
);
width = 775;
},
{
layerId = "8183A7D6-F04A-4582-B03C-55CCED69A0BD";
paths = (
{
closed = 1;
nodes = (
"766 0 LINE",
"766 1456 LINE",
"516 1456 LINE",
"516 0 LINE"
);
}
);
width = 1282;
}
);
unicode = 0031;
},
{
glyphname = two;
lastChange = "2018-07-25 19:37:42 +0000";
layers = (
{
layerId = "850197A4-73EE-4DD1-A43D-17FCD4749099";
paths = (
{
closed = 1;
nodes = (
"1060 0 LINE",
"1060 144 LINE",
"448 144 LINE",
"811 605 LINE SMOOTH",
"977 815 OFFCURVE",
"1059 948 OFFCURVE",
"1059 1152 CURVE SMOOTH",
"1059 1422 OFFCURVE",
"885 1586 OFFCURVE",
"618 1586 CURVE SMOOTH",
"360 1586 OFFCURVE",
"191 1369 OFFCURVE",
"191 1369 CURVE",
"289 1241 LINE SMOOTH",
"290 1240 OFFCURVE",
"424 1436 OFFCURVE",
"621 1436 CURVE SMOOTH",
"788 1436 OFFCURVE",
"889 1324 OFFCURVE",
"889 1157 CURVE SMOOTH",
"889 1022 OFFCURVE",
"840 902 OFFCURVE",
"701 725 CURVE SMOOTH",
"237 135 LINE",
"237 0 LINE"
);
}
);
width = 1316;
},
{
layerId = "8183A7D6-F04A-4582-B03C-55CCED69A0BD";
paths = (
{
closed = 1;
nodes = (
"1074 0 LINE",
"1074 200 LINE",
"529 200 LINE",
"830 543 LINE SMOOTH",
"976 709 OFFCURVE",
"1087 863 OFFCURVE",
"1087 1027 CURVE SMOOTH",
"1087 1336 OFFCURVE",
"858 1480 OFFCURVE",
"627 1480 CURVE SMOOTH",
"462 1480 OFFCURVE",
"275 1404 OFFCURVE",
"161 1246 CURVE",
"317 1112 LINE",
"407 1215 OFFCURVE",
"504 1272 OFFCURVE",
"606 1272 CURVE SMOOTH",
"743 1272 OFFCURVE",
"838 1178 OFFCURVE",
"838 1041 CURVE SMOOTH",
"838 940 OFFCURVE",
"784 815 OFFCURVE",
"667 685 CURVE SMOOTH",
"222 192 LINE",
"222 0 LINE"
);
}
);
width = 1282;
}
);
unicode = 0032;
},
{
glyphname = three;
lastChange = "2018-07-25 19:37:42 +0000";
layers = (
{
layerId = "850197A4-73EE-4DD1-A43D-17FCD4749099";
paths = (
{
closed = 1;
nodes = (
"907 -24 OFFCURVE",
"1120 128 OFFCURVE",
"1120 434 CURVE SMOOTH",
"1120 623 OFFCURVE",
"1008 780 OFFCURVE",
"818 819 CURVE",
"980 867 OFFCURVE",
"1066 1022 OFFCURVE",
"1066 1185 CURVE SMOOTH",
"1066 1446 OFFCURVE",
"858 1586 OFFCURVE",
"626 1586 CURVE SMOOTH",
"464 1586 OFFCURVE",
"288 1523 OFFCURVE",
"185 1400 CURVE",
"281 1291 LINE",
"380 1391 OFFCURVE",
"487 1435 OFFCURVE",
"630 1435 CURVE SMOOTH",
"786 1435 OFFCURVE",
"901 1345 OFFCURVE",
"901 1179 CURVE SMOOTH",
"901 990 OFFCURVE",
"778 884 OFFCURVE",
"552 884 CURVE SMOOTH",
"488 884 LINE",
"488 736 LINE",
"566 736 LINE SMOOTH",
"805 736 OFFCURVE",
"944 639 OFFCURVE",
"950 446 CURVE SMOOTH",
"950 430 LINE SMOOTH",
"950 245 OFFCURVE",
"844 125 OFFCURVE",
"646 125 CURVE SMOOTH",
"538 125 OFFCURVE",
"413 159 OFFCURVE",
"288 225 CURVE",
"235 85 LINE",
"350 16 OFFCURVE",
"515 -24 OFFCURVE",
"658 -24 CURVE SMOOTH"
);
}
);
width = 1316;
},
{
layerId = "8183A7D6-F04A-4582-B03C-55CCED69A0BD";
paths = (
{
closed = 1;
nodes = (
"884 -24 OFFCURVE",
"1103 132 OFFCURVE",
"1103 407 CURVE SMOOTH",
"1103 658 OFFCURVE",
"931 749 OFFCURVE",
"834 768 CURVE",
"927 795 OFFCURVE",
"1060 894 OFFCURVE",
"1060 1090 CURVE SMOOTH",
"1060 1358 OFFCURVE",
"836 1480 OFFCURVE",
"602 1480 CURVE SMOOTH",
"447 1480 OFFCURVE",
"300 1437 OFFCURVE",
"171 1317 CURVE",
"283 1160 LINE",
"367 1242 OFFCURVE",
"498 1272 OFFCURVE",
"597 1272 CURVE SMOOTH",
"712 1272 OFFCURVE",
"823 1207 OFFCURVE",
"823 1060 CURVE SMOOTH",
"823 872 OFFCURVE",
"645 848 OFFCURVE",
"526 848 CURVE SMOOTH",
"435 848 LINE",
"435 652 LINE",
"540 652 LINE SMOOTH",
"714 652 OFFCURVE",
"867 619 OFFCURVE",
"867 410 CURVE SMOOTH",
"867 279 OFFCURVE",
"767 184 OFFCURVE",
"623 184 CURVE SMOOTH",
"508 184 OFFCURVE",
"396 210 OFFCURVE",
"276 288 CURVE",
"184 112 LINE",
"320 17 OFFCURVE",
"446 -24 OFFCURVE",
"627 -24 CURVE SMOOTH"
);
}
);
width = 1282;
}
);
unicode = 0033;
},
{
glyphname = four;
lastChange = "2018-07-25 19:37:42 +0000";
layers = (
{
layerId = "850197A4-73EE-4DD1-A43D-17FCD4749099";
paths = (
{
closed = 1;
nodes = (
"930 0 LINE",
"930 370 LINE",
"1158 370 LINE",
"1158 509 LINE",
"929 509 LINE",
"929 868 LINE",
"787 868 LINE",
"787 509 LINE",
"350 509 LINE",
"764 1560 LINE",
"596 1560 LINE",
"161 499 LINE",
"161 370 LINE",
"787 370 LINE",
"787 0 LINE"
);
}
);
width = 1316;
},
{
layerId = "8183A7D6-F04A-4582-B03C-55CCED69A0BD";
paths = (
{
closed = 1;
nodes = (
"982 0 LINE",
"982 327 LINE",
"1179 327 LINE",
"1179 518 LINE",
"982 518 LINE",
"982 868 LINE",
"772 868 LINE",
"772 518 LINE",
"415 518 LINE",
"743 1456 LINE",
"520 1456 LINE",
"154 504 LINE",
"154 327 LINE",
"772 327 LINE",
"772 0 LINE"
);
}
);
width = 1282;
}
);
unicode = 0034;
},
{
glyphname = five;
lastChange = "2018-07-25 19:37:42 +0000";
layers = (
{
layerId = "850197A4-73EE-4DD1-A43D-17FCD4749099";
paths = (
{
closed = 1;
nodes = (
"974 -24 OFFCURVE",
"1145 198 OFFCURVE",
"1145 470 CURVE SMOOTH",
"1145 740 OFFCURVE",
"971 944 OFFCURVE",
"721 944 CURVE SMOOTH",
"626 944 OFFCURVE",
"502 896 OFFCURVE",
"440 830 CURVE",
"461 1410 LINE",
"1039 1410 LINE",
"1039 1560 LINE",
"308 1560 LINE",
"293 714 LINE",
"450 672 LINE",
"491 734 OFFCURVE",
"589 796 OFFCURVE",
"713 796 CURVE SMOOTH",
"889 796 OFFCURVE",
"983 637 OFFCURVE",
"983 472 CURVE SMOOTH",
"983 271 OFFCURVE",
"866 123 OFFCURVE",
"664 123 CURVE SMOOTH",
"545 123 OFFCURVE",
"410 171 OFFCURVE",
"302 295 CURVE",
"211 179 LINE",
"330 46 OFFCURVE",
"505 -24 OFFCURVE",
"666 -24 CURVE SMOOTH"
);
}
);
width = 1316;
},
{
layerId = "8183A7D6-F04A-4582-B03C-55CCED69A0BD";
paths = (
{
closed = 1;
nodes = (
"907 -24 OFFCURVE",
"1141 138 OFFCURVE",
"1141 466 CURVE SMOOTH",
"1141 806 OFFCURVE",
"924 929 OFFCURVE",
"735 929 CURVE SMOOTH",
"612 929 OFFCURVE",
"550 885 OFFCURVE",
"508 851 CURVE",
"522 1257 LINE",
"1032 1257 LINE",
"1032 1456 LINE",
"300 1456 LINE",
"300 644 LINE",
"475 644 LINE",
"542 717 OFFCURVE",
"607 733 OFFCURVE",
"680 733 CURVE",
"793 731 OFFCURVE",
"899 639 OFFCURVE",
"899 459 CURVE SMOOTH",
"899 313 OFFCURVE",
"799 184 OFFCURVE",
"642 184 CURVE SMOOTH",
"506 184 OFFCURVE",
"413 240 OFFCURVE",
"322 322 CURVE",
"232 133 LINE",
"358 29 OFFCURVE",
"484 -24 OFFCURVE",
"657 -24 CURVE SMOOTH"
);
}
);
width = 1282;
}
);
unicode = 0035;
},
{
glyphname = six;
lastChange = "2018-07-25 19:37:42 +0000";
layers = (
{
layerId = "850197A4-73EE-4DD1-A43D-17FCD4749099";
paths = (
{
closed = 1;
nodes = (
"955 -24 OFFCURVE",
"1151 175 OFFCURVE",
"1151 464 CURVE SMOOTH",
"1151 754 OFFCURVE",
"974 946 OFFCURVE",
"710 946 CURVE SMOOTH",
"604 946 OFFCURVE",
"433 903 OFFCURVE",
"368 781 CURVE",
"408 1082 OFFCURVE",
"574 1352 OFFCURVE",
"951 1452 CURVE",
"915 1587 LINE",
"353 1451 OFFCURVE",
"185 960 OFFCURVE",
"185 585 CURVE SMOOTH",
"185 249 OFFCURVE",
"313 -24 OFFCURVE",
"686 -24 CURVE SMOOTH"
);
},
{
closed = 1;
nodes = (
"465 126 OFFCURVE",
"355 263 OFFCURVE",
"355 492 CURVE SMOOTH",
"355 683 OFFCURVE",
"505 802 OFFCURVE",
"690 802 CURVE SMOOTH",
"895 802 OFFCURVE",
"984 652 OFFCURVE",
"984 459 CURVE SMOOTH",
"984 254 OFFCURVE",
"858 126 OFFCURVE",
"681 126 CURVE SMOOTH"
);
}
);
width = 1316;
},
{
layerId = "8183A7D6-F04A-4582-B03C-55CCED69A0BD";
paths = (
{
closed = 1;
nodes = (
"915 -24 OFFCURVE",
"1166 140 OFFCURVE",
"1166 468 CURVE SMOOTH",
"1166 769 OFFCURVE",
"947 937 OFFCURVE",
"729 939 CURVE SMOOTH",
"725 939 LINE SMOOTH",
"626 939 OFFCURVE",
"528 904 OFFCURVE",
"451 832 CURVE",
"519 1098 OFFCURVE",
"695 1242 OFFCURVE",
"976 1328 CURVE",
"900 1530 LINE",
"332 1370 OFFCURVE",
"174 955 OFFCURVE",
"174 537 CURVE SMOOTH",
"174 134 OFFCURVE",
"439 -24 OFFCURVE",
"685 -24 CURVE SMOOTH"
);
},
{
closed = 1;
nodes = (
"550 180 OFFCURVE",
"421 273 OFFCURVE",
"421 455 CURVE SMOOTH",
"421 653 OFFCURVE",
"558 736 OFFCURVE",
"685 736 CURVE SMOOTH",
"814 736 OFFCURVE",
"933 649 OFFCURVE",
"933 453 CURVE SMOOTH",
"933 272 OFFCURVE",
"805 180 OFFCURVE",
"678 180 CURVE SMOOTH"
);
}
);
width = 1282;
}
);
unicode = 0036;
},
{
glyphname = seven;
lastChange = "2018-07-25 19:37:42 +0000";
layers = (
{
layerId = "850197A4-73EE-4DD1-A43D-17FCD4749099";
paths = (
{
closed = 1;
nodes = (
"593 0 LINE",
"1131 1469 LINE",
"1131 1560 LINE",
"209 1560 LINE",
"209 1415 LINE",
"931 1415 LINE",
"407 0 LINE"
);
}
);
width = 1316;
},
{
layerId = "8183A7D6-F04A-4582-B03C-55CCED69A0BD";
paths = (
{
closed = 1;
nodes = (
"676 0 LINE",
"1138 1275 LINE",
"1138 1456 LINE",
"230 1456 LINE",
"230 1257 LINE",
"887 1257 LINE",
"418 0 LINE"
);
}
);
width = 1282;
}
);
unicode = 0037;
},
{
glyphname = eight;
lastChange = "2018-07-25 19:37:42 +0000";
layers = (
{
layerId = "850197A4-73EE-4DD1-A43D-17FCD4749099";
paths = (
{
closed = 1;
nodes = (
"922 -24 OFFCURVE",
"1132 120 OFFCURVE",
"1132 396 CURVE SMOOTH",
"1132 609 OFFCURVE",
"994 770 OFFCURVE",
"821 823 CURVE",
"973 872 OFFCURVE",
"1097 1004 OFFCURVE",
"1097 1197 CURVE SMOOTH",
"1097 1421 OFFCURVE",
"916 1586 OFFCURVE",
"657 1586 CURVE SMOOTH",
"431 1586 OFFCURVE",
"219 1457 OFFCURVE",
"219 1197 CURVE SMOOTH",
"219 1004 OFFCURVE",
"334 872 OFFCURVE",
"486 823 CURVE",
"313 770 OFFCURVE",
"184 609 OFFCURVE",
"184 396 CURVE SMOOTH",
"184 152 OFFCURVE",
"381 -24 OFFCURVE",
"657 -24 CURVE SMOOTH"
);
},
{
closed = 1;
nodes = (
"484 114 OFFCURVE",
"361 224 OFFCURVE",
"361 403 CURVE SMOOTH",
"361 606 OFFCURVE",
"494 728 OFFCURVE",
"657 762 CURVE",
"808 730 OFFCURVE",
"955 620 OFFCURVE",
"955 403 CURVE SMOOTH",
"955 232 OFFCURVE",
"839 114 OFFCURVE",
"657 114 CURVE SMOOTH"
);
},
{
closed = 1;
nodes = (
"506 918 OFFCURVE",
"384 1010 OFFCURVE",
"384 1199 CURVE SMOOTH",
"384 1342 OFFCURVE",
"496 1454 OFFCURVE",
"657 1454 CURVE SMOOTH",
"807 1454 OFFCURVE",
"932 1355 OFFCURVE",
"932 1199 CURVE SMOOTH",
"932 1010 OFFCURVE",
"808 918 OFFCURVE",
"657 889 CURVE"
);
}
);
width = 1316;
},
{
layerId = "8183A7D6-F04A-4582-B03C-55CCED69A0BD";
paths = (
{
closed = 1;
nodes = (
"983 -24 OFFCURVE",
"1108 156 OFFCURVE",
"1108 353 CURVE SMOOTH",
"1108 513 OFFCURVE",
"1013 649 OFFCURVE",
"824 761 CURVE",
"984 866 OFFCURVE",
"1077 980 OFFCURVE",
"1077 1107 CURVE SMOOTH",
"1077 1305 OFFCURVE",
"932 1480 OFFCURVE",
"642 1480 CURVE SMOOTH",
"390 1480 OFFCURVE",
"206 1352 OFFCURVE",
"206 1107 CURVE",
"206 906 OFFCURVE",
"336 804 OFFCURVE",
"445 745 CURVE",
"238 621 OFFCURVE",
"176 515 OFFCURVE",
"176 360 CURVE SMOOTH",
"176 135 OFFCURVE",
"321 -24 OFFCURVE",
"642 -24 CURVE SMOOTH"
);
},
{
closed = 1;
nodes = (
"494 168 OFFCURVE",
"417 251 OFFCURVE",
"417 359 CURVE",
"417 455 OFFCURVE",
"492 558 OFFCURVE",
"633 649 CURVE",
"843 532 OFFCURVE",
"879 460 OFFCURVE",
"879 356 CURVE SMOOTH",
"879 251 OFFCURVE",
"811 168 OFFCURVE",
"644 168 CURVE SMOOTH"
);
},
{
closed = 1;
nodes = (
"509 930 OFFCURVE",
"437 990 OFFCURVE",
"437 1122 CURVE SMOOTH",
"437 1231 OFFCURVE",
"524 1292 OFFCURVE",
"646 1292 CURVE SMOOTH",
"759 1292 OFFCURVE",
"853 1239 OFFCURVE",
"853 1122 CURVE SMOOTH",
"853 1028 OFFCURVE",
"821 957 OFFCURVE",
"647 855 CURVE"
);
}
);
width = 1282;
}
);
unicode = 0038;
},
{
glyphname = nine;
lastChange = "2018-07-25 19:37:42 +0000";
layers = (
{
layerId = "850197A4-73EE-4DD1-A43D-17FCD4749099";
paths = (
{
closed = 1;
nodes = (
"998 0 LINE",
"998 1489 LINE",
"921 1547 OFFCURVE",
"800 1586 OFFCURVE",
"647 1586 CURVE SMOOTH",
"335 1586 OFFCURVE",
"177 1326 OFFCURVE",
"177 1089 CURVE SMOOTH",
"177 867 OFFCURVE",
"330 715 OFFCURVE",
"524 715 CURVE SMOOTH",
"629 715 OFFCURVE",
"735 774 OFFCURVE",
"824 874 CURVE",
"824 0 LINE"
);
},
{
closed = 1;
nodes = (
"427 864 OFFCURVE",
"351 957 OFFCURVE",
"351 1097 CURVE SMOOTH",
"351 1262 OFFCURVE",
"451 1443 OFFCURVE",
"666 1443 CURVE SMOOTH",
"749 1443 OFFCURVE",
"804 1421 OFFCURVE",
"818 1412 CURVE",
"818 1279 LINE SMOOTH",
"818 993 OFFCURVE",
"667 864 OFFCURVE",
"540 864 CURVE SMOOTH"
);
}
);
width = 1316;
},
{
layerId = "8183A7D6-F04A-4582-B03C-55CCED69A0BD";
paths = (
{
closed = 1;
nodes = (
"1047 0 LINE",
"1047 1076 LINE SMOOTH",
"1047 1079 LINE SMOOTH",
"1047 1349 LINE",
"985 1386 OFFCURVE",
"843 1480 OFFCURVE",
"645 1480 CURVE SMOOTH",
"621 1480 LINE SMOOTH",
"379 1471 OFFCURVE",
"160 1276 OFFCURVE",
"160 973 CURVE SMOOTH",
"160 718 OFFCURVE",
"340 548 OFFCURVE",
"568 548 CURVE SMOOTH",
"588 548 OFFCURVE",
"610 549 OFFCURVE",
"631 552 CURVE SMOOTH",
"707 562 OFFCURVE",
"773 593 OFFCURVE",
"828 637 CURVE",
"828 0 LINE"
);
},
{
closed = 1;
nodes = (
"469 740 OFFCURVE",
"397 836 OFFCURVE",
"397 982 CURVE SMOOTH",
"397 1138 OFFCURVE",
"483 1279 OFFCURVE",
"637 1291 CURVE SMOOTH",
"642 1291 OFFCURVE",
"648 1292 OFFCURVE",
"653 1292 CURVE SMOOTH",
"737 1292 OFFCURVE",
"811 1242 OFFCURVE",
"829 1235 CURVE",
"829 1073 LINE SMOOTH",
"829 894 OFFCURVE",
"772 778 OFFCURVE",
"648 748 CURVE SMOOTH",
"627 743 OFFCURVE",
"606 740 OFFCURVE",
"587 740 CURVE SMOOTH"
);
}
);
width = 1282;
}
);
unicode = 0039;
},
{
glyphname = nine.alt.2;
lastChange = "2018-07-26 15:26:56 +0000";
layers = (
{
layerId = "850197A4-73EE-4DD1-A43D-17FCD4749099";
paths = (
{
closed = 1;
nodes = (
"999 598 LINE",
"1090 729 OFFCURVE",
"1138 865 OFFCURVE",
"1138 991 CURVE SMOOTH",
"1138 1243 OFFCURVE",
"979 1481 OFFCURVE",
"635 1481 CURVE SMOOTH",
"356 1481 OFFCURVE",
"142 1282 OFFCURVE",
"142 995 CURVE SMOOTH",
"142 724 OFFCURVE",
"324 515 OFFCURVE",
"622 515 CURVE SMOOTH",
"728 515 OFFCURVE",
"800 569 OFFCURVE",
"808 575 CURVE",
"415 0 LINE",
"545 -76 LINE"
);
},
{
closed = 1;
nodes = (
"397 659 OFFCURVE",
"314 821 OFFCURVE",
"314 994 CURVE SMOOTH",
"314 1205 OFFCURVE",
"441 1331 OFFCURVE",
"646 1331 CURVE SMOOTH",
"872 1331 OFFCURVE",
"971 1202 OFFCURVE",
"971 992 CURVE SMOOTH",
"971 791 OFFCURVE",
"860 659 OFFCURVE",
"641 659 CURVE SMOOTH"
);
}
);
width = 1244;
},
{
layerId = "8183A7D6-F04A-4582-B03C-55CCED69A0BD";
paths = (
{
closed = 1;
nodes = (
"952 511 LINE",
"1035 649 OFFCURVE",
"1130 867 OFFCURVE",
"1130 992 CURVE SMOOTH",
"1130 1321 OFFCURVE",
"874 1480 OFFCURVE",
"643 1480 CURVE SMOOTH",
"413 1480 OFFCURVE",
"151 1326 OFFCURVE",
"151 997 CURVE SMOOTH",
"151 731 OFFCURVE",
"367 523 OFFCURVE",
"623 523 CURVE SMOOTH",
"675 523 OFFCURVE",
"698 523 OFFCURVE",
"709 529 CURVE",
"411 -6 LINE",
"597 -119 LINE"
);
},
{
closed = 1;
nodes = (
"527 714 OFFCURVE",
"388 815 OFFCURVE",
"388 1011 CURVE SMOOTH",
"388 1193 OFFCURVE",
"525 1272 OFFCURVE",
"652 1272 CURVE SMOOTH",
"780 1272 OFFCURVE",
"911 1191 OFFCURVE",
"911 1009 CURVE SMOOTH",
"911 812 OFFCURVE",
"781 714 OFFCURVE",
"656 714 CURVE SMOOTH"
);
}
);
width = 1254;
}
);
},
{
glyphname = one.alt;
lastChange = "2018-07-25 19:37:42 +0000";
layers = (
{
layerId = "850197A4-73EE-4DD1-A43D-17FCD4749099";
paths = (
{
closed = 1;
nodes = (
"840 0 LINE",
"840 1456 LINE",
"675 1456 LINE",
"607 1405 OFFCURVE",
"485 1330 OFFCURVE",
"369 1277 CURVE",
"410 1146 LINE",
"516 1190 OFFCURVE",
"602 1238 OFFCURVE",
"668 1288 CURVE",
"668 0 LINE"
);
}
);
width = 1258;
},
{
layerId = "8183A7D6-F04A-4582-B03C-55CCED69A0BD";
paths = (
{
closed = 1;
nodes = (
"721 0 LINE",
"721 1456 LINE",
"477 1456 LINE",
"410 1405 OFFCURVE",
"251 1322 OFFCURVE",
"135 1270 CURVE",
"195 1099 LINE",
"301 1143 OFFCURVE",
"405 1190 OFFCURVE",
"471 1241 CURVE",
"471 0 LINE"
);
}
);
width = 999;
}
);
},
{
glyphname = four.alt;
lastChange = "2018-07-25 19:37:42 +0000";
layers = (
{
layerId = "850197A4-73EE-4DD1-A43D-17FCD4749099";
paths = (
{
closed = 1;
nodes = (
"946 0 LINE",
"946 386 LINE",
"1163 386 LINE",
"1163 520 LINE",
"945 520 LINE",
"945 1456 LINE",
"698 1456 LINE",
"125 515 LINE",
"125 386 LINE",
"774 386 LINE",
"774 0 LINE"
);
},
{
closed = 1;
nodes = (
"470 776 OFFCURVE",
"622 1032 OFFCURVE",
"774 1287 CURVE",
"774 520 LINE",
"319 520 LINE"
);
}
);
width = 1240;
},
{
layerId = "8183A7D6-F04A-4582-B03C-55CCED69A0BD";
paths = (
{
closed = 1;
nodes = (
"982 0 LINE",
"982 327 LINE",
"1179 327 LINE",
"1179 511 LINE",
"982 511 LINE",
"982 1456 LINE",
"720 1456 LINE",
"114 504 LINE",
"114 327 LINE",
"755 327 LINE",
"755 0 LINE"
);
},
{
closed = 1;
nodes = (
"482 728 OFFCURVE",
"620 946 OFFCURVE",
"755 1167 CURVE",
"755 511 LINE",
"344 511 LINE"
);
}
);
width = 1254;
}
);
},
{
glyphname = nine.alt;
lastChange = "2018-07-26 15:29:43 +0000";
layers = (
{
layerId = "850197A4-73EE-4DD1-A43D-17FCD4749099";
paths = (
{
closed = 1;
nodes = (
"885 -24 OFFCURVE",
"1080 335 OFFCURVE",
"1080 786 CURVE SMOOTH",
"1080 1192 OFFCURVE",
"950 1480 OFFCURVE",
"581 1480 CURVE SMOOTH",
"311 1480 OFFCURVE",
"98 1317 OFFCURVE",
"98 1012 CURVE SMOOTH",
"98 754 OFFCURVE",
"264 561 OFFCURVE",
"547 561 CURVE SMOOTH",
"720 561 OFFCURVE",
"836 620 OFFCURVE",
"905 735 CURVE",
"905 711 LINE SMOOTH",
"905 409 OFFCURVE",
"801 118 OFFCURVE",
"520 118 CURVE SMOOTH",
"409 118 OFFCURVE",
"318 155 OFFCURVE",
"247 232 CURVE",
"193 104 LINE",
"280 21 OFFCURVE",
"371 -24 OFFCURVE",
"517 -24 CURVE SMOOTH"
);
},
{
closed = 1;
nodes = (
"381 701 OFFCURVE",
"274 820 OFFCURVE",
"274 1017 CURVE SMOOTH",
"274 1193 OFFCURVE",
"378 1340 OFFCURVE",
"573 1340 CURVE SMOOTH",
"759 1340 OFFCURVE",
"893 1211 OFFCURVE",
"893 999 CURVE SMOOTH",
"893 825 OFFCURVE",
"768 701 OFFCURVE",
"572 701 CURVE SMOOTH"
);
}
);
width = 1176;
},
{
layerId = "8183A7D6-F04A-4582-B03C-55CCED69A0BD";
paths = (
{
closed = 1;
nodes = (
"874 -24 OFFCURVE",
"1107 297 OFFCURVE",
"1107 784 CURVE SMOOTH",
"1107 1242 OFFCURVE",
"928 1480 OFFCURVE",
"581 1480 CURVE SMOOTH",
"274 1480 OFFCURVE",
"71 1290 OFFCURVE",
"71 1001 CURVE SMOOTH",
"71 723 OFFCURVE",
"262 537 OFFCURVE",
"547 537 CURVE SMOOTH",
"727 537 OFFCURVE",
"852 596 OFFCURVE",
"928 719 CURVE",
"878 735 LINE",
"878 712 LINE SMOOTH",
"878 374 OFFCURVE",
"746 173 OFFCURVE",
"520 173 CURVE SMOOTH",
"399 173 OFFCURVE",
"306 217 OFFCURVE",
"240 304 CURVE",
"159 121 LINE",
"266 18 OFFCURVE",
"369 -24 OFFCURVE",
"517 -24 CURVE SMOOTH"
);
},
{
closed = 1;
nodes = (
"406 733 OFFCURVE",
"312 830 OFFCURVE",
"312 1005 CURVE SMOOTH",
"312 1174 OFFCURVE",
"415 1285 OFFCURVE",
"573 1285 CURVE",
"744 1285 OFFCURVE",
"855 1168 OFFCURVE",
"855 988 CURVE SMOOTH",
"855 835 OFFCURVE",
"742 733 OFFCURVE",
"572 733 CURVE SMOOTH"
);
}
);
width = 1254;
}
);
},
{
glyphname = one.superior;
lastChange = "2018-07-26 15:37:51 +0000";
layers = (
{
layerId = "850197A4-73EE-4DD1-A43D-17FCD4749099";
paths = (
{
closed = 1;
nodes = (
"560 504 LINE",
"560 620 LINE",
"438 620 LINE",
"438 1427 LINE",
"333 1412 LINE",
"281 1381 OFFCURVE",
"232 1354 OFFCURVE",
"165 1333 CURVE",
"164 1203 LINE",
"214 1222 OFFCURVE",
"272 1248 OFFCURVE",
"316 1271 CURVE",
"316 1168 LINE SMOOTH",
"316 1116 OFFCURVE",
"317 1067 OFFCURVE",
"317 1008 CURVE SMOOTH",
"317 623 LINE",
"195 623 LINE",
"195 504 LINE"
);
}
);
width = 721;
},
{
layerId = "8183A7D6-F04A-4582-B03C-55CCED69A0BD";
paths = (
{
closed = 1;
nodes = (
"620 533 LINE",
"620 655 LINE",
"491 655 LINE",
"491 1468 LINE",
"354 1468 LINE",
"297 1434 OFFCURVE",
"237 1402 OFFCURVE",
"175 1372 CURVE",
"175 1246 LINE",
"336 1324 LINE",
"337 659 LINE",
"188 659 LINE",
"188 533 LINE"
);
}
);
width = 765;
}
);
},
{
glyphname = two.superior;
lastChange = "2018-07-26 15:40:25 +0000";
layers = (
{
layerId = "850197A4-73EE-4DD1-A43D-17FCD4749099";
paths = (
{
closed = 1;
nodes = (
"767 504 LINE",
"767 636 LINE",
"359 636 LINE",
"462 725 OFFCURVE",
"566 812 OFFCURVE",
"649 911 CURVE SMOOTH",
"710 984 OFFCURVE",
"768 1068 OFFCURVE",
"768 1186 CURVE SMOOTH",
"768 1225 OFFCURVE",
"760 1260 OFFCURVE",
"745 1291 CURVE SMOOTH",
"702 1382 OFFCURVE",
"605 1440 OFFCURVE",
"473 1440 CURVE SMOOTH",
"319 1440 OFFCURVE",
"212 1362 OFFCURVE",
"164 1250 CURVE",
"259 1162 LINE",
"296 1241 OFFCURVE",
"360 1309 OFFCURVE",
"467 1309 CURVE SMOOTH",
"555 1309 OFFCURVE",
"623 1268 OFFCURVE",
"623 1184 CURVE SMOOTH",
"623 1152 OFFCURVE",
"612 1117 OFFCURVE",
"589 1079 CURVE SMOOTH",
"565 1041 OFFCURVE",
"534 1000 OFFCURVE",
"492 954 CURVE SMOOTH",
"393 844 OFFCURVE",
"274 737 OFFCURVE",
"155 628 CURVE",
"155 504 LINE"
);
}
);
width = 927;
},
{
layerId = "8183A7D6-F04A-4582-B03C-55CCED69A0BD";
paths = (
{
closed = 1;
nodes = (
"779 533 LINE",
"779 671 LINE",
"393 671 LINE",
"658 950 LINE SMOOTH",
"745 1042 OFFCURVE",
"786 1134 OFFCURVE",
"786 1218 CURVE SMOOTH",
"786 1365 OFFCURVE",
"666 1480 OFFCURVE",
"483 1480 CURVE SMOOTH",
"348 1480 OFFCURVE",
"238 1424 OFFCURVE",
"157 1306 CURVE",
"248 1214 LINE",
"314 1314 OFFCURVE",
"396 1346 OFFCURVE",
"484 1346 CURVE SMOOTH",
"572 1346 OFFCURVE",
"640 1287 OFFCURVE",
"640 1205 CURVE SMOOTH",
"640 1156 OFFCURVE",
"615 1099 OFFCURVE",
"559 1040 CURVE SMOOTH",
"201 662 LINE",
"201 533 LINE"
);
}
);
width = 956;
}
);
},
{
glyphname = three.superior;
lastChange = "2018-07-26 15:40:52 +0000";
layers = (
{
layerId = "850197A4-73EE-4DD1-A43D-17FCD4749099";
paths = (
{
closed = 1;
nodes = (
"444 482 OFFCURVE",
"487 489 OFFCURVE",
"528 501 CURVE SMOOTH",
"637 535 OFFCURVE",
"734 619 OFFCURVE",
"734 760 CURVE SMOOTH",
"734 876 OFFCURVE",
"673 945 OFFCURVE",
"590 982 CURVE",
"660 1019 OFFCURVE",
"710 1085 OFFCURVE",
"710 1185 CURVE SMOOTH",
"710 1226 OFFCURVE",
"701 1262 OFFCURVE",
"684 1293 CURVE SMOOTH",
"638 1381 OFFCURVE",
"539 1440 OFFCURVE",
"406 1440 CURVE SMOOTH",
"289 1440 OFFCURVE",
"185 1387 OFFCURVE",
"123 1327 CURVE",
"188 1219 LINE",
"243 1264 OFFCURVE",
"311 1307 OFFCURVE",
"403 1307 CURVE SMOOTH",
"494 1307 OFFCURVE",
"561 1272 OFFCURVE",
"561 1181 CURVE SMOOTH",
"561 1069 OFFCURVE",
"454 1046 OFFCURVE",
"341 1046 CURVE SMOOTH",
"286 1046 LINE",
"286 912 LINE",
"315 912 LINE SMOOTH",
"325 912 OFFCURVE",
"341 914 OFFCURVE",
"348 914 CURVE SMOOTH",
"475 914 OFFCURVE",
"589 888 OFFCURVE",
"589 764 CURVE SMOOTH",
"589 660 OFFCURVE",
"498 611 OFFCURVE",
"393 611 CURVE SMOOTH",
"320 611 OFFCURVE",
"253 640 OFFCURVE",
"191 699 CURVE",
"123 591 LINE",
"187 527 OFFCURVE",
"279 482 OFFCURVE",
"399 482 CURVE SMOOTH"
);
}
);
width = 862;
},
{
layerId = "8183A7D6-F04A-4582-B03C-55CCED69A0BD";
paths = (
{
closed = 1;
nodes = (
"622 516 OFFCURVE",
"782 624 OFFCURVE",
"782 809 CURVE SMOOTH",
"782 931 OFFCURVE",
"715 983 OFFCURVE",
"631 1020 CURVE",
"707 1061 OFFCURVE",
"757 1130 OFFCURVE",
"757 1233 CURVE SMOOTH",
"757 1396 OFFCURVE",
"612 1480 OFFCURVE",
"441 1480 CURVE SMOOTH",
"316 1480 OFFCURVE",
"209 1427 OFFCURVE",
"142 1361 CURVE",
"210 1249 LINE",
"272 1298 OFFCURVE",
"340 1340 OFFCURVE",
"438 1340 CURVE SMOOTH",
"529 1340 OFFCURVE",
"601 1324 OFFCURVE",
"601 1229 CURVE SMOOTH",
"601 1111 OFFCURVE",
"489 1087 OFFCURVE",
"370 1087 CURVE SMOOTH",
"312 1087 LINE",
"312 948 LINE",
"378 948 LINE SMOOTH",
"506 948 OFFCURVE",
"630 942 OFFCURVE",
"630 814 CURVE SMOOTH",
"630 702 OFFCURVE",
"534 651 OFFCURVE",
"428 651 CURVE SMOOTH",
"353 651 OFFCURVE",
"284 677 OFFCURVE",
"212 742 CURVE",
"142 630 LINE",
"209 563 OFFCURVE",
"305 516 OFFCURVE",
"430 516 CURVE SMOOTH"
);
}
);
width = 928;
}
);
},
{
glyphname = four.superior;
lastChange = "2018-07-26 15:39:45 +0000";
layers = (
{
layerId = "850197A4-73EE-4DD1-A43D-17FCD4749099";
paths = (
{
closed = 1;
nodes = (
"632 504 LINE",
"632 717 LINE",
"772 717 LINE",
"760 841 LINE",
"634 841 LINE",
"634 1422 LINE",
"479 1422 LINE",
"55 822 LINE",
"55 717 LINE",
"493 717 LINE",
"493 504 LINE"
);
},
{
closed = 1;
nodes = (
"493 1227 LINE",
"493 841 LINE",
"216 841 LINE"
);
}
);
width = 887;
},
{
layerId = "8183A7D6-F04A-4582-B03C-55CCED69A0BD";
paths = (
{
closed = 1;
nodes = (
"712 533 LINE",
"712 754 LINE",
"854 754 LINE",
"842 879 LINE",
"715 879 LINE",
"715 1468 LINE",
"562 1468 LINE",
"150 860 LINE",
"150 754 LINE",
"575 754 LINE",
"575 533 LINE"
);
},
{
closed = 1;
nodes = (
"575 1271 LINE",
"575 879 LINE",
"314 879 LINE"
);
}
);
width = 1029;
}
);
},
{
glyphname = fraction;
lastChange = "2018-07-26 15:51:29 +0000";
layers = (
{
layerId = "850197A4-73EE-4DD1-A43D-17FCD4749099";
paths = (
{
closed = 1;
nodes = (
"-129 0 LINE",
"702 1456 LINE",
"553 1456 LINE",
"-280 0 LINE"
);
}
);
width = 422;
},
{
layerId = "8183A7D6-F04A-4582-B03C-55CCED69A0BD";
paths = (
{
closed = 1;
nodes = (
"-148 0 LINE",
"821 1520 LINE",
"663 1520 LINE",
"-310 0 LINE"
);
}
);
width = 511;
}
);
unicode = 2044;
},
{
glyphname = onehalf;
lastChange = "2018-07-26 15:54:56 +0000";
layers = (
{
background = {
paths = (
{
closed = 1;
nodes = (
"490 0 LINE",
"1321 1456 LINE",
"1172 1456 LINE",
"339 0 LINE"
);
},
{
closed = 1;
nodes = (
"350 426 LINE",
"350 1456 LINE",
"124 1456 LINE",
"124 1351 LINE",
"209 1351 LINE",
"209 426 LINE"
);
},
{
closed = 1;
nodes = (
"1795 0 LINE",
"1795 119 LINE",
"1404 119 LINE",
"1596 344 LINE SMOOTH",
"1718 486 OFFCURVE",
"1815 593 OFFCURVE",
"1815 738 CURVE SMOOTH",
"1815 927 OFFCURVE",
"1688 1052 OFFCURVE",
"1507 1052 CURVE SMOOTH",
"1316 1052 OFFCURVE",
"1217 950 OFFCURVE",
"1217 950 CURVE",
"1275 833 LINE SMOOTH",
"1275 832 OFFCURVE",
"1364 926 OFFCURVE",
"1503 926 CURVE SMOOTH",
"1612 926 OFFCURVE",
"1664 855 OFFCURVE",
"1664 738 CURVE SMOOTH",
"1664 645 OFFCURVE",
"1616 571 OFFCURVE",
"1514 451 CURVE SMOOTH",
"1236 126 LINE",
"1236 0 LINE"
);
}
);
};
components = (
{
name = one.numr;
},
{
name = fraction;
transform = "{1, 0, 0, 1, 596, 0}";
},
{
name = two.dnom;
transform = "{1, 0, 0, 1, 1018, 0}";
}
);
layerId = "850197A4-73EE-4DD1-A43D-17FCD4749099";
width = 1861;
},
{
background = {
paths = (
{
closed = 1;
nodes = (
"594 0 LINE",
"1563 1520 LINE",
"1405 1520 LINE",
"432 0 LINE"
);
},
{
closed = 1;
nodes = (
"604 572 LINE",
"604 694 LINE",
"475 694 LINE",
"475 1520 LINE",
"338 1520 LINE",
"281 1486 OFFCURVE",
"221 1454 OFFCURVE",
"159 1424 CURVE",
"159 1298 LINE",
"320 1376 LINE",
"321 698 LINE",
"172 698 LINE",
"172 572 LINE"
);
},
{
closed = 1;
nodes = (
"1941 0 LINE",
"1941 138 LINE",
"1555 138 LINE",
"1820 406 LINE SMOOTH",
"1909 496 OFFCURVE",
"1948 590 OFFCURVE",
"1948 674 CURVE SMOOTH",
"1948 821 OFFCURVE",
"1828 936 OFFCURVE",
"1645 936 CURVE SMOOTH",
"1510 936 OFFCURVE",
"1400 880 OFFCURVE",
"1319 762 CURVE",
"1410 670 LINE",
"1476 770 OFFCURVE",
"1558 802 OFFCURVE",
"1646 802 CURVE SMOOTH",
"1734 802 OFFCURVE",
"1802 743 OFFCURVE",
"1802 661 CURVE SMOOTH",
"1802 612 OFFCURVE",
"1778 554 OFFCURVE",
"1721 496 CURVE SMOOTH",
"1363 129 LINE",
"1363 0 LINE"
);
}
);
};
components = (
{
name = one.numr;
},
{
name = fraction;
transform = "{1, 0, 0, 1, 725, 0}";
},
{
name = two.dnom;
transform = "{1, 0, 0, 1, 1236, 0}";
}
);
layerId = "8183A7D6-F04A-4582-B03C-55CCED69A0BD";
width = 2152;
}
);
unicode = 00BD;
},
{
glyphname = onequarter;
lastChange = "2018-07-26 15:55:29 +0000";
layers = (
{
background = {
paths = (
{
closed = 1;
nodes = (
"437 0 LINE",
"1268 1456 LINE",
"1119 1456 LINE",
"286 0 LINE"
);
},
{
closed = 1;
nodes = (
"310 426 LINE",
"310 1456 LINE",
"84 1456 LINE",
"84 1351 LINE",
"169 1351 LINE",
"169 426 LINE"
);
},
{
closed = 1;
nodes = (
"1538 0 LINE",
"1538 264 LINE",
"1726 264 LINE",
"1726 363 LINE",
"1537 363 LINE",
"1537 617 LINE",
"1406 617 LINE",
"1406 363 LINE",
"1128 363 LINE",
"1465 1026 LINE",
"1328 1026 LINE",
"967 355 LINE",
"967 264 LINE",
"1406 264 LINE",
"1406 0 LINE"
);
}
);
};
components = (
{
name = one.numr;
},
{
name = fraction;
transform = "{1, 0, 0, 1, 596, 0}";
},
{
alignment = -1;
name = four.dnom;
transform = "{1, 0, 0, 1, 908, 0}";
}
);
layerId = "850197A4-73EE-4DD1-A43D-17FCD4749099";
width = 1790;
},
{
background = {
paths = (
{
closed = 1;
nodes = (
"521 0 LINE",
"1490 1520 LINE",
"1332 1520 LINE",
"359 0 LINE"
);
},
{
closed = 1;
nodes = (
"531 572 LINE",
"531 694 LINE",
"402 694 LINE",
"402 1520 LINE",
"265 1520 LINE",
"208 1486 OFFCURVE",
"148 1454 OFFCURVE",
"86 1424 CURVE",
"86 1298 LINE",
"247 1376 LINE",
"248 698 LINE",
"99 698 LINE",
"99 572 LINE"
);
},
{
closed = 1;
nodes = (
"1634 0 LINE",
"1634 221 LINE",
"1776 221 LINE",
"1775 347 LINE",
"1637 347 LINE",
"1637 936 LINE",
"1485 936 LINE",
"1097 328 LINE",
"1097 221 LINE",
"1497 221 LINE",
"1497 0 LINE"
);
},
{
closed = 1;
nodes = (
"1497 769 LINE",
"1497 347 LINE",
"1232 347 LINE"
);
}
);
};
components = (
{
name = one.numr;
},
{
name = fraction;
transform = "{1, 0, 0, 1, 725, 0}";
},
{
alignment = -1;
name = four.dnom;
transform = "{1, 0, 0, 1, 1036, 0}";
}
);
layerId = "8183A7D6-F04A-4582-B03C-55CCED69A0BD";
width = 2065;
}
);
unicode = 00BC;
},
{
glyphname = threequarters;
lastChange = "2018-07-26 15:55:38 +0000";
layers = (
{
background = {
paths = (
{
closed = 1;
nodes = (
"694 0 LINE",
"1525 1456 LINE",
"1376 1456 LINE",
"543 0 LINE"
);
},
{
closed = 1;
nodes = (
"510 411 OFFCURVE",
"670 516 OFFCURVE",
"670 711 CURVE SMOOTH",
"670 847 OFFCURVE",
"607 945 OFFCURVE",
"493 972 CURVE",
"593 1003 OFFCURVE",
"648 1096 OFFCURVE",
"648 1212 CURVE SMOOTH",
"648 1394 OFFCURVE",
"500 1482 OFFCURVE",
"361 1482 CURVE SMOOTH",
"243 1482 OFFCURVE",
"140 1440 OFFCURVE",
"82 1370 CURVE",
"136 1277 LINE",
"176 1320 OFFCURVE",
"249 1364 OFFCURVE",
"348 1364 CURVE SMOOTH",
"442 1364 OFFCURVE",
"519 1299 OFFCURVE",
"519 1199 CURVE SMOOTH",
"519 1090 OFFCURVE",
"444 1028 OFFCURVE",
"311 1028 CURVE SMOOTH",
"263 1028 LINE",
"263 914 LINE",
"322 914 LINE SMOOTH",
"463 914 OFFCURVE",
"540 856 OFFCURVE",
"540 718 CURVE SMOOTH",
"540 599 OFFCURVE",
"451 529 OFFCURVE",
"340 529 CURVE SMOOTH",
"247 529 OFFCURVE",
"174 579 OFFCURVE",
"148 596 CURVE",
"110 483 LINE",
"118 478 OFFCURVE",
"213 411 OFFCURVE",
"347 411 CURVE SMOOTH"
);
},
{
closed = 1;
nodes = (
"1786 0 LINE",
"1786 264 LINE",
"1974 264 LINE",
"1974 363 LINE",
"1785 363 LINE",
"1785 617 LINE",
"1654 617 LINE",
"1654 363 LINE",
"1376 363 LINE",
"1713 1026 LINE",
"1576 1026 LINE",
"1215 355 LINE",
"1215 264 LINE",
"1654 264 LINE",
"1654 0 LINE"
);
}
);
};
components = (
{
name = three.numr;
},
{
name = fraction;
transform = "{1, 0, 0, 1, 841, 0}";
},
{
alignment = -1;
name = four.dnom;
transform = "{1, 0, 0, 1, 1163, 0}";
}
);
layerId = "850197A4-73EE-4DD1-A43D-17FCD4749099";
width = 2045;
},
{
background = {
paths = (
{
closed = 1;
nodes = (
"648 0 LINE",
"1617 1520 LINE",
"1459 1520 LINE",
"486 0 LINE"
);
},
{
closed = 1;
nodes = (
"524 550 OFFCURVE",
"671 634 OFFCURVE",
"671 826 CURVE SMOOTH",
"671 837 LINE",
"668 957 OFFCURVE",
"596 1041 OFFCURVE",
"476 1070 CURVE",
"568 1089 OFFCURVE",
"650 1162 OFFCURVE",
"650 1266 CURVE SMOOTH",
"650 1452 OFFCURVE",
"516 1519 OFFCURVE",
"373 1519 CURVE SMOOTH",
"260 1519 OFFCURVE",
"143 1477 OFFCURVE",
"82 1419 CURVE",
"137 1322 LINE",
"177 1363 OFFCURVE",
"275 1404 OFFCURVE",
"360 1404 CURVE SMOOTH",
"440 1404 OFFCURVE",
"508 1368 OFFCURVE",
"508 1263 CURVE SMOOTH",
"508 1145 OFFCURVE",
"406 1127 OFFCURVE",
"299 1127 CURVE SMOOTH",
"247 1127 LINE",
"247 1008 LINE",
"307 1008 LINE SMOOTH",
"426 1008 OFFCURVE",
"534 972 OFFCURVE",
"534 841 CURVE SMOOTH",
"534 714 OFFCURVE",
"453 667 OFFCURVE",
"359 667 CURVE SMOOTH",
"284 667 OFFCURVE",
"201 697 OFFCURVE",
"142 741 CURVE",
"89 639 LINE",
"165 582 OFFCURVE",
"267 550 OFFCURVE",
"365 550 CURVE SMOOTH"
);
},
{
closed = 1;
nodes = (
"1761 0 LINE",
"1761 221 LINE",
"1903 221 LINE",
"1902 347 LINE",
"1764 347 LINE",
"1764 936 LINE",
"1612 936 LINE",
"1224 328 LINE",
"1224 221 LINE",
"1624 221 LINE",
"1624 0 LINE"
);
},
{
closed = 1;
nodes = (
"1624 769 LINE",
"1624 347 LINE",
"1359 347 LINE"
);
}
);
};
components = (
{
name = three.numr;
},
{
name = fraction;
transform = "{1, 0, 0, 1, 888, 0}";
},
{
alignment = -1;
name = four.dnom;
transform = "{1, 0, 0, 1, 1199, 0}";
}
);
layerId = "8183A7D6-F04A-4582-B03C-55CCED69A0BD";
width = 2228;
}
);
unicode = 00BE;
},
{
glyphname = period;
lastChange = "2018-07-25 19:37:42 +0000";
layers = (
{
layerId = "850197A4-73EE-4DD1-A43D-17FCD4749099";
paths = (
{
closed = 1;
nodes = (
"356 -16 OFFCURVE",
"410 23 OFFCURVE",
"410 89 CURVE SMOOTH",
"410 146 OFFCURVE",
"372 195 OFFCURVE",
"303 195 CURVE SMOOTH",
"249 195 OFFCURVE",
"195 156 OFFCURVE",
"195 90 CURVE SMOOTH",
"195 33 OFFCURVE",
"233 -16 OFFCURVE",
"302 -16 CURVE SMOOTH"
);
}
);
width = 603;
},
{
layerId = "8183A7D6-F04A-4582-B03C-55CCED69A0BD";
paths = (
{
closed = 1;
nodes = (
"446 -12 OFFCURVE",
"515 52 OFFCURVE",
"515 146 CURVE SMOOTH",
"515 241 OFFCURVE",
"446 306 OFFCURVE",
"350 306 CURVE SMOOTH",
"254 306 OFFCURVE",
"185 241 OFFCURVE",
"185 149 CURVE SMOOTH",
"185 54 OFFCURVE",
"254 -12 OFFCURVE",
"350 -12 CURVE SMOOTH"
);
}
);
width = 699;
}
);
unicode = 002E;
},
{
glyphname = comma;
lastChange = "2018-07-25 19:37:42 +0000";
layers = (
{
layerId = "850197A4-73EE-4DD1-A43D-17FCD4749099";
paths = (
{
closed = 1;
nodes = (
"274 -310 LINE",
"437 207 LINE",
"250 207 LINE",
"143 -310 LINE"
);
}
);
width = 575;
},
{
layerId = "8183A7D6-F04A-4582-B03C-55CCED69A0BD";
paths = (
{
closed = 1;
nodes = (
"292 -297 LINE",
"483 255 LINE",
"228 255 LINE",
"138 -297 LINE"
);
}
);
width = 612;
}
);
unicode = 002C;
},
{
glyphname = colon;
lastChange = "2018-07-25 19:37:42 +0000";
layers = (
{
layerId = "850197A4-73EE-4DD1-A43D-17FCD4749099";
paths = (
{
closed = 1;
nodes = (
"414 832 OFFCURVE",
"458 893 OFFCURVE",
"458 955 CURVE SMOOTH",
"458 1017 OFFCURVE",
"414 1078 OFFCURVE",
"326 1078 CURVE SMOOTH",
"238 1078 OFFCURVE",
"194 1017 OFFCURVE",
"194 955 CURVE SMOOTH",
"194 893 OFFCURVE",
"238 832 OFFCURVE",
"326 832 CURVE SMOOTH"
);
},
{
closed = 1;
nodes = (
"414 48 OFFCURVE",
"458 109 OFFCURVE",
"458 171 CURVE SMOOTH",
"458 233 OFFCURVE",
"414 294 OFFCURVE",
"326 294 CURVE SMOOTH",
"238 294 OFFCURVE",
"194 233 OFFCURVE",
"194 171 CURVE SMOOTH",
"194 109 OFFCURVE",
"238 48 OFFCURVE",
"326 48 CURVE SMOOTH"
);
}
);
width = 651;
},
{
layerId = "8183A7D6-F04A-4582-B03C-55CCED69A0BD";
paths = (
{
closed = 1;
nodes = (
"447 779 LINE",
"447 1026 LINE",
"192 1026 LINE",
"192 779 LINE"
);
},
{
closed = 1;
nodes = (
"447 0 LINE",
"447 247 LINE",
"192 247 LINE",
"192 0 LINE"
);
}
);
width = 639;
}
);
unicode = 003A;
},
{
glyphname = semicolon;
lastChange = "2018-07-25 19:37:42 +0000";
layers = (
{
layerId = "850197A4-73EE-4DD1-A43D-17FCD4749099";
paths = (
{
closed = 1;
nodes = (
"277 -256 LINE",
"440 207 LINE",
"252 207 LINE",
"146 -256 LINE"
);
},
{
closed = 1;
nodes = (
"423 832 OFFCURVE",
"467 893 OFFCURVE",
"467 955 CURVE SMOOTH",
"467 1017 OFFCURVE",
"423 1078 OFFCURVE",
"335 1078 CURVE SMOOTH",
"247 1078 OFFCURVE",
"203 1017 OFFCURVE",
"203 955 CURVE SMOOTH",
"203 893 OFFCURVE",
"247 832 OFFCURVE",
"335 832 CURVE SMOOTH"
);
}
);
width = 617;
},
{
layerId = "8183A7D6-F04A-4582-B03C-55CCED69A0BD";
paths = (
{
closed = 1;
nodes = (
"290 -297 LINE",
"481 255 LINE",
"226 255 LINE",
"136 -297 LINE"
);
},
{
closed = 1;
nodes = (
"481 779 LINE",
"481 1026 LINE",
"226 1026 LINE",
"226 779 LINE"
);
}
);
width = 627;
}
);
unicode = 003B;
},
{
glyphname = ellipsis;
lastChange = "2018-07-25 19:37:42 +0000";
layers = (
{
layerId = "850197A4-73EE-4DD1-A43D-17FCD4749099";
paths = (
{
closed = 1;
nodes = (
"1440 0 LINE",
"1440 210 LINE",
"1223 210 LINE",
"1223 0 LINE"
);
},
{
closed = 1;
nodes = (
"386 0 LINE",
"386 210 LINE",
"169 210 LINE",
"169 0 LINE"
);
},
{
closed = 1;
nodes = (
"913 0 LINE",
"913 210 LINE",
"696 210 LINE",
"696 0 LINE"
);
}
);
width = 1604;
},
{
layerId = "8183A7D6-F04A-4582-B03C-55CCED69A0BD";
paths = (
{
closed = 1;
nodes = (
"1723 -20 LINE",
"1723 227 LINE",
"1468 227 LINE",
"1468 -20 LINE"
);
},
{
closed = 1;
nodes = (
"544 -20 LINE",
"544 227 LINE",
"290 227 LINE",
"290 -20 LINE"
);
},
{
closed = 1;
nodes = (
"1126 -20 LINE",
"1126 227 LINE",
"887 227 LINE",
"887 -20 LINE"
);
}
);
width = 2772;
}
);
unicode = 2026;
},
{
glyphname = exclam;
lastChange = "2018-07-25 19:37:42 +0000";
layers = (
{
layerId = "850197A4-73EE-4DD1-A43D-17FCD4749099";
paths = (
{
closed = 1;
nodes = (
"324 433 LINE",
"384 1560 LINE",
"197 1560 LINE",
"258 433 LINE"
);
},
{
closed = 1;
nodes = (
"352 -6 OFFCURVE",
"409 35 OFFCURVE",
"409 105 CURVE SMOOTH",
"409 165 OFFCURVE",
"369 217 OFFCURVE",
"296 217 CURVE SMOOTH",
"239 217 OFFCURVE",
"182 176 OFFCURVE",
"182 106 CURVE SMOOTH",
"182 46 OFFCURVE",
"222 -6 OFFCURVE",
"295 -6 CURVE SMOOTH"
);
}
);
width = 587;
},
{
layerId = "8183A7D6-F04A-4582-B03C-55CCED69A0BD";
paths = (
{
closed = 1;
nodes = (
"448 498 LINE",
"542 1456 LINE",
"228 1456 LINE",
"319 498 LINE"
);
},
{
closed = 1;
nodes = (
"487 -12 OFFCURVE",
"556 52 OFFCURVE",
"556 146 CURVE SMOOTH",
"556 241 OFFCURVE",
"487 306 OFFCURVE",
"391 306 CURVE SMOOTH",
"295 306 OFFCURVE",
"226 241 OFFCURVE",
"226 149 CURVE SMOOTH",
"226 54 OFFCURVE",
"295 -12 OFFCURVE",
"391 -12 CURVE SMOOTH"
);
}
);
width = 782;
}
);
unicode = 0021;
},
{
glyphname = question;
lastChange = "2018-07-25 19:37:42 +0000";
layers = (
{
layerId = "850197A4-73EE-4DD1-A43D-17FCD4749099";
paths = (
{
closed = 1;
nodes = (
"438 401 LINE",
"438 711 OFFCURVE",
"849 863 OFFCURVE",
"849 1236 CURVE SMOOTH",
"849 1441 OFFCURVE",
"706 1586 OFFCURVE",
"429 1586 CURVE SMOOTH",
"323 1586 OFFCURVE",
"220 1555 OFFCURVE",
"140 1516 CURVE",
"140 1365 LINE",
"210 1404 OFFCURVE",
"324 1436 OFFCURVE",
"424 1436 CURVE SMOOTH",
"562 1436 OFFCURVE",
"680 1379 OFFCURVE",
"680 1228 CURVE SMOOTH",
"680 892 OFFCURVE",
"313 763 OFFCURVE",
"313 401 CURVE"
);
},
{
closed = 1;
nodes = (
"436 0 OFFCURVE",
"488 39 OFFCURVE",
"488 105 CURVE SMOOTH",
"488 162 OFFCURVE",
"451 211 OFFCURVE",
"383 211 CURVE SMOOTH",
"329 211 OFFCURVE",
"275 172 OFFCURVE",
"275 106 CURVE SMOOTH",
"275 49 OFFCURVE",
"313 0 OFFCURVE",
"382 0 CURVE SMOOTH"
);
}
);
width = 990;
},
{
layerId = "8183A7D6-F04A-4582-B03C-55CCED69A0BD";
paths = (
{
closed = 1;
nodes = (
"429 423 LINE",
"486 776 OFFCURVE",
"856 781 OFFCURVE",
"856 1137 CURVE SMOOTH",
"856 1377 OFFCURVE",
"672 1480 OFFCURVE",
"459 1480 CURVE SMOOTH",
"359 1480 OFFCURVE",
"246 1459 OFFCURVE",
"143 1416 CURVE",
"174 1205 LINE",
"248 1233 OFFCURVE",
"339 1252 OFFCURVE",
"405 1252 CURVE SMOOTH",
"499 1252 OFFCURVE",
"579 1212 OFFCURVE",
"579 1109 CURVE SMOOTH",
"579 963 OFFCURVE",
"315 887 OFFCURVE",
"315 423 CURVE"
);
},
{
closed = 1;
nodes = (
"471 -12 OFFCURVE",
"540 52 OFFCURVE",
"540 146 CURVE SMOOTH",
"540 241 OFFCURVE",
"471 306 OFFCURVE",
"375 306 CURVE SMOOTH",
"279 306 OFFCURVE",
"210 241 OFFCURVE",
"210 149 CURVE SMOOTH",
"210 54 OFFCURVE",
"279 -12 OFFCURVE",
"375 -12 CURVE SMOOTH"
);
}
);
width = 1007;
}
);
unicode = 003F;
},
{
glyphname = periodcentered;
lastChange = "2018-07-25 19:37:42 +0000";
layers = (
{
layerId = "850197A4-73EE-4DD1-A43D-17FCD4749099";
paths = (
{
closed = 1;
nodes = (
"402 842 OFFCURVE",
"450 915 OFFCURVE",
"450 988 CURVE SMOOTH",
"450 1061 OFFCURVE",
"402 1134 OFFCURVE",
"308 1134 CURVE SMOOTH",
"214 1134 OFFCURVE",
"167 1062 OFFCURVE",
"167 989 CURVE SMOOTH",
"167 916 OFFCURVE",
"214 842 OFFCURVE",
"308 842 CURVE SMOOTH"
);
}
);
width = 617;
},
{
layerId = "8183A7D6-F04A-4582-B03C-55CCED69A0BD";
paths = (
{
closed = 1;
nodes = (
"447 1025 LINE",
"447 1272 LINE",
"192 1272 LINE",
"192 1025 LINE"
);
}
);
width = 639;
}
);
unicode = 00B7;
},
{
glyphname = bullet;
lastChange = "2018-07-25 19:37:42 +0000";
layers = (
{
layerId = "850197A4-73EE-4DD1-A43D-17FCD4749099";
paths = (
{
closed = 1;
nodes = (
"703 427 OFFCURVE",
"839 546 OFFCURVE",
"839 743 CURVE SMOOTH",
"839 901 OFFCURVE",
"719 1052 OFFCURVE",
"517 1052 CURVE SMOOTH",
"360 1052 OFFCURVE",
"190 940 OFFCURVE",
"190 736 CURVE SMOOTH",
"190 574 OFFCURVE",
"311 427 OFFCURVE",
"512 427 CURVE SMOOTH"
);
}
);
width = 1029;
},
{
layerId = "8183A7D6-F04A-4582-B03C-55CCED69A0BD";
paths = (
{
closed = 1;
nodes = (
"774 678 OFFCURVE",
"868 726 OFFCURVE",
"933 787 CURVE",
"997 845 OFFCURVE",
"1052 935 OFFCURVE",
"1052 1049 CURVE SMOOTH",
"1052 1098 OFFCURVE",
"1042 1145 OFFCURVE",
"1020 1189 CURVE",
"962 1312 OFFCURVE",
"837 1411 OFFCURVE",
"672 1411 CURVE SMOOTH",
"625 1411 OFFCURVE",
"578 1403 OFFCURVE",
"535 1382 CURVE",
"407 1330 OFFCURVE",
"287 1215 OFFCURVE",
"287 1041 CURVE SMOOTH",
"287 992 OFFCURVE",
"297 944 OFFCURVE",
"317 901 CURVE SMOOTH",
"375 776 OFFCURVE",
"501 678 OFFCURVE",
"667 678 CURVE SMOOTH"
);
}
);
width = 1718;
}
);
unicode = 2022;
},
{
glyphname = asterisk;
lastChange = "2018-07-25 19:37:42 +0000";
layers = (
{
layerId = "850197A4-73EE-4DD1-A43D-17FCD4749099";
paths = (
{
closed = 1;
nodes = (
"550 1008 LINE",
"708 742 LINE",
"834 815 LINE",
"630 1066 LINE",
"892 1154 LINE",
"828 1279 LINE",
"596 1158 LINE",
"617 1456 LINE",
"463 1456 LINE",
"499 1153 LINE",
"217 1276 LINE",
"176 1151 LINE",
"468 1063 LINE",
"271 815 LINE",
"395 740 LINE"
);
}
);
width = 1068;
},
{
layerId = "8183A7D6-F04A-4582-B03C-55CCED69A0BD";
paths = (
{
closed = 1;
nodes = (
"893 704 LINE",
"663 999 LINE",
"992 1105 LINE",
"916 1251 LINE",
"632 1106 LINE",
"645 1456 LINE",
"494 1456 LINE",
"524 1100 LINE",
"228 1250 LINE",
"164 1104 LINE",
"485 995 LINE",
"267 715 LINE",
"413 627 LINE",
"576 930 LINE",
"745 618 LINE"
);
}
);
width = 1156;
}
);
unicode = 002A;
},
{
glyphname = numbersign;
lastChange = "2018-07-25 19:37:42 +0000";
layers = (
{
layerId = "850197A4-73EE-4DD1-A43D-17FCD4749099";
paths = (
{
closed = 1;
nodes = (
"438 0 LINE",
"517 465 LINE",
"788 465 LINE",
"711 0 LINE",
"840 0 LINE",
"920 465 LINE",
"1176 465 LINE",
"1187 583 LINE",
"938 583 LINE",
"990 899 LINE",
"1239 899 LINE",
"1253 1026 LINE",
"1012 1026 LINE",
"1090 1455 LINE",
"957 1455 LINE",
"884 1026 LINE",
"613 1026 LINE",
"687 1455 LINE",
"557 1455 LINE",
"481 1026 LINE",
"215 1026 LINE",
"202 899 LINE",
"460 899 LINE",
"409 583 LINE",
"145 583 LINE",
"137 465 LINE",
"389 465 LINE",
"305 0 LINE"
);
},
{
closed = 1;
nodes = (
"590 899 LINE",
"861 899 LINE",
"809 583 LINE",
"535 583 LINE"
);
}
);
width = 1388;
},
{
layerId = "8183A7D6-F04A-4582-B03C-55CCED69A0BD";
paths = (
{
closed = 1;
nodes = (
"492 0 LINE",
"568 432 LINE",
"844 432 LINE",
"771 0 LINE",
"924 0 LINE",
"1001 432 LINE",
"1291 432 LINE",
"1308 579 LINE",
"1024 579 LINE",
"1079 903 LINE",
"1365 903 LINE",
"1382 1048 LINE",
"1103 1048 LINE",
"1181 1456 LINE",
"1021 1456 LINE",
"950 1048 LINE",
"673 1048 LINE",
"745 1456 LINE",
"590 1456 LINE",
"516 1048 LINE",
"216 1048 LINE",
"200 903 LINE",
"494 903 LINE",
"440 579 LINE",
"137 579 LINE",
"124 432 LINE",
"415 432 LINE",
"332 0 LINE"
);
},
{
closed = 1;
nodes = (
"649 903 LINE",
"925 903 LINE",
"871 579 LINE",
"591 579 LINE"
);
}
);
width = 1501;
}
);
unicode = 0023;
},
{
glyphname = slash;
lastChange = "2018-07-25 19:37:42 +0000";
layers = (
{
layerId = "850197A4-73EE-4DD1-A43D-17FCD4749099";
paths = (
{
closed = 1;
nodes = (
"243 0 LINE",
"872 1560 LINE",
"705 1560 LINE",
"80 0 LINE"
);
}
);
width = 952;
},
{
layerId = "8183A7D6-F04A-4582-B03C-55CCED69A0BD";
paths = (
{
closed = 1;
nodes = (
"277 0 LINE",
"864 1470 LINE",
"672 1470 LINE",
"77 0 LINE"
);
}
);
width = 942;
}
);
unicode = 002F;
},
{
glyphname = backslash;
lastChange = "2018-07-25 19:37:42 +0000";
layers = (
{
layerId = "850197A4-73EE-4DD1-A43D-17FCD4749099";
paths = (
{
closed = 1;
nodes = (
"875 0 LINE",
"250 1456 LINE",
"83 1456 LINE",
"712 0 LINE"
);
}
);
width = 954;
},
{
layerId = "8183A7D6-F04A-4582-B03C-55CCED69A0BD";
paths = (
{
closed = 1;
nodes = (
"891 0 LINE",
"314 1456 LINE",
"77 1456 LINE",
"656 0 LINE"
);
}
);
width = 967;
}
);
unicode = 005C;
},
{
glyphname = parenleft;
lastChange = "2018-07-25 19:37:42 +0000";
layers = (
{
layerId = "850197A4-73EE-4DD1-A43D-17FCD4749099";
paths = (
{
closed = 1;
nodes = (
"560 -205 LINE",
"391 64 OFFCURVE",
"303 369 OFFCURVE",
"303 676 CURVE SMOOTH",
"303 978 OFFCURVE",
"388 1283 OFFCURVE",
"564 1560 CURVE",
"417 1560 LINE",
"228 1264 OFFCURVE",
"136 966 OFFCURVE",
"136 671 CURVE SMOOTH",
"136 374 OFFCURVE",
"230 81 OFFCURVE",
"411 -205 CURVE"
);
}
);
width = 640;
},
{
layerId = "8183A7D6-F04A-4582-B03C-55CCED69A0BD";
paths = (
{
closed = 1;
nodes = (
"630 -244 LINE",
"453 145 OFFCURVE",
"361 361 OFFCURVE",
"361 678 CURVE SMOOTH",
"361 985 OFFCURVE",
"445 1192 OFFCURVE",
"619 1564 CURVE",
"392 1564 LINE",
"189 1192 OFFCURVE",
"89 983 OFFCURVE",
"89 675 CURVE SMOOTH",
"89 359 OFFCURVE",
"196 143 OFFCURVE",
"403 -244 CURVE"
);
}
);
width = 703;
}
);
unicode = 0028;
},
{
glyphname = parenright;
lastChange = "2018-07-25 19:37:42 +0000";
layers = (
{
layerId = "850197A4-73EE-4DD1-A43D-17FCD4749099";
paths = (
{
closed = 1;
nodes = (
"229 -205 LINE",
"410 81 OFFCURVE",
"504 374 OFFCURVE",
"504 671 CURVE SMOOTH",
"504 966 OFFCURVE",
"412 1264 OFFCURVE",
"223 1560 CURVE",
"76 1560 LINE",
"252 1283 OFFCURVE",
"337 978 OFFCURVE",
"337 676 CURVE SMOOTH",
"337 369 OFFCURVE",
"249 64 OFFCURVE",
"80 -205 CURVE"
);
}
);
width = 640;
},
{
layerId = "8183A7D6-F04A-4582-B03C-55CCED69A0BD";
paths = (
{
closed = 1;
nodes = (
"313 -244 LINE",
"516 128 OFFCURVE",
"616 337 OFFCURVE",
"616 645 CURVE SMOOTH",
"616 961 OFFCURVE",
"509 1177 OFFCURVE",
"302 1564 CURVE",
"75 1564 LINE",
"252 1175 OFFCURVE",
"344 959 OFFCURVE",
"344 642 CURVE SMOOTH",
"344 335 OFFCURVE",
"260 128 OFFCURVE",
"86 -244 CURVE"
);
}
);
width = 704;
}
);
unicode = 0029;
},
{
glyphname = braceleft;
lastChange = "2018-07-25 19:37:42 +0000";
layers = (
{
layerId = "850197A4-73EE-4DD1-A43D-17FCD4749099";
paths = (
{
closed = 1;
nodes = (
"657 -82 LINE",
"546 -82 OFFCURVE",
"442 -42 OFFCURVE",
"442 128 CURVE SMOOTH",
"442 360 LINE SMOOTH",
"442 467 OFFCURVE",
"380 582 OFFCURVE",
"263 625 CURVE",
"368 657 OFFCURVE",
"442 736 OFFCURVE",
"442 875 CURVE SMOOTH",
"442 1148 LINE SMOOTH",
"442 1281 OFFCURVE",
"545 1335 OFFCURVE",
"658 1337 CURVE",
"658 1480 LINE",
"396 1480 OFFCURVE",
"275 1350 OFFCURVE",
"275 1156 CURVE SMOOTH",
"275 912 LINE",
"274 783 OFFCURVE",
"198 703 OFFCURVE",
"83 695 CURVE",
"83 560 LINE",
"223 548 OFFCURVE",
"275 449 OFFCURVE",
"275 319 CURVE SMOOTH",
"275 69 LINE SMOOTH",
"275 -128 OFFCURVE",
"433 -219 OFFCURVE",
"657 -225 CURVE"
);
}
);
width = 747;
},
{
layerId = "8183A7D6-F04A-4582-B03C-55CCED69A0BD";
paths = (
{
closed = 1;
nodes = (
"707 -28 LINE",
"537 -28 OFFCURVE",
"516 42 OFFCURVE",
"516 203 CURVE SMOOTH",
"516 360 LINE SMOOTH",
"516 513 OFFCURVE",
"440 626 OFFCURVE",
"332 677 CURVE",
"429 729 OFFCURVE",
"516 843 OFFCURVE",
"516 998 CURVE SMOOTH",
"516 1207 LINE SMOOTH",
"516 1343 OFFCURVE",
"572 1384 OFFCURVE",
"707 1384 CURVE",
"707 1552 LINE",
"454 1552 OFFCURVE",
"266 1440 OFFCURVE",
"266 1190 CURVE SMOOTH",
"266 1024 LINE SMOOTH",
"266 869 OFFCURVE",
"222 781 OFFCURVE",
"81 768 CURVE",
"81 586 LINE",
"241 569 OFFCURVE",
"266 473 OFFCURVE",
"266 299 CURVE SMOOTH",
"266 122 LINE SMOOTH",
"266 -107 OFFCURVE",
"489 -196 OFFCURVE",
"707 -196 CURVE"
);
}
);
width = 793;
}
);
unicode = 007B;
},
{
glyphname = braceright;
lastChange = "2018-07-25 19:37:42 +0000";
layers = (
{
layerId = "850197A4-73EE-4DD1-A43D-17FCD4749099";
paths = (
{
closed = 1;
nodes = (
"352 -225 OFFCURVE",
"473 -95 OFFCURVE",
"473 99 CURVE SMOOTH",
"473 343 LINE",
"474 472 OFFCURVE",
"550 552 OFFCURVE",
"665 560 CURVE",
"665 695 LINE",
"525 707 OFFCURVE",
"473 806 OFFCURVE",
"473 936 CURVE SMOOTH",
"473 1186 LINE SMOOTH",
"473 1383 OFFCURVE",
"315 1474 OFFCURVE",
"91 1480 CURVE",
"91 1337 LINE",
"202 1337 OFFCURVE",
"306 1297 OFFCURVE",
"306 1127 CURVE SMOOTH",
"306 895 LINE SMOOTH",
"306 788 OFFCURVE",
"368 673 OFFCURVE",
"485 630 CURVE",
"380 598 OFFCURVE",
"306 519 OFFCURVE",
"306 380 CURVE SMOOTH",
"306 107 LINE SMOOTH",
"306 -26 OFFCURVE",
"203 -80 OFFCURVE",
"90 -82 CURVE",
"90 -225 LINE"
);
}
);
width = 747;
},
{
layerId = "8183A7D6-F04A-4582-B03C-55CCED69A0BD";
paths = (
{
closed = 1;
nodes = (
"305 -317 OFFCURVE",
"465 -237 OFFCURVE",
"466 -8 CURVE SMOOTH",
"468 335 LINE SMOOTH",
"469 455 OFFCURVE",
"531 524 OFFCURVE",
"650 536 CURVE",
"652 678 LINE",
"511 691 OFFCURVE",
"466 799 OFFCURVE",
"466 954 CURVE SMOOTH",
"466 1190 LINE SMOOTH",
"466 1440 OFFCURVE",
"339 1552 OFFCURVE",
"87 1552 CURVE",
"87 1404 LINE",
"219 1400 OFFCURVE",
"272 1343 OFFCURVE",
"272 1207 CURVE SMOOTH",
"272 928 LINE SMOOTH",
"272 772 OFFCURVE",
"337 659 OFFCURVE",
"437 607 CURVE",
"329 556 OFFCURVE",
"276 443 OFFCURVE",
"276 290 CURVE SMOOTH",
"276 103 LINE SMOOTH",
"276 -107 OFFCURVE",
"247 -178 OFFCURVE",
"87 -178 CURVE",
"87 -326 LINE"
);
}
);
width = 730;
}
);
unicode = 007D;
},
{
glyphname = bracketleft;
lastChange = "2018-07-25 19:37:42 +0000";
layers = (
{
layerId = "850197A4-73EE-4DD1-A43D-17FCD4749099";
paths = (
{
closed = 1;
nodes = (
"551 -200 LINE",
"551 -78 LINE",
"357 -78 LINE",
"357 1388 LINE",
"550 1388 LINE",
"550 1510 LINE",
"194 1510 LINE",
"194 -200 LINE"
);
}
);
width = 731;
},
{
layerId = "8183A7D6-F04A-4582-B03C-55CCED69A0BD";
paths = (
{
closed = 1;
nodes = (
"638 -204 LINE",
"638 -75 LINE",
"446 -75 LINE",
"446 1350 LINE",
"638 1350 LINE",
"638 1480 LINE",
"187 1480 LINE",
"187 -204 LINE"
);
}
);
width = 812;
}
);
unicode = 005B;
},
{
glyphname = bracketright;
lastChange = "2018-07-25 19:37:42 +0000";
layers = (
{
layerId = "850197A4-73EE-4DD1-A43D-17FCD4749099";
paths = (
{
closed = 1;
nodes = (
"538 -200 LINE",
"538 1510 LINE",
"181 1510 LINE",
"181 1388 LINE",
"375 1388 LINE",
"375 -78 LINE",
"182 -78 LINE",
"182 -200 LINE"
);
}
);
width = 731;
},
{
layerId = "8183A7D6-F04A-4582-B03C-55CCED69A0BD";
paths = (
{
closed = 1;
nodes = (
"625 -222 LINE",
"625 1480 LINE",
"175 1480 LINE",
"175 1350 LINE",
"367 1350 LINE",
"367 -93 LINE",
"174 -93 LINE",
"174 -222 LINE"
);
}
);
width = 811;
}
);
unicode = 005D;
},
{
glyphname = hyphen;
lastChange = "2018-07-25 19:37:42 +0000";
layers = (
{
layerId = "850197A4-73EE-4DD1-A43D-17FCD4749099";
paths = (
{
closed = 1;
nodes = (
"999 637 LINE",
"999 780 LINE",
"200 780 LINE",
"200 637 LINE"
);
}
);
width = 1199;
},
{
layerId = "8183A7D6-F04A-4582-B03C-55CCED69A0BD";
paths = (
{
closed = 1;
nodes = (
"971 640 LINE",
"971 837 LINE",
"192 837 LINE",
"192 640 LINE"
);
}
);
width = 1163;
}
);
unicode = 002D;
},
{
glyphname = endash;
lastChange = "2018-07-25 19:37:42 +0000";
layers = (
{
layerId = "850197A4-73EE-4DD1-A43D-17FCD4749099";
paths = (
{
closed = 1;
nodes = (
"1266 489 LINE",
"1266 626 LINE",
"200 626 LINE",
"200 489 LINE"
);
}
);
width = 1466;
},
{
layerId = "8183A7D6-F04A-4582-B03C-55CCED69A0BD";
paths = (
{
closed = 1;
nodes = (
"1202 861 LINE",
"1202 1022 LINE",
"0 1022 LINE",
"0 861 LINE"
);
}
);
width = 1842;
}
);
unicode = 2013;
},
{
glyphname = emdash;
lastChange = "2018-07-25 19:37:42 +0000";
layers = (
{
layerId = "850197A4-73EE-4DD1-A43D-17FCD4749099";
paths = (
{
closed = 1;
nodes = (
"2296 489 LINE",
"2296 626 LINE",
"200 626 LINE",
"200 489 LINE"
);
}
);
width = 2496;
},
{
layerId = "8183A7D6-F04A-4582-B03C-55CCED69A0BD";
paths = (
{
closed = 1;
nodes = (
"2345 861 LINE",
"2345 1022 LINE",
"5 1022 LINE",
"5 861 LINE"
);
}
);
width = 3633;
}
);
unicode = 2014;
},
{
glyphname = underscore;
lastChange = "2018-07-25 19:37:42 +0000";
layers = (
{
layerId = "850197A4-73EE-4DD1-A43D-17FCD4749099";
paths = (
{
closed = 1;
nodes = (
"1183 -152 LINE",
"1183 -24 LINE",
"200 -24 LINE",
"200 -152 LINE"
);
}
);
width = 1383;
},
{
layerId = "8183A7D6-F04A-4582-B03C-55CCED69A0BD";
paths = (
{
closed = 1;
nodes = (
"1141 -152 LINE",
"1141 -24 LINE",
"192 -24 LINE",
"192 -152 LINE"
);
}
);
width = 1333;
}
);
unicode = 005F;
},
{
glyphname = quotesinglbase;
lastChange = "2018-07-25 19:37:42 +0000";
layers = (
{
layerId = "850197A4-73EE-4DD1-A43D-17FCD4749099";
paths = (
{
closed = 1;
nodes = (
"276 -238 LINE",
"430 201 LINE",
"249 201 LINE",
"143 -238 LINE"
);
}
);
width = 572;
},
{
layerId = "8183A7D6-F04A-4582-B03C-55CCED69A0BD";
paths = (
{
closed = 1;
nodes = (
"386 -419 LINE",
"567 96 LINE",
"355 96 LINE",
"230 -419 LINE"
);
}
);
width = 984;
}
);
unicode = 201A;
},
{
glyphname = quotedblbase;
lastChange = "2018-07-25 19:37:42 +0000";
layers = (
{
layerId = "850197A4-73EE-4DD1-A43D-17FCD4749099";
paths = (
{
closed = 1;
nodes = (
"636 -238 LINE",
"790 201 LINE",
"607 201 LINE",
"503 -238 LINE"
);
},
{
closed = 1;
nodes = (
"278 -238 LINE",
"431 201 LINE",
"249 201 LINE",
"144 -238 LINE"
);
}
);
width = 933;
},
{
layerId = "8183A7D6-F04A-4582-B03C-55CCED69A0BD";
paths = (
{
closed = 1;
nodes = (
"875 -419 LINE",
"1056 96 LINE",
"841 96 LINE",
"728 -419 LINE"
);
},
{
closed = 1;
nodes = (
"481 -419 LINE",
"651 96 LINE",
"447 96 LINE",
"324 -419 LINE"
);
}
);
width = 1786;
}
);
unicode = 201E;
},
{
glyphname = quotedblleft;
lastChange = "2018-07-25 19:37:42 +0000";
layers = (
{
layerId = "850197A4-73EE-4DD1-A43D-17FCD4749099";
paths = (
{
closed = 1;
nodes = (
"676 1016 LINE",
"780 1560 LINE",
"647 1560 LINE",
"493 1016 LINE"
);
},
{
closed = 1;
nodes = (
"326 1016 LINE",
"431 1560 LINE",
"298 1560 LINE",
"144 1016 LINE"
);
}
);
width = 923;
},
{
layerId = "8183A7D6-F04A-4582-B03C-55CCED69A0BD";
paths = (
{
closed = 1;
nodes = (
"981 963 LINE",
"1103 1480 LINE",
"947 1480 LINE",
"775 963 LINE"
);
},
{
closed = 1;
nodes = (
"595 963 LINE",
"709 1480 LINE",
"562 1480 LINE",
"382 963 LINE"
);
}
);
width = 1787;
}
);
unicode = 201C;
},
{
glyphname = quotedblright;
lastChange = "2018-07-25 19:37:42 +0000";
layers = (
{
layerId = "850197A4-73EE-4DD1-A43D-17FCD4749099";
paths = (
{
closed = 1;
nodes = (
"605 1016 LINE",
"759 1560 LINE",
"577 1560 LINE",
"472 1016 LINE"
);
},
{
closed = 1;
nodes = (
"279 1016 LINE",
"432 1560 LINE",
"250 1560 LINE",
"146 1016 LINE"
);
}
);
width = 899;
},
{
layerId = "8183A7D6-F04A-4582-B03C-55CCED69A0BD";
paths = (
{
closed = 1;
nodes = (
"993 937 LINE",
"1173 1454 LINE",
"960 1454 LINE",
"845 937 LINE"
);
},
{
closed = 1;
nodes = (
"631 937 LINE",
"803 1454 LINE",
"597 1454 LINE",
"475 937 LINE"
);
}
);
width = 1789;
}
);
unicode = 201D;
},
{
glyphname = quoteleft;
lastChange = "2018-07-25 19:37:42 +0000";
layers = (
{
layerId = "850197A4-73EE-4DD1-A43D-17FCD4749099";
paths = (
{
closed = 1;
nodes = (
"326 1016 LINE",
"430 1456 LINE",
"298 1456 LINE",
"144 1016 LINE"
);
}
);
width = 573;
},
{
layerId = "8183A7D6-F04A-4582-B03C-55CCED69A0BD";
paths = (
{
closed = 1;
nodes = (
"453 939 LINE",
"575 1456 LINE",
"420 1456 LINE",
"239 939 LINE"
);
}
);
width = 984;
}
);
unicode = 2018;
},
{
glyphname = quoteright;
lastChange = "2018-07-25 19:37:42 +0000";
layers = (
{
layerId = "850197A4-73EE-4DD1-A43D-17FCD4749099";
paths = (
{
closed = 1;
nodes = (
"277 1016 LINE",
"431 1456 LINE",
"250 1456 LINE",
"145 1016 LINE"
);
}
);
width = 571;
},
{
layerId = "8183A7D6-F04A-4582-B03C-55CCED69A0BD";
paths = (
{
closed = 1;
nodes = (
"412 939 LINE",
"592 1456 LINE",
"380 1456 LINE",
"257 939 LINE"
);
}
);
width = 984;
}
);
unicode = 2019;
},
{
glyphname = guillemotleft;
lastChange = "2018-07-25 19:37:42 +0000";
layers = (
{
layerId = "850197A4-73EE-4DD1-A43D-17FCD4749099";
paths = (
{
closed = 1;
nodes = (
"506 173 LINE",
"257 543 LINE",
"514 916 LINE",
"361 916 LINE",
"87 543 LINE",
"355 173 LINE"
);
},
{
closed = 1;
nodes = (
"871 173 LINE",
"615 543 LINE",
"878 916 LINE",
"719 916 LINE",
"452 543 LINE",
"714 173 LINE"
);
}
);
width = 965;
},
{
layerId = "8183A7D6-F04A-4582-B03C-55CCED69A0BD";
paths = (
{
closed = 1;
nodes = (
"557 301 LINE",
"282 735 LINE",
"567 1174 LINE",
"397 1174 LINE",
"82 735 LINE",
"391 301 LINE"
);
},
{
closed = 1;
nodes = (
"973 301 LINE",
"678 735 LINE",
"981 1174 LINE",
"794 1174 LINE",
"499 735 LINE",
"788 301 LINE"
);
}
);
width = 1060;
}
);
unicode = 00AB;
},
{
glyphname = guillemotright;
lastChange = "2018-07-25 19:37:42 +0000";
layers = (
{
layerId = "850197A4-73EE-4DD1-A43D-17FCD4749099";
paths = (
{
closed = 1;
nodes = (
"248 173 LINE",
"515 544 LINE",
"253 916 LINE",
"95 916 LINE",
"352 544 LINE",
"88 173 LINE"
);
},
{
closed = 1;
nodes = (
"631 173 LINE",
"905 544 LINE",
"636 916 LINE",
"487 916 LINE",
"733 544 LINE",
"480 173 LINE"
);
}
);
width = 990;
},
{
layerId = "8183A7D6-F04A-4582-B03C-55CCED69A0BD";
paths = (
{
closed = 1;
nodes = (
"269 301 LINE",
"566 737 LINE",
"274 1174 LINE",
"88 1174 LINE",
"386 737 LINE",
"81 301 LINE"
);
},
{
closed = 1;
nodes = (
"694 301 LINE",
"1010 737 LINE",
"699 1174 LINE",
"534 1174 LINE",
"808 737 LINE",
"526 301 LINE"
);
}
);
width = 1091;
}
);
unicode = 00BB;
},
{
glyphname = guilsinglleft;
lastChange = "2018-07-25 19:37:42 +0000";
layers = (
{
layerId = "850197A4-73EE-4DD1-A43D-17FCD4749099";
paths = (
{
closed = 1;
nodes = (
"540 171 LINE",
"285 541 LINE",
"548 914 LINE",
"389 914 LINE",
"115 541 LINE",
"384 171 LINE"
);
}
);
width = 652;
},
{
layerId = "8183A7D6-F04A-4582-B03C-55CCED69A0BD";
paths = (
{
closed = 1;
nodes = (
"694 301 LINE",
"394 735 LINE",
"703 1174 LINE",
"517 1174 LINE",
"195 735 LINE",
"511 301 LINE"
);
}
);
width = 1140;
}
);
unicode = 2039;
},
{
glyphname = guilsinglright;
lastChange = "2018-07-25 19:37:42 +0000";
layers = (
{
layerId = "850197A4-73EE-4DD1-A43D-17FCD4749099";
paths = (
{
closed = 1;
nodes = (
"300 171 LINE",
"577 542 LINE",
"306 914 LINE",
"151 914 LINE",
"405 542 LINE",
"143 171 LINE"
);
}
);
width = 652;
},
{
layerId = "8183A7D6-F04A-4582-B03C-55CCED69A0BD";
paths = (
{
closed = 1;
nodes = (
"376 301 LINE",
"701 737 LINE",
"383 1174 LINE",
"201 1174 LINE",
"499 737 LINE",
"191 301 LINE"
);
}
);
width = 1140;
}
);
unicode = 203A;
},
{
glyphname = quotedbl;
lastChange = "2018-07-25 19:37:42 +0000";
layers = (
{
layerId = "850197A4-73EE-4DD1-A43D-17FCD4749099";
paths = (
{
closed = 1;
nodes = (
"598 931 LINE",
"656 1456 LINE",
"489 1456 LINE",
"490 931 LINE"
);
},
{
closed = 1;
nodes = (
"300 931 LINE",
"356 1456 LINE",
"190 1456 LINE",
"191 931 LINE"
);
}
);
width = 847;
},
{
layerId = "8183A7D6-F04A-4582-B03C-55CCED69A0BD";
paths = (
{
closed = 1;
nodes = (
"711 884 LINE",
"741 1456 LINE",
"520 1456 LINE",
"562 884 LINE"
);
},
{
closed = 1;
nodes = (
"373 884 LINE",
"403 1456 LINE",
"182 1456 LINE",
"224 884 LINE"
);
}
);
width = 923;
}
);
unicode = 0022;
},
{
glyphname = quotesingle;
lastChange = "2018-07-25 19:37:42 +0000";
layers = (
{
layerId = "850197A4-73EE-4DD1-A43D-17FCD4749099";
paths = (
{
closed = 1;
nodes = (
"306 994 LINE",
"356 1456 LINE",
"190 1456 LINE",
"192 994 LINE"
);
}
);
width = 548;
},
{
layerId = "8183A7D6-F04A-4582-B03C-55CCED69A0BD";
paths = (
{
closed = 1;
nodes = (
"330 908 LINE",
"402 1480 LINE",
"181 1480 LINE",
"181 908 LINE"
);
}
);
width = 584;
}
);
unicode = 0027;
},
{
glyphname = Euro;
lastChange = "2018-07-25 19:37:42 +0000";
layers = (
{
components = (
{
name = C;
transform = "{1, 0, 0, 1, 25, 0}";
}
);
layerId = "850197A4-73EE-4DD1-A43D-17FCD4749099";
paths = (
{
closed = 1;
nodes = (
"850 516 LINE",
"869 644 LINE",
"313 644 LINE",
"313 794 LINE",
"883 794 LINE",
"903 922 LINE",
"32 922 LINE",
"10 794 LINE",
"222 794 LINE",
"222 644 LINE",
"33 644 LINE",
"13 516 LINE"
);
}
);
width = 1394;
},
{
components = (
{
name = C;
transform = "{1, 0, 0, 1, 30, 0}";
}
);
layerId = "8183A7D6-F04A-4582-B03C-55CCED69A0BD";
paths = (
{
closed = 1;
nodes = (
"1000 466 LINE",
"1023 628 LINE",
"346 628 LINE",
"346 814 LINE",
"1038 814 LINE",
"1062 976 LINE",
"17 976 LINE",
"-9 814 LINE",
"219 814 LINE",
"219 628 LINE",
"18 628 LINE",
"-5 466 LINE"
);
}
);
width = 1370;
}
);
unicode = 20AC;
},
{
glyphname = cent;
lastChange = "2018-07-25 19:37:42 +0000";
layers = (
{
layerId = "850197A4-73EE-4DD1-A43D-17FCD4749099";
paths = (
{
closed = 1;
nodes = (
"661 -235 LINE",
"661 -20 LINE",
"756 -10 OFFCURVE",
"862 23 OFFCURVE",
"968 87 CURVE",
"932 225 LINE",
"836 159 OFFCURVE",
"743 129 OFFCURVE",
"661 120 CURVE",
"661 907 LINE",
"753 898 OFFCURVE",
"826 862 OFFCURVE",
"875 801 CURVE",
"952 912 LINE",
"892 991 OFFCURVE",
"790 1039 OFFCURVE",
"661 1049 CURVE",
"661 1281 LINE",
"553 1281 LINE",
"553 1049 LINE",
"277 1024 OFFCURVE",
"105 805 OFFCURVE",
"105 503 CURVE SMOOTH",
"105 213 OFFCURVE",
"298 6 OFFCURVE",
"553 -20 CURVE",
"553 -235 LINE"
);
},
{
closed = 1;
nodes = (
"390 148 OFFCURVE",
"278 285 OFFCURVE",
"278 508 CURVE SMOOTH",
"278 714 OFFCURVE",
"373 874 OFFCURVE",
"553 904 CURVE",
"553 122 LINE"
);
}
);
width = 1059;
},
{
components = (
{
name = c;
transform = "{1, 0, 0, 1, -19, 0}";
}
);
layerId = "8183A7D6-F04A-4582-B03C-55CCED69A0BD";
paths = (
{
closed = 1;
nodes = (
"699 -414 LINE",
"699 1366 LINE",
"566 1366 LINE",
"566 -414 LINE"
);
}
);
width = 1027;
}
);
unicode = 00A2;
},
{
glyphname = currency;
lastChange = "2018-07-25 19:37:42 +0000";
layers = (
{
layerId = "850197A4-73EE-4DD1-A43D-17FCD4749099";
paths = (
{
closed = 1;
nodes = (
"374 363 LINE",
"439 308 OFFCURVE",
"522 274 OFFCURVE",
"611 274 CURVE SMOOTH",
"707 274 OFFCURVE",
"795 310 OFFCURVE",
"861 371 CURVE",
"1027 210 LINE",
"1064 246 LINE",
"896 408 LINE",
"954 475 OFFCURVE",
"990 560 OFFCURVE",
"990 659 CURVE SMOOTH",
"990 758 OFFCURVE",
"953 848 OFFCURVE",
"891 917 CURVE",
"1049 1081 LINE",
"1009 1120 LINE",
"853 956 LINE",
"789 1013 OFFCURVE",
"706 1048 OFFCURVE",
"613 1048 CURVE SMOOTH",
"519 1048 OFFCURVE",
"429 1009 OFFCURVE",
"362 947 CURVE",
"202 1104 LINE",
"163 1065 LINE",
"326 908 LINE",
"268 840 OFFCURVE",
"232 754 OFFCURVE",
"232 661 CURVE SMOOTH",
"232 559 OFFCURVE",
"273 467 OFFCURVE",
"337 398 CURVE",
"178 232 LINE",
"214 195 LINE"
);
},
{
closed = 1;
nodes = (
"447 351 OFFCURVE",
"320 489 OFFCURVE",
"320 658 CURVE SMOOTH",
"320 825 OFFCURVE",
"451 965 OFFCURVE",
"610 965 CURVE SMOOTH",
"773 965 OFFCURVE",
"898 826 OFFCURVE",
"898 659 CURVE SMOOTH",
"898 485 OFFCURVE",
"773 351 OFFCURVE",
"609 351 CURVE SMOOTH"
);
}
);
width = 1227;
},
{
layerId = "8183A7D6-F04A-4582-B03C-55CCED69A0BD";
paths = (
{
closed = 1;
nodes = (
"392 540 LINE",
"464 475 OFFCURVE",
"556 456 OFFCURVE",
"654 456 CURVE SMOOTH",
"760 456 OFFCURVE",
"857 479 OFFCURVE",
"930 550 CURVE",
"1123 361 LINE",
"1166 403 LINE",
"970 593 LINE",
"1037 670 OFFCURVE",
"1076 769 OFFCURVE",
"1079 879 CURVE SMOOTH",
"1079 890 LINE SMOOTH",
"1079 1005 OFFCURVE",
"1035 1111 OFFCURVE",
"963 1191 CURVE",
"1149 1384 LINE",
"1101 1429 LINE",
"922 1236 LINE",
"852 1301 OFFCURVE",
"763 1322 OFFCURVE",
"665 1325 CURVE SMOOTH",
"649 1325 LINE SMOOTH",
"548 1325 OFFCURVE",
"453 1298 OFFCURVE",
"380 1226 CURVE",
"194 1410 LINE",
"149 1365 LINE",
"339 1180 LINE",
"272 1101 OFFCURVE",
"229 1000 OFFCURVE",
"229 891 CURVE SMOOTH",
"229 772 OFFCURVE",
"277 662 OFFCURVE",
"352 581 CURVE",
"167 387 LINE",
"209 343 LINE"
);
},
{
closed = 1;
nodes = (
"473 546 OFFCURVE",
"334 688 OFFCURVE",
"334 888 CURVE SMOOTH",
"334 1083 OFFCURVE",
"476 1227 OFFCURVE",
"652 1227 CURVE SMOOTH",
"661 1227 LINE SMOOTH",
"837 1223 OFFCURVE",
"971 1082 OFFCURVE",
"971 888 CURVE SMOOTH",
"971 879 LINE SMOOTH",
"966 680 OFFCURVE",
"832 546 OFFCURVE",
"652 546 CURVE SMOOTH"
);
}
);
width = 1313;
}
);
unicode = 00A4;
},
{
glyphname = dollar;
lastChange = "2018-07-25 19:37:42 +0000";
layers = (
{
components = (
{
name = S;
}
);
layerId = "850197A4-73EE-4DD1-A43D-17FCD4749099";
paths = (
{
closed = 1;
nodes = (
"611 -196 LINE",
"611 1747 LINE",
"547 1747 LINE",
"547 -196 LINE"
);
}
);
width = 1102;
},
{
components = (
{
name = S;
transform = "{1, 0, 0, 1, -33, 0}";
}
);
layerId = "8183A7D6-F04A-4582-B03C-55CCED69A0BD";
paths = (
{
closed = 1;
nodes = (
"686 -213 LINE",
"686 1729 LINE",
"567 1729 LINE",
"567 -213 LINE"
);
}
);
width = 1227;
}
);
unicode = 0024;
},
{
glyphname = florin;
lastChange = "2018-07-25 19:37:42 +0000";
layers = (
{
layerId = "850197A4-73EE-4DD1-A43D-17FCD4749099";
paths = (
{
closed = 1;
nodes = (
"424 -242 OFFCURVE",
"481 -18 OFFCURVE",
"522 210 CURVE SMOOTH",
"645 906 LINE",
"844 906 LINE",
"862 1026 LINE",
"665 1026 LINE",
"700 1229 LINE SMOOTH",
"717 1326 OFFCURVE",
"756 1384 OFFCURVE",
"871 1384 CURVE SMOOTH",
"911 1384 OFFCURVE",
"947 1375 OFFCURVE",
"980 1362 CURVE",
"988 1507 LINE",
"944 1518 OFFCURVE",
"895 1526 OFFCURVE",
"845 1526 CURVE SMOOTH",
"628 1526 OFFCURVE",
"570 1393 OFFCURVE",
"534 1201 CURVE SMOOTH",
"501 1026 LINE",
"339 1026 LINE",
"321 906 LINE",
"480 906 LINE",
"332 97 LINE SMOOTH",
"315 5 OFFCURVE",
"274 -104 OFFCURVE",
"162 -104 CURVE SMOOTH",
"137 -104 OFFCURVE",
"111 -99 OFFCURVE",
"84 -88 CURVE",
"72 -226 LINE",
"110 -237 OFFCURVE",
"145 -242 OFFCURVE",
"176 -242 CURVE SMOOTH"
);
}
);
width = 1088;
},
{
layerId = "8183A7D6-F04A-4582-B03C-55CCED69A0BD";
paths = (
{
closed = 1;
nodes = (
"332 -585 OFFCURVE",
"394 -570 OFFCURVE",
"436 -541 CURVE SMOOTH",
"571 -451 OFFCURVE",
"613 -255 OFFCURVE",
"649 -54 CURVE",
"784 748 LINE",
"1018 748 LINE",
"1029 912 LINE",
"808 912 LINE",
"846 1143 LINE",
"866 1257 OFFCURVE",
"908 1324 OFFCURVE",
"1041 1324 CURVE SMOOTH",
"1087 1324 OFFCURVE",
"1129 1314 OFFCURVE",
"1168 1299 CURVE",
"1177 1469 LINE",
"1125 1482 OFFCURVE",
"1068 1491 OFFCURVE",
"1010 1491 CURVE SMOOTH",
"767 1491 OFFCURVE",
"679 1318 OFFCURVE",
"651 1090 CURVE",
"627 912 LINE",
"448 912 LINE",
"437 748 LINE",
"602 748 LINE",
"548 437 OFFCURVE",
"506 110 OFFCURVE",
"439 -187 CURVE",
"416 -294 OFFCURVE",
"376 -422 OFFCURVE",
"245 -422 CURVE SMOOTH",
"216 -422 OFFCURVE",
"185 -417 OFFCURVE",
"153 -404 CURVE",
"139 -566 LINE",
"183 -579 OFFCURVE",
"224 -585 OFFCURVE",
"260 -585 CURVE SMOOTH"
);
}
);
width = 2044;
}
);
unicode = 0192;
},
{
glyphname = sterling;
lastChange = "2018-07-25 19:37:42 +0000";
layers = (
{
layerId = "850197A4-73EE-4DD1-A43D-17FCD4749099";
paths = (
{
closed = 1;
nodes = (
"1137 0 LINE",
"1137 141 LINE",
"387 141 LINE",
"481 217 OFFCURVE",
"524 352 OFFCURVE",
"524 551 CURVE SMOOTH",
"524 711 LINE",
"863 711 LINE",
"863 843 LINE",
"522 843 LINE",
"522 1085 LINE SMOOTH",
"522 1294 OFFCURVE",
"579 1436 OFFCURVE",
"779 1436 CURVE SMOOTH",
"886 1436 OFFCURVE",
"972 1407 OFFCURVE",
"1042 1364 CURVE",
"1094 1495 LINE",
"1017 1556 OFFCURVE",
"908 1586 OFFCURVE",
"769 1586 CURVE SMOOTH",
"473 1586 OFFCURVE",
"350 1379 OFFCURVE",
"350 1029 CURVE SMOOTH",
"350 843 LINE",
"168 843 LINE",
"168 711 LINE",
"351 711 LINE",
"351 500 LINE SMOOTH",
"351 332 OFFCURVE",
"298 199 OFFCURVE",
"194 138 CURVE",
"194 0 LINE"
);
}
);
width = 1273;
},
{
layerId = "8183A7D6-F04A-4582-B03C-55CCED69A0BD";
paths = (
{
closed = 1;
nodes = (
"1106 0 LINE",
"1106 177 LINE",
"457 177 LINE",
"560 234 OFFCURVE",
"617 391 OFFCURVE",
"617 595 CURVE SMOOTH",
"617 675 LINE",
"953 675 LINE",
"953 820 LINE",
"615 820 LINE",
"615 969 LINE SMOOTH",
"615 1194 OFFCURVE",
"715 1272 OFFCURVE",
"836 1272 CURVE SMOOTH",
"909 1272 OFFCURVE",
"991 1243 OFFCURVE",
"1061 1200 CURVE",
"1131 1378 LINE",
"1052 1440 OFFCURVE",
"941 1480 OFFCURVE",
"807 1480 CURVE SMOOTH",
"472 1480 OFFCURVE",
"367 1266 OFFCURVE",
"367 909 CURVE SMOOTH",
"367 820 LINE",
"180 820 LINE",
"180 675 LINE",
"367 675 LINE",
"367 540 LINE SMOOTH",
"367 316 OFFCURVE",
"312 204 OFFCURVE",
"206 142 CURVE",
"208 0 LINE"
);
}
);
width = 1310;
}
);
unicode = 00A3;
},
